G04*
G04 #@! TF.GenerationSoftware,Altium Limited,Altium Designer,20.2.5 (213)*
G04*
G04 Layer_Color=128*
%FSTAX24Y24*%
%MOIN*%
G70*
G04*
G04 #@! TF.SameCoordinates,673CB199-A7F1-4250-81FB-05A331180C63*
G04*
G04*
G04 #@! TF.FilePolarity,Positive*
G04*
G01*
G75*
%ADD63C,0.0020*%
D63*
X064772Y00715D02*
X065284D01*
X065028Y006894D02*
Y007406D01*
X068767Y00715D02*
X069279D01*
X069023Y006894D02*
Y007406D01*
X066767Y00715D02*
X067279D01*
X067023Y006894D02*
Y007406D01*
X058313Y0072D02*
X058825D01*
X058569Y006944D02*
Y007456D01*
X062308Y0072D02*
X06282D01*
X062564Y006944D02*
Y007456D01*
X060308Y0072D02*
X06082D01*
X060564Y006944D02*
Y007456D01*
X051855Y0071D02*
X052366D01*
X05211Y006844D02*
Y007356D01*
X05585Y0071D02*
X056361D01*
X056105Y006844D02*
Y007356D01*
X05385Y0071D02*
X054361D01*
X054105Y006844D02*
Y007356D01*
X047391Y007D02*
X047903D01*
X047647Y006744D02*
Y007256D01*
X049391Y007D02*
X049903D01*
X049647Y006744D02*
Y007256D01*
X045396Y007D02*
X045908D01*
X045652Y006744D02*
Y007256D01*
X051462Y01663D02*
X051738D01*
X0516Y016493D02*
Y016768D01*
X051462Y02167D02*
X051738D01*
X0516Y021532D02*
Y021807D01*
X04045Y00695D02*
X04095D01*
X0407Y0067D02*
Y0072D01*
X04245Y00695D02*
X04295D01*
X0427Y0067D02*
Y0072D01*
X038267Y00695D02*
X038767D01*
X038517Y0067D02*
Y0072D01*
X036267Y00695D02*
X036767D01*
X036517Y0067D02*
Y0072D01*
X034083Y00695D02*
X034583D01*
X034333Y0067D02*
Y0072D01*
X032083Y00695D02*
X032583D01*
X032333Y0067D02*
Y0072D01*
X025739Y00705D02*
X026251D01*
X025995Y006794D02*
Y007306D01*
X021744Y00705D02*
X022256D01*
X022Y006794D02*
Y007306D01*
X023744Y00705D02*
X024256D01*
X024Y006794D02*
Y007306D01*
X01919Y0094D02*
X019426D01*
X019308Y009282D02*
Y009518D01*
X015174Y0094D02*
X01541D01*
X015292Y009282D02*
Y009518D01*
X01795Y0068D02*
X01845D01*
X0182Y00655D02*
Y00705D01*
X01595Y0068D02*
X01645D01*
X0162Y00655D02*
Y00705D01*
X017874Y01115D02*
X01811D01*
X017992Y011032D02*
Y011268D01*
X02189Y01115D02*
X022126D01*
X022008Y011032D02*
Y011268D01*
X012724Y01125D02*
X01296D01*
X012842Y011132D02*
Y011368D01*
X01674Y01125D02*
X016976D01*
X016858Y011132D02*
Y011368D01*
X002274Y0112D02*
X00251D01*
X002392Y011082D02*
Y011318D01*
X00629Y0112D02*
X006526D01*
X006408Y011082D02*
Y011318D01*
X00879Y00965D02*
X009026D01*
X008908Y009532D02*
Y009768D01*
X004774Y00965D02*
X00501D01*
X004892Y009532D02*
Y009768D01*
X00765Y007D02*
X00815D01*
X0079Y00675D02*
Y00725D01*
X00565Y007D02*
X00615D01*
X0059Y00675D02*
Y00725D01*
X007024Y0113D02*
X00726D01*
X007142Y011182D02*
Y011418D01*
X01104Y0113D02*
X011276D01*
X011158Y011182D02*
Y011418D01*
X010526Y014253D02*
X010802D01*
X010664Y014115D02*
Y014391D01*
X010526Y015253D02*
X010802D01*
X010664Y015115D02*
Y015391D01*
X009466Y014253D02*
X009742D01*
X009604Y014115D02*
Y014391D01*
X009466Y015253D02*
X009742D01*
X009604Y015115D02*
Y015391D01*
X021562Y01395D02*
X021838D01*
X0217Y013812D02*
Y014088D01*
X021562Y01495D02*
X021838D01*
X0217Y014812D02*
Y015088D01*
X022882Y012742D02*
X023118D01*
X023Y012624D02*
Y01286D01*
X022882Y016758D02*
X023118D01*
X023Y01664D02*
Y016876D01*
X011982Y012442D02*
X012218D01*
X0121Y012324D02*
Y01256D01*
X011982Y016458D02*
X012218D01*
X0121Y01634D02*
Y016576D01*
X00704Y0174D02*
X00736D01*
X0072Y01724D02*
Y01756D01*
X00604Y0174D02*
X00636D01*
X0062Y01724D02*
Y01756D01*
X00404Y0174D02*
X00436D01*
X0042Y01724D02*
Y01756D01*
X00804Y0174D02*
X00836D01*
X0082Y01724D02*
Y01756D01*
X00504Y0174D02*
X00536D01*
X0052Y01724D02*
Y01756D01*
X015995Y0128D02*
X016305D01*
X01615Y012645D02*
Y012955D01*
X016995Y0128D02*
X017305D01*
X01715Y012645D02*
Y012955D01*
X017995Y0128D02*
X018305D01*
X01815Y012645D02*
Y012955D01*
X018995Y0128D02*
X019305D01*
X01915Y012645D02*
Y012955D01*
X015995Y0158D02*
X016305D01*
X01615Y015645D02*
Y015955D01*
X016995Y0158D02*
X017305D01*
X01715Y015645D02*
Y015955D01*
X017995Y0158D02*
X018305D01*
X01815Y015645D02*
Y015955D01*
X018995Y0158D02*
X019305D01*
X01915Y015645D02*
Y015955D01*
X005045Y01295D02*
X005355D01*
X0052Y012795D02*
Y013105D01*
X006045Y01295D02*
X006355D01*
X0062Y012795D02*
Y013105D01*
X007045Y01295D02*
X007355D01*
X0072Y012795D02*
Y013105D01*
X008045Y01295D02*
X008355D01*
X0082Y012795D02*
Y013105D01*
X005045Y01595D02*
X005355D01*
X0052Y015795D02*
Y016105D01*
X006045Y01595D02*
X006355D01*
X0062Y015795D02*
Y016105D01*
X007045Y01595D02*
X007355D01*
X0072Y015795D02*
Y016105D01*
X008045Y01595D02*
X008355D01*
X0082Y015795D02*
Y016105D01*
X028225Y0241D02*
X028575D01*
X0284Y023925D02*
Y024275D01*
X025225Y0241D02*
X025575D01*
X0254Y023925D02*
Y024275D01*
X033923Y03935D02*
X034277D01*
X0341Y039173D02*
Y039527D01*
X032923Y03935D02*
X033277D01*
X0331Y039173D02*
Y039527D01*
X031923Y03935D02*
X032277D01*
X0321Y039173D02*
Y039527D01*
X030923Y03935D02*
X031277D01*
X0311Y039173D02*
Y039527D01*
X029923Y03935D02*
X030277D01*
X0301Y039173D02*
Y039527D01*
X028923Y03935D02*
X029277D01*
X0291Y039173D02*
Y039527D01*
X027923Y03935D02*
X028277D01*
X0281Y039173D02*
Y039527D01*
X026923Y03935D02*
X027277D01*
X0271Y039173D02*
Y039527D01*
X017923Y02035D02*
X018277D01*
X0181Y020173D02*
Y020527D01*
X016923Y02035D02*
X017277D01*
X0171Y020173D02*
Y020527D01*
X015923Y02035D02*
X016277D01*
X0161Y020173D02*
Y020527D01*
X014923Y02035D02*
X015277D01*
X0151Y020173D02*
Y020527D01*
X013923Y02035D02*
X014277D01*
X0141Y020173D02*
Y020527D01*
X012923Y02035D02*
X013277D01*
X0131Y020173D02*
Y020527D01*
X017923Y03935D02*
X018277D01*
X0181Y039173D02*
Y039527D01*
X018923Y03935D02*
X019277D01*
X0191Y039173D02*
Y039527D01*
X019923Y03935D02*
X020277D01*
X0201Y039173D02*
Y039527D01*
X020923Y03935D02*
X021277D01*
X0211Y039173D02*
Y039527D01*
X021923Y03935D02*
X022277D01*
X0221Y039173D02*
Y039527D01*
X022923Y03935D02*
X023277D01*
X0231Y039173D02*
Y039527D01*
X023923Y03935D02*
X024277D01*
X0241Y039173D02*
Y039527D01*
X024923Y03935D02*
X025277D01*
X0251Y039173D02*
Y039527D01*
X009423Y03935D02*
X009777D01*
X0096Y039173D02*
Y039527D01*
X010423Y03935D02*
X010777D01*
X0106Y039173D02*
Y039527D01*
X011423Y03935D02*
X011777D01*
X0116Y039173D02*
Y039527D01*
X012423Y03935D02*
X012777D01*
X0126Y039173D02*
Y039527D01*
X013423Y03935D02*
X013777D01*
X0136Y039173D02*
Y039527D01*
X014423Y03935D02*
X014777D01*
X0146Y039173D02*
Y039527D01*
X015423Y03935D02*
X015777D01*
X0156Y039173D02*
Y039527D01*
X016423Y03935D02*
X016777D01*
X0166Y039173D02*
Y039527D01*
X028923Y02035D02*
X029277D01*
X0291Y020173D02*
Y020527D01*
X029923Y02035D02*
X030277D01*
X0301Y020173D02*
Y020527D01*
X030923Y02035D02*
X031277D01*
X0311Y020173D02*
Y020527D01*
X031923Y02035D02*
X032277D01*
X0321Y020173D02*
Y020527D01*
X032923Y02035D02*
X033277D01*
X0331Y020173D02*
Y020527D01*
X033923Y02035D02*
X034277D01*
X0341Y020173D02*
Y020527D01*
X034923Y02035D02*
X035277D01*
X0351Y020173D02*
Y020527D01*
X035923Y02035D02*
X036277D01*
X0361Y020173D02*
Y020527D01*
X019923Y02035D02*
X020277D01*
X0201Y020173D02*
Y020527D01*
X020923Y02035D02*
X021277D01*
X0211Y020173D02*
Y020527D01*
X021923Y02035D02*
X022277D01*
X0221Y020173D02*
Y020527D01*
X022923Y02035D02*
X023277D01*
X0231Y020173D02*
Y020527D01*
X023923Y02035D02*
X024277D01*
X0241Y020173D02*
Y020527D01*
X024923Y02035D02*
X025277D01*
X0251Y020173D02*
Y020527D01*
X025923Y02035D02*
X026277D01*
X0261Y020173D02*
Y020527D01*
X026923Y02035D02*
X027277D01*
X0271Y020173D02*
Y020527D01*
X037923Y02235D02*
X038277D01*
X0381Y022173D02*
Y022527D01*
X036923Y02235D02*
X037277D01*
X0371Y022173D02*
Y022527D01*
X037923Y02335D02*
X038277D01*
X0381Y023173D02*
Y023527D01*
X036923Y02335D02*
X037277D01*
X0371Y023173D02*
Y023527D01*
X037923Y02435D02*
X038277D01*
X0381Y024173D02*
Y024527D01*
X036923Y02435D02*
X037277D01*
X0371Y024173D02*
Y024527D01*
X037923Y02535D02*
X038277D01*
X0381Y025173D02*
Y025527D01*
X036923Y02535D02*
X037277D01*
X0371Y025173D02*
Y025527D01*
X037923Y02635D02*
X038277D01*
X0381Y026173D02*
Y026527D01*
X036923Y02635D02*
X037277D01*
X0371Y026173D02*
Y026527D01*
X037923Y02735D02*
X038277D01*
X0381Y027173D02*
Y027527D01*
X036923Y02735D02*
X037277D01*
X0371Y027173D02*
Y027527D01*
X037923Y02835D02*
X038277D01*
X0381Y028173D02*
Y028527D01*
X036923Y02835D02*
X037277D01*
X0371Y028173D02*
Y028527D01*
X037923Y02935D02*
X038277D01*
X0381Y029173D02*
Y029527D01*
X036923Y02935D02*
X037277D01*
X0371Y029173D02*
Y029527D01*
X037923Y03035D02*
X038277D01*
X0381Y030173D02*
Y030527D01*
X036923Y03035D02*
X037277D01*
X0371Y030173D02*
Y030527D01*
X037923Y03135D02*
X038277D01*
X0381Y031173D02*
Y031527D01*
X036923Y03135D02*
X037277D01*
X0371Y031173D02*
Y031527D01*
X037923Y03235D02*
X038277D01*
X0381Y032173D02*
Y032527D01*
X036923Y03235D02*
X037277D01*
X0371Y032173D02*
Y032527D01*
X037923Y03335D02*
X038277D01*
X0381Y033173D02*
Y033527D01*
X036923Y03335D02*
X037277D01*
X0371Y033173D02*
Y033527D01*
X037923Y03435D02*
X038277D01*
X0381Y034173D02*
Y034527D01*
X036923Y03435D02*
X037277D01*
X0371Y034173D02*
Y034527D01*
X037923Y03535D02*
X038277D01*
X0381Y035173D02*
Y035527D01*
X036923Y03535D02*
X037277D01*
X0371Y035173D02*
Y035527D01*
X037923Y03635D02*
X038277D01*
X0381Y036173D02*
Y036527D01*
X036923Y03635D02*
X037277D01*
X0371Y036173D02*
Y036527D01*
X037923Y03735D02*
X038277D01*
X0381Y037173D02*
Y037527D01*
X036923Y03735D02*
X037277D01*
X0371Y037173D02*
Y037527D01*
X037923Y03835D02*
X038277D01*
X0381Y038173D02*
Y038527D01*
X036923Y03835D02*
X037277D01*
X0371Y038173D02*
Y038527D01*
X037923Y03935D02*
X038277D01*
X0381Y039173D02*
Y039527D01*
X036923Y03935D02*
X037277D01*
X0371Y039173D02*
Y039527D01*
X020562Y0149D02*
X020838D01*
X0207Y014762D02*
Y015038D01*
X020562Y0139D02*
X020838D01*
X0207Y013762D02*
Y014038D01*
X01909Y0172D02*
X01941D01*
X01925Y01704D02*
Y01736D01*
X01509Y0172D02*
X01541D01*
X01525Y01704D02*
Y01736D01*
X01609Y0172D02*
X01641D01*
X01625Y01704D02*
Y01736D01*
X01709Y0172D02*
X01741D01*
X01725Y01704D02*
Y01736D01*
X01809Y0172D02*
X01841D01*
X01825Y01704D02*
Y01736D01*
X065599Y02965D02*
X066001D01*
X0658Y029449D02*
Y029851D01*
X065599Y03065D02*
X066001D01*
X0658Y030449D02*
Y030851D01*
X065599Y03165D02*
X066001D01*
X0658Y031449D02*
Y031851D01*
X065599Y03265D02*
X066001D01*
X0658Y032449D02*
Y032851D01*
X065599Y03365D02*
X066001D01*
X0658Y033449D02*
Y033851D01*
X065599Y03465D02*
X066001D01*
X0658Y034449D02*
Y034851D01*
X065599Y03565D02*
X066001D01*
X0658Y035449D02*
Y035851D01*
X065599Y03665D02*
X066001D01*
X0658Y036449D02*
Y036851D01*
X065599Y03765D02*
X066001D01*
X0658Y037449D02*
Y037851D01*
X065599Y03865D02*
X066001D01*
X0658Y038449D02*
Y038851D01*
X064599Y03865D02*
X065001D01*
X0648Y038449D02*
Y038851D01*
X064599Y03765D02*
X065001D01*
X0648Y037449D02*
Y037851D01*
X064599Y03665D02*
X065001D01*
X0648Y036449D02*
Y036851D01*
X064599Y03565D02*
X065001D01*
X0648Y035449D02*
Y035851D01*
X064599Y03465D02*
X065001D01*
X0648Y034449D02*
Y034851D01*
X064599Y03365D02*
X065001D01*
X0648Y033449D02*
Y033851D01*
X064599Y03265D02*
X065001D01*
X0648Y032449D02*
Y032851D01*
X064599Y03165D02*
X065001D01*
X0648Y031449D02*
Y031851D01*
X064599Y03065D02*
X065001D01*
X0648Y030449D02*
Y030851D01*
X064599Y02965D02*
X065001D01*
X0648Y029449D02*
Y029851D01*
X053913Y015591D02*
X054363D01*
X054138Y015366D02*
Y015816D01*
X056275Y01D02*
X056725D01*
X0565Y009775D02*
Y010225D01*
X051475Y01D02*
X051925D01*
X0517Y009775D02*
Y010225D01*
X056275Y014803D02*
X056725D01*
X0565Y014578D02*
Y015028D01*
X051551Y014803D02*
X052001D01*
X051776Y014578D02*
Y015028D01*
X060313Y015691D02*
X060763D01*
X060538Y015466D02*
Y015916D01*
X062675Y0101D02*
X063125D01*
X0629Y009875D02*
Y010325D01*
X057875Y0101D02*
X058325D01*
X0581Y009875D02*
Y010325D01*
X062675Y014903D02*
X063125D01*
X0629Y014678D02*
Y015128D01*
X057951Y014903D02*
X058401D01*
X058176Y014678D02*
Y015128D01*
X066713Y015641D02*
X067163D01*
X066938Y015416D02*
Y015866D01*
X069075Y01005D02*
X069525D01*
X0693Y009825D02*
Y010275D01*
X064275Y01005D02*
X064725D01*
X0645Y009825D02*
Y010275D01*
X069075Y014853D02*
X069525D01*
X0693Y014628D02*
Y015078D01*
X064351Y014853D02*
X064801D01*
X064576Y014628D02*
Y015078D01*
X017699Y0334D02*
X018101D01*
X0179Y033199D02*
Y033601D01*
X017699Y0324D02*
X018101D01*
X0179Y032199D02*
Y032601D01*
X017699Y0314D02*
X018101D01*
X0179Y031199D02*
Y031601D01*
X017699Y0304D02*
X018101D01*
X0179Y030199D02*
Y030601D01*
X017699Y0294D02*
X018101D01*
X0179Y029199D02*
Y029601D01*
X017699Y0284D02*
X018101D01*
X0179Y028199D02*
Y028601D01*
X02848Y01095D02*
X02882D01*
X02865Y01078D02*
Y01112D01*
X02953Y01095D02*
X02987D01*
X0297Y01078D02*
Y01112D01*
X028199Y0261D02*
X028601D01*
X0284Y025899D02*
Y026301D01*
X027199Y0261D02*
X027601D01*
X0274Y025899D02*
Y026301D01*
X026199Y0261D02*
X026601D01*
X0264Y025899D02*
Y026301D01*
X025199Y0261D02*
X025601D01*
X0254Y025899D02*
Y026301D01*
X024199Y0261D02*
X024601D01*
X0244Y025899D02*
Y026301D01*
X03688Y01095D02*
X03722D01*
X03705Y01078D02*
Y01112D01*
X03793Y01095D02*
X03827D01*
X0381Y01078D02*
Y01112D01*
X04108Y01095D02*
X04142D01*
X04125Y01078D02*
Y01112D01*
X04213Y01095D02*
X04247D01*
X0423Y01078D02*
Y01112D01*
X03268Y01095D02*
X03302D01*
X03285Y01078D02*
Y01112D01*
X03373Y01095D02*
X03407D01*
X0339Y01078D02*
Y01112D01*
X072111Y00755D02*
X073489D01*
X0728Y006861D02*
Y008239D01*
X0299Y00695D02*
X0304D01*
X03015Y0067D02*
Y0072D01*
X0279Y00695D02*
X0284D01*
X02815Y0067D02*
Y0072D01*
X001611Y04235D02*
X002989D01*
X0023Y041661D02*
Y043039D01*
X001611Y00755D02*
X002989D01*
X0023Y006861D02*
Y008239D01*
X072111Y04235D02*
X073489D01*
X0728Y041661D02*
Y043039D01*
X049925Y0235D02*
X050275D01*
X0501Y023325D02*
Y023675D01*
X049925Y0265D02*
X050275D01*
X0501Y026325D02*
Y026675D01*
X05252Y02405D02*
X05288D01*
X0527Y02387D02*
Y02423D01*
X05352Y02505D02*
X05388D01*
X0537Y02487D02*
Y02523D01*
X05452Y02405D02*
X05488D01*
X0547Y02387D02*
Y02423D01*
X056275Y02355D02*
X056625D01*
X05645Y023375D02*
Y023725D01*
X056275Y02655D02*
X056625D01*
X05645Y026375D02*
Y026725D01*
X05912Y0241D02*
X05948D01*
X0593Y02392D02*
Y02428D01*
X06012Y0251D02*
X06048D01*
X0603Y02492D02*
Y02528D01*
X06112Y0241D02*
X06148D01*
X0613Y02392D02*
Y02428D01*
X062775Y0238D02*
X063125D01*
X06295Y023625D02*
Y023975D01*
X062775Y0268D02*
X063125D01*
X06295Y026625D02*
Y026975D01*
X06572Y0239D02*
X06608D01*
X0659Y02372D02*
Y02408D01*
X06672Y0249D02*
X06708D01*
X0669Y02472D02*
Y02508D01*
X06772Y0239D02*
X06808D01*
X0679Y02372D02*
Y02408D01*
X069275Y023635D02*
X069625D01*
X06945Y02346D02*
Y02381D01*
X069275Y026635D02*
X069625D01*
X06945Y02646D02*
Y02681D01*
X044862Y02175D02*
X045138D01*
X045Y021612D02*
Y021888D01*
X044862Y016711D02*
X045138D01*
X045Y016573D02*
Y016848D01*
X049803Y01658D02*
X050079D01*
X049941Y016443D02*
Y016718D01*
X049803Y02162D02*
X050079D01*
X049941Y021482D02*
Y021757D01*
X056189Y01663D02*
X056465D01*
X056327Y016493D02*
Y016768D01*
X056189Y02167D02*
X056465D01*
X056327Y021532D02*
Y021807D01*
X057912Y02187D02*
X058188D01*
X05805Y021732D02*
Y022007D01*
X057912Y01683D02*
X058188D01*
X05805Y016693D02*
Y016968D01*
X062726Y01688D02*
X063001D01*
X062864Y016743D02*
Y017018D01*
X062726Y02192D02*
X063001D01*
X062864Y021782D02*
Y022057D01*
X064612Y02187D02*
X064888D01*
X06475Y021732D02*
Y022007D01*
X064612Y01683D02*
X064888D01*
X06475Y016693D02*
Y016968D01*
X069262Y01673D02*
X069538D01*
X0694Y016593D02*
Y016868D01*
X069262Y02177D02*
X069538D01*
X0694Y021632D02*
Y021907D01*
X054378Y01983D02*
X054688D01*
X054533Y019675D02*
Y019985D01*
X053378Y01983D02*
X053688D01*
X053533Y019675D02*
Y019985D01*
X053378Y01683D02*
X053688D01*
X053533Y016675D02*
Y016985D01*
X054378Y01683D02*
X054688D01*
X054533Y016675D02*
Y016985D01*
X045151Y014703D02*
X045601D01*
X045376Y014478D02*
Y014928D01*
X049875Y014703D02*
X050325D01*
X0501Y014478D02*
Y014928D01*
X045075Y0099D02*
X045525D01*
X0453Y009675D02*
Y010125D01*
X049875Y0099D02*
X050325D01*
X0501Y009675D02*
Y010125D01*
X047513Y015491D02*
X047963D01*
X047738Y015266D02*
Y015716D01*
X067451Y01993D02*
X067761D01*
X067606Y019775D02*
Y020085D01*
X066451Y01993D02*
X066761D01*
X066606Y019775D02*
Y020085D01*
X066451Y01693D02*
X066761D01*
X066606Y016775D02*
Y017085D01*
X067451Y01693D02*
X067761D01*
X067606Y016775D02*
Y017085D01*
X060915Y02008D02*
X061225D01*
X06107Y019925D02*
Y020235D01*
X059915Y02008D02*
X060225D01*
X06007Y019925D02*
Y020235D01*
X059915Y01708D02*
X060225D01*
X06007Y016925D02*
Y017235D01*
X060915Y01708D02*
X061225D01*
X06107Y016925D02*
Y017235D01*
X047992Y01978D02*
X048302D01*
X048147Y019625D02*
Y019935D01*
X046992Y01978D02*
X047302D01*
X047147Y019625D02*
Y019935D01*
X046992Y01678D02*
X047302D01*
X047147Y016625D02*
Y016935D01*
X047992Y01678D02*
X048302D01*
X048147Y016625D02*
Y016935D01*
X04642Y0237D02*
X04678D01*
X0466Y02352D02*
Y02388D01*
X04742Y0247D02*
X04778D01*
X0476Y02452D02*
Y02488D01*
X04842Y0237D02*
X04878D01*
X0486Y02352D02*
Y02388D01*
X05881Y03245D02*
X05909D01*
X05895Y03231D02*
Y03259D01*
X06196Y0335D02*
X06224D01*
X0621Y03336D02*
Y03364D01*
X06366Y0344D02*
X06394D01*
X0638Y03426D02*
Y03454D01*
X06106Y0344D02*
X06134D01*
X0612Y03426D02*
Y03454D01*
X04681Y03045D02*
X04709D01*
X04695Y03031D02*
Y03059D01*
X02981Y02265D02*
X03009D01*
X02995Y02251D02*
Y02279D01*
X03221Y03185D02*
X03249D01*
X03235Y03171D02*
Y03199D01*
X02221Y032D02*
X02249D01*
X02235Y03186D02*
Y03214D01*
X03301Y03245D02*
X03329D01*
X03315Y03231D02*
Y03259D01*
X03361Y03335D02*
X03389D01*
X03375Y03321D02*
Y03349D01*
X024184Y027877D02*
X024464D01*
X024324Y027737D02*
Y028017D01*
X02251Y03265D02*
X02279D01*
X02265Y03251D02*
Y03279D01*
X02281Y0333D02*
X02309D01*
X02295Y03316D02*
Y03344D01*
X02341Y03405D02*
X02369D01*
X02355Y03391D02*
Y03419D01*
X03431Y03405D02*
X03459D01*
X03445Y03391D02*
Y03419D01*
X037509Y02035D02*
X038691D01*
X0381Y019759D02*
Y020941D01*
X035009Y03935D02*
X036191D01*
X0356Y038759D02*
Y039941D01*
X005509Y03935D02*
X006691D01*
X0061Y038759D02*
Y039941D01*
X005009Y02035D02*
X006191D01*
X0056Y019759D02*
Y020941D01*
X056778Y035218D02*
X057058D01*
X056918Y035078D02*
Y035358D01*
X00698Y022154D02*
X00726D01*
X00712Y022014D02*
Y022294D01*
X01661Y0191D02*
X01689D01*
X01675Y01896D02*
Y01924D01*
X02156Y02485D02*
X02184D01*
X0217Y02471D02*
Y02499D01*
X06316Y03195D02*
X06344D01*
X0633Y03181D02*
Y03209D01*
X062516Y032552D02*
X062796D01*
X062656Y032412D02*
Y032692D01*
X05961Y0347D02*
X05989D01*
X05975Y03456D02*
Y03484D01*
X05776Y0332D02*
X05804D01*
X0579Y03306D02*
Y03334D01*
X058259Y034151D02*
X058539D01*
X058399Y034011D02*
Y034291D01*
X05466Y03485D02*
X05494D01*
X0548Y03471D02*
Y03499D01*
X05676Y03615D02*
X05704D01*
X0569Y03601D02*
Y03629D01*
X05356Y03535D02*
X05384D01*
X0537Y03521D02*
Y03549D01*
M02*
