G04*
G04 #@! TF.GenerationSoftware,Altium Limited,Altium Designer,20.2.5 (213)*
G04*
G04 Layer_Physical_Order=1*
G04 Layer_Color=255*
%FSTAX24Y24*%
%MOIN*%
G70*
G04*
G04 #@! TF.SameCoordinates,673CB199-A7F1-4250-81FB-05A331180C63*
G04*
G04*
G04 #@! TF.FilePolarity,Positive*
G04*
G01*
G75*
%ADD39C,0.0200*%
%ADD40R,0.0984X0.0984*%
%ADD41C,0.0591*%
%ADD42C,0.1100*%
%ADD43C,0.0551*%
%ADD44O,0.0600X0.1000*%
%ADD45R,0.0600X0.1000*%
%ADD46O,0.0600X0.0900*%
%ADD47R,0.0600X0.0900*%
%ADD48R,0.0800X0.0800*%
%ADD49C,0.0800*%
%ADD50R,0.0591X0.0591*%
%ADD51R,0.0591X0.0591*%
%ADD52R,0.0598X0.0598*%
%ADD53C,0.0598*%
%ADD54C,0.1200*%
%ADD55O,0.0750X0.0900*%
%ADD56R,0.0750X0.0900*%
%ADD57R,0.0598X0.0598*%
%ADD58C,0.1969*%
%ADD59R,0.0800X0.0800*%
%ADD60C,0.0500*%
%ADD61C,0.1181*%
G36*
X017035Y039644D02*
X016996Y039603D01*
X016933Y039529D01*
X016911Y039497D01*
X016893Y039467D01*
X016882Y03944D01*
X016876Y039416D01*
X016876Y039395D01*
X016882Y039377D01*
X016893Y039361D01*
X016611Y039643D01*
X016627Y039632D01*
X016645Y039626D01*
X016666Y039626D01*
X01669Y039632D01*
X016717Y039643D01*
X016747Y039661D01*
X016779Y039683D01*
X016815Y039712D01*
X016894Y039785D01*
X017035Y039644D01*
D02*
G37*
G36*
X019785Y039893D02*
X019711Y039818D01*
X019493Y039563D01*
X019458Y039511D01*
X01943Y039463D01*
X019411Y039421D01*
X019399Y039383D01*
X019395Y03935D01*
X0191Y039645D01*
X019133Y039649D01*
X019171Y039661D01*
X019213Y03968D01*
X019261Y039708D01*
X019313Y039743D01*
X019369Y039786D01*
X019497Y039895D01*
X019643Y040035D01*
X019785Y039893D01*
D02*
G37*
G36*
X018785D02*
X018711Y039818D01*
X018493Y039563D01*
X018458Y039511D01*
X01843Y039463D01*
X018411Y039421D01*
X018399Y039383D01*
X018395Y03935D01*
X0181Y039645D01*
X018133Y039649D01*
X018171Y039661D01*
X018213Y03968D01*
X018261Y039708D01*
X018313Y039743D01*
X018369Y039786D01*
X018497Y039895D01*
X018643Y040035D01*
X018785Y039893D01*
D02*
G37*
G36*
X016285D02*
X016211Y039818D01*
X015993Y039563D01*
X015958Y039511D01*
X01593Y039463D01*
X015911Y039421D01*
X015899Y039383D01*
X015895Y03935D01*
X0156Y039645D01*
X015633Y039649D01*
X015671Y039661D01*
X015713Y03968D01*
X015761Y039708D01*
X015813Y039743D01*
X015869Y039786D01*
X015997Y039895D01*
X016143Y040035D01*
X016285Y039893D01*
D02*
G37*
G36*
X03214Y039057D02*
X032096Y03905D01*
X032054Y039041D01*
X032014Y039029D01*
X031975Y039015D01*
X031937Y038998D01*
X031901Y038979D01*
X031866Y038958D01*
X031833Y038934D01*
X031801Y038908D01*
X031771Y038879D01*
X031629Y039021D01*
X031658Y039051D01*
X031684Y039083D01*
X031708Y039116D01*
X031729Y039151D01*
X031748Y039187D01*
X031765Y039225D01*
X031779Y039264D01*
X031791Y039304D01*
X0318Y039346D01*
X031807Y03939D01*
X03214Y039057D01*
D02*
G37*
G36*
X0301Y039055D02*
X030067Y039051D01*
X030029Y039039D01*
X029987Y03902D01*
X029939Y038992D01*
X029887Y038957D01*
X029831Y038914D01*
X029703Y038805D01*
X029557Y038665D01*
X029415Y038807D01*
X029489Y038882D01*
X029707Y039137D01*
X029742Y039189D01*
X02977Y039237D01*
X029789Y039279D01*
X029801Y039317D01*
X029805Y03935D01*
X0301Y039055D01*
D02*
G37*
G36*
X0291D02*
X029067Y039051D01*
X029029Y039039D01*
X028987Y03902D01*
X028939Y038992D01*
X028887Y038957D01*
X028831Y038914D01*
X028703Y038805D01*
X028557Y038665D01*
X028415Y038807D01*
X028489Y038882D01*
X028707Y039137D01*
X028742Y039189D01*
X02877Y039237D01*
X028789Y039279D01*
X028801Y039317D01*
X028805Y03935D01*
X0291Y039055D01*
D02*
G37*
G36*
X017404Y039374D02*
X017401Y03935D01*
X017415Y039214D01*
X017455Y039083D01*
X017519Y038962D01*
X017606Y038856D01*
X017712Y038769D01*
X017833Y038705D01*
X017964Y038665D01*
X0181Y038651D01*
X018236Y038665D01*
X018367Y038705D01*
X018488Y038769D01*
X018563Y03883D01*
X0186Y038852D01*
X018637Y03883D01*
X018712Y038769D01*
X018833Y038705D01*
X018964Y038665D01*
X0191Y038651D01*
X019236Y038665D01*
X019367Y038705D01*
X019488Y038769D01*
X019533Y038806D01*
X019579Y038786D01*
X019596Y03857D01*
X019596Y038563D01*
Y03425D01*
X019613Y034119D01*
X019663Y033998D01*
X019743Y033893D01*
X021538Y032098D01*
X021631Y031998D01*
X021696Y03192D01*
X021706Y031905D01*
X021709Y031873D01*
X021747Y03175D01*
X021807Y031637D01*
X021888Y031538D01*
X021987Y031457D01*
X0221Y031397D01*
X022223Y031359D01*
X02235Y031347D01*
X022477Y031359D01*
X0226Y031397D01*
X022713Y031457D01*
X022812Y031538D01*
X022893Y031637D01*
X022953Y03175D01*
X022991Y031873D01*
X023003Y032D01*
X022994Y032097D01*
X023013Y032107D01*
X023112Y032188D01*
X023193Y032287D01*
X023253Y0324D01*
X023291Y032523D01*
X023303Y03265D01*
X023294Y032747D01*
X023313Y032757D01*
X023412Y032838D01*
X023493Y032937D01*
X023553Y03305D01*
X023591Y033173D01*
X023603Y0333D01*
X023593Y033401D01*
X023677Y033409D01*
X02377Y033437D01*
X02382Y033403D01*
Y028521D01*
X023814Y028384D01*
X023804Y028283D01*
X023802Y028265D01*
X023781Y02824D01*
X023721Y028127D01*
X023683Y028005D01*
X023671Y027877D01*
X023683Y02775D01*
X023721Y027627D01*
X023781Y027514D01*
X023862Y027415D01*
X023961Y027334D01*
X024074Y027274D01*
X024197Y027237D01*
X024324Y027224D01*
X024358Y027227D01*
X024395Y027194D01*
Y0269D01*
X0245D01*
X024501Y026811D01*
X02452Y026581D01*
X024531Y026518D01*
X024544Y026461D01*
X02456Y026411D01*
X024578Y026368D01*
X024599Y026331D01*
X024623Y0263D01*
X024177D01*
X024201Y026331D01*
X024222Y026368D01*
X02424Y026411D01*
X024256Y026461D01*
X024259Y026474D01*
X024199Y026449D01*
X024115Y026385D01*
X024051Y026301D01*
X024011Y026204D01*
X023997Y0261D01*
X024011Y025996D01*
X024051Y025899D01*
X024115Y025815D01*
X024199Y025751D01*
X024296Y025711D01*
X024395Y025698D01*
Y025059D01*
X022251Y022914D01*
X022204Y022933D01*
Y024207D01*
X02221Y024343D01*
X022219Y024444D01*
X022222Y024462D01*
X022243Y024487D01*
X022303Y0246D01*
X022341Y024723D01*
X022353Y02485D01*
X022341Y024977D01*
X022303Y0251D01*
X022243Y025213D01*
X022162Y025312D01*
X022063Y025393D01*
X02195Y025453D01*
X021827Y025491D01*
X0217Y025503D01*
X021573Y025491D01*
X02145Y025453D01*
X021337Y025393D01*
X021238Y025312D01*
X021157Y025213D01*
X021097Y0251D01*
X021059Y024977D01*
X021047Y02485D01*
X021059Y024723D01*
X021097Y0246D01*
X021157Y024487D01*
X021178Y024462D01*
X021179Y024451D01*
X021196Y0242D01*
Y023059D01*
X018841Y020705D01*
X018795Y020724D01*
Y021045D01*
X017405D01*
Y020677D01*
X017355Y020653D01*
X017299Y020695D01*
X017203Y020735D01*
X01715Y020742D01*
Y02035D01*
Y019958D01*
X017203Y019965D01*
X017299Y020005D01*
X017355Y020047D01*
X017405Y020023D01*
Y019655D01*
X017726D01*
X017745Y019609D01*
X017419Y019282D01*
X01737Y019294D01*
X017353Y01935D01*
X017293Y019463D01*
X017212Y019562D01*
X017113Y019643D01*
X017Y019703D01*
X016877Y019741D01*
X01675Y019753D01*
X016746Y019753D01*
X016733Y01976D01*
X016704Y019779D01*
X016672Y019803D01*
X016576Y019887D01*
X016565Y019898D01*
X016387Y020075D01*
X016445Y020151D01*
X016485Y020247D01*
X016499Y02035D01*
X016485Y020453D01*
X016445Y020549D01*
X016382Y020632D01*
X016299Y020695D01*
X016203Y020735D01*
X0161Y020749D01*
X016059Y020743D01*
X016032Y020807D01*
X015952Y020912D01*
X013104Y023759D01*
Y038517D01*
X013107Y038664D01*
X013117Y038782D01*
X013168Y038805D01*
X013212Y038769D01*
X013333Y038705D01*
X013464Y038665D01*
X0136Y038651D01*
X013736Y038665D01*
X013867Y038705D01*
X013988Y038769D01*
X014094Y038856D01*
X014106D01*
X014212Y038769D01*
X014333Y038705D01*
X014464Y038665D01*
X0146Y038651D01*
X014736Y038665D01*
X014867Y038705D01*
X014988Y038769D01*
X015094Y038856D01*
X015106D01*
X015212Y038769D01*
X015333Y038705D01*
X015464Y038665D01*
X0156Y038651D01*
X015736Y038665D01*
X015855Y038701D01*
X015905Y038675D01*
Y038655D01*
X017295D01*
Y039332D01*
X017359Y039395D01*
X017404Y039374D01*
D02*
G37*
G36*
X031288Y039115D02*
X03127Y03908D01*
X031253Y039036D01*
X031239Y038983D01*
X031227Y038922D01*
X031217Y038851D01*
X031204Y038684D01*
X0312Y038482D01*
X031D01*
X030999Y038587D01*
X030973Y038922D01*
X030961Y038983D01*
X030947Y039036D01*
X03093Y03908D01*
X030912Y039115D01*
X030891Y039141D01*
X031309D01*
X031288Y039115D01*
D02*
G37*
G36*
X023288D02*
X02327Y03908D01*
X023253Y039036D01*
X023239Y038983D01*
X023227Y038922D01*
X023217Y038851D01*
X023204Y038684D01*
X0232Y038482D01*
X023D01*
X022999Y038587D01*
X022973Y038922D01*
X022961Y038983D01*
X022947Y039036D01*
X02293Y03908D01*
X022912Y039115D01*
X022891Y039141D01*
X023309D01*
X023288Y039115D01*
D02*
G37*
G36*
X022288D02*
X02227Y03908D01*
X022253Y039036D01*
X022239Y038983D01*
X022227Y038922D01*
X022217Y038851D01*
X022204Y038684D01*
X0222Y038482D01*
X022D01*
X021999Y038587D01*
X021973Y038922D01*
X021961Y038983D01*
X021947Y039036D01*
X02193Y03908D01*
X021912Y039115D01*
X021891Y039141D01*
X022309D01*
X022288Y039115D01*
D02*
G37*
G36*
X021288D02*
X02127Y03908D01*
X021253Y039036D01*
X021239Y038983D01*
X021227Y038922D01*
X021217Y038851D01*
X021204Y038684D01*
X0212Y038482D01*
X021D01*
X020999Y038587D01*
X020973Y038922D01*
X020961Y038983D01*
X020947Y039036D01*
X02093Y03908D01*
X020912Y039115D01*
X020891Y039141D01*
X021309D01*
X021288Y039115D01*
D02*
G37*
G36*
X020288D02*
X02027Y03908D01*
X020253Y039036D01*
X020239Y038983D01*
X020227Y038922D01*
X020217Y038851D01*
X020204Y038684D01*
X0202Y038482D01*
X02D01*
X019999Y038587D01*
X019973Y038922D01*
X019961Y038983D01*
X019947Y039036D01*
X01993Y03908D01*
X019912Y039115D01*
X019891Y039141D01*
X020309D01*
X020288Y039115D01*
D02*
G37*
G36*
X012788D02*
X01277Y03908D01*
X012753Y039036D01*
X012739Y038983D01*
X012727Y038922D01*
X012717Y038851D01*
X012704Y038684D01*
X0127Y038482D01*
X0125D01*
X012499Y038587D01*
X012473Y038922D01*
X012461Y038983D01*
X012447Y039036D01*
X01243Y03908D01*
X012412Y039115D01*
X012391Y039141D01*
X012809D01*
X012788Y039115D01*
D02*
G37*
G36*
X065828Y038352D02*
X065787Y038346D01*
X065745Y038335D01*
X065701Y038319D01*
X065657Y038299D01*
X065612Y038274D01*
X065565Y038244D01*
X065518Y03821D01*
X06542Y038127D01*
X06537Y038078D01*
X065229Y03822D01*
X065277Y03827D01*
X06536Y038368D01*
X065394Y038415D01*
X065424Y038462D01*
X065449Y038507D01*
X065469Y038551D01*
X065485Y038595D01*
X065496Y038637D01*
X065502Y038678D01*
X065828Y038352D01*
D02*
G37*
G36*
Y037352D02*
X065787Y037346D01*
X065745Y037335D01*
X065701Y037319D01*
X065657Y037299D01*
X065612Y037274D01*
X065565Y037244D01*
X065518Y03721D01*
X06542Y037127D01*
X06537Y037078D01*
X065229Y03722D01*
X065277Y03727D01*
X06536Y037368D01*
X065394Y037415D01*
X065424Y037462D01*
X065449Y037507D01*
X065469Y037551D01*
X065485Y037595D01*
X065496Y037637D01*
X065502Y037678D01*
X065828Y037352D01*
D02*
G37*
G36*
X065828Y036352D02*
X065787Y036346D01*
X065745Y036335D01*
X065701Y036319D01*
X065657Y036299D01*
X065612Y036274D01*
X065566Y036245D01*
X065518Y03621D01*
X065421Y036128D01*
X065371Y036079D01*
X065229Y036221D01*
X065278Y036271D01*
X06536Y036368D01*
X065395Y036416D01*
X065424Y036462D01*
X065449Y036507D01*
X065469Y036551D01*
X065485Y036595D01*
X065496Y036637D01*
X065502Y036678D01*
X065828Y036352D01*
D02*
G37*
G36*
X057096Y036312D02*
X057123Y036299D01*
X057159Y036288D01*
X057202Y036278D01*
X057253Y036269D01*
X05738Y036257D01*
X057538Y036251D01*
X057629Y03625D01*
Y03605D01*
X057538Y036049D01*
X057253Y036031D01*
X057202Y036022D01*
X057159Y036012D01*
X057123Y036001D01*
X057096Y035988D01*
X057077Y035973D01*
Y036327D01*
X057096Y036312D01*
D02*
G37*
G36*
X054286Y035795D02*
X054222Y03573D01*
X054034Y035515D01*
X054004Y035473D01*
X05398Y035436D01*
X053963Y035402D01*
X053953Y035374D01*
X05395Y03535D01*
X0537Y0356D01*
X053724Y035603D01*
X053752Y035613D01*
X053786Y03563D01*
X053823Y035654D01*
X053865Y035684D01*
X053964Y035765D01*
X05408Y035872D01*
X054145Y035936D01*
X054286Y035795D01*
D02*
G37*
G36*
X057256Y035379D02*
X057244Y035366D01*
X057232Y035351D01*
X057221Y035334D01*
X057211Y035316D01*
X057202Y035295D01*
X057193Y035273D01*
X057177Y035224D01*
X05717Y035197D01*
X057163Y035168D01*
X056903Y035468D01*
X056936Y03547D01*
X057018Y035481D01*
X05704Y035486D01*
X05706Y035492D01*
X057078Y035498D01*
X057093Y035505D01*
X057105Y035512D01*
X057115Y035521D01*
X057256Y035379D01*
D02*
G37*
G36*
X065828Y035352D02*
X065787Y035346D01*
X065745Y035335D01*
X065701Y035319D01*
X065657Y035299D01*
X065612Y035274D01*
X065566Y035245D01*
X065519Y035211D01*
X065422Y035128D01*
X065371Y03508D01*
X06523Y035222D01*
X065278Y035272D01*
X065361Y035369D01*
X065395Y035416D01*
X065424Y035462D01*
X065449Y035507D01*
X065469Y035551D01*
X065485Y035595D01*
X065496Y035637D01*
X065502Y035678D01*
X065828Y035352D01*
D02*
G37*
G36*
X055386Y035295D02*
X055322Y03523D01*
X055134Y035015D01*
X055104Y034973D01*
X05508Y034936D01*
X055063Y034902D01*
X055053Y034874D01*
X05505Y03485D01*
X0548Y0351D01*
X054824Y035103D01*
X054852Y035113D01*
X054886Y03513D01*
X054923Y035154D01*
X054966Y035184D01*
X055064Y035265D01*
X05518Y035372D01*
X055245Y035436D01*
X055386Y035295D01*
D02*
G37*
G36*
X074396Y005713D02*
X0701D01*
Y009448D01*
X070135Y009492D01*
X070228Y009665D01*
X070286Y009854D01*
X070305Y01005D01*
X070286Y010246D01*
X070228Y010435D01*
X070135Y010608D01*
X0701Y010652D01*
Y014252D01*
X070135Y014295D01*
X070228Y014469D01*
X070286Y014657D01*
X070305Y014853D01*
X070286Y015049D01*
X070228Y015238D01*
X070135Y015411D01*
X0701Y015455D01*
Y0161D01*
X069809D01*
X069788Y016146D01*
X069789Y01615D01*
X069894Y016236D01*
X069981Y016342D01*
X070045Y016463D01*
X070085Y016594D01*
X070099Y01673D01*
X070085Y016867D01*
X070045Y016998D01*
X069981Y017118D01*
X069894Y017224D01*
X069788Y017311D01*
X069667Y017376D01*
X069536Y017416D01*
X0694Y017429D01*
X069264Y017416D01*
X069133Y017376D01*
X069012Y017311D01*
X068906Y017224D01*
X068819Y017118D01*
X068755Y016998D01*
X068715Y016867D01*
X068701Y01673D01*
X068715Y016594D01*
X068755Y016463D01*
X068819Y016342D01*
X068906Y016236D01*
X069011Y01615D01*
X069012Y016146D01*
X068991Y0161D01*
X067925D01*
X067912Y01615D01*
X067997Y016195D01*
X068103Y016283D01*
X068191Y016389D01*
X068256Y016511D01*
X068296Y016643D01*
X068309Y01678D01*
Y01708D01*
X068296Y017217D01*
X068256Y017349D01*
X068191Y017471D01*
X068103Y017577D01*
X067997Y017665D01*
X067875Y01773D01*
X067743Y01777D01*
X067606Y017783D01*
X067469Y01777D01*
X067337Y01773D01*
X067215Y017665D01*
X067144Y017607D01*
X06712Y017589D01*
X067089Y017607D01*
X067083Y017661D01*
X068463Y019041D01*
X068543Y019145D01*
X068593Y019267D01*
X06861Y019397D01*
Y021464D01*
X068593Y021595D01*
X068543Y021717D01*
X068463Y021821D01*
X068404Y021879D01*
Y022775D01*
X068405Y02284D01*
X06841Y022951D01*
X068429Y02315D01*
X068441Y023219D01*
X068455Y023277D01*
X068468Y023317D01*
X068478Y023339D01*
X06848Y023343D01*
X068494Y02336D01*
X0685Y02337D01*
X068568Y023453D01*
X068607Y023525D01*
X068658Y023515D01*
X068662Y023478D01*
X068707Y023328D01*
X068782Y023189D01*
X068882Y023067D01*
X069003Y022967D01*
X069142Y022893D01*
X069293Y022847D01*
X06945Y022831D01*
X069607Y022847D01*
X069758Y022893D01*
X069897Y022967D01*
X070018Y023067D01*
X070118Y023189D01*
X070193Y023328D01*
X070238Y023478D01*
X070254Y023635D01*
X070238Y023792D01*
X070193Y023943D01*
X070118Y024082D01*
X070018Y024204D01*
X069897Y024304D01*
X069758Y024378D01*
X069607Y024424D01*
X06945Y024439D01*
X069293Y024424D01*
X069142Y024378D01*
X069003Y024304D01*
X068882Y024204D01*
X068782Y024082D01*
X068743Y02401D01*
X068692Y02402D01*
X068688Y024057D01*
X068643Y024208D01*
X068568Y024347D01*
X068468Y024468D01*
X068347Y024568D01*
X068208Y024643D01*
X068057Y024688D01*
X0679Y024704D01*
X067743Y024688D01*
X067715Y02468D01*
X06768Y024715D01*
X067688Y024743D01*
X067704Y0249D01*
X067688Y025057D01*
X067643Y025208D01*
X067568Y025347D01*
X067468Y025468D01*
X067347Y025568D01*
X067208Y025643D01*
X067057Y025688D01*
X0669Y025704D01*
X066743Y025688D01*
X066592Y025643D01*
X066453Y025568D01*
X066332Y025468D01*
X066232Y025347D01*
X066157Y025208D01*
X066112Y025057D01*
X066096Y0249D01*
X066112Y024743D01*
X066157Y024592D01*
X066203Y024508D01*
X066228Y024532D01*
X06637Y024391D01*
X066355Y024372D01*
X066341Y024346D01*
X066335Y024329D01*
X066453Y024232D01*
X066592Y024157D01*
X066743Y024112D01*
X0669Y024096D01*
X067057Y024112D01*
X067085Y02412D01*
X06712Y024085D01*
X067112Y024057D01*
X067096Y0239D01*
X067112Y023743D01*
X067157Y023592D01*
X067232Y023453D01*
X0673Y02337D01*
X067306Y02336D01*
X06732Y023343D01*
X067322Y023339D01*
X067332Y023317D01*
X067345Y023277D01*
X067359Y023219D01*
X06737Y023154D01*
X067395Y022833D01*
X067396Y022775D01*
Y02167D01*
X067413Y02154D01*
X067463Y021418D01*
X067543Y021314D01*
X067602Y021255D01*
Y02078D01*
X06711D01*
Y021544D01*
X067093Y021674D01*
X067043Y021796D01*
X066963Y0219D01*
X062909Y025954D01*
X062929Y026D01*
X06375D01*
Y0276D01*
X06215D01*
Y026779D01*
X062104Y026759D01*
X054707Y034156D01*
X05473Y034204D01*
X0548Y034197D01*
X054927Y034209D01*
X05505Y034247D01*
X055163Y034307D01*
X055262Y034388D01*
X055343Y034487D01*
X055403Y0346D01*
X055441Y034723D01*
X055444Y034755D01*
X05545Y034764D01*
X055616Y034953D01*
X056367Y035704D01*
X056419Y035701D01*
X056445Y035666D01*
X056375Y035581D01*
X056315Y035468D01*
X056278Y035346D01*
X056265Y035218D01*
X056278Y035091D01*
X056315Y034968D01*
X056375Y034855D01*
X056456Y034756D01*
X056555Y034675D01*
X056668Y034615D01*
X056791Y034578D01*
X056918Y034565D01*
X057046Y034578D01*
X057168Y034615D01*
X057281Y034675D01*
X05738Y034756D01*
X057461Y034855D01*
X05751Y034946D01*
X059103D01*
X059133Y034906D01*
X059109Y034827D01*
X059097Y0347D01*
X059109Y034573D01*
X059133Y034494D01*
X059103Y034454D01*
X058974D01*
X058942Y034514D01*
X058861Y034613D01*
X058762Y034694D01*
X058649Y034754D01*
X058527Y034791D01*
X058399Y034804D01*
X058272Y034791D01*
X058149Y034754D01*
X058036Y034694D01*
X057937Y034613D01*
X057856Y034514D01*
X057796Y034401D01*
X057759Y034278D01*
X057746Y034151D01*
X057759Y034023D01*
X057796Y033901D01*
X057804Y033885D01*
X057782Y033844D01*
X057771Y03384D01*
X05765Y033803D01*
X057537Y033743D01*
X057438Y033662D01*
X057357Y033563D01*
X057297Y03345D01*
X057259Y033327D01*
X057247Y0332D01*
X057259Y033073D01*
X057297Y03295D01*
X057357Y032837D01*
X057438Y032738D01*
X057537Y032657D01*
X05765Y032597D01*
X057773Y032559D01*
X057783Y032558D01*
X057783Y032558D01*
X057805Y032556D01*
X057827Y032551D01*
X057853Y032548D01*
X057864Y032546D01*
X057876Y032543D01*
X057915Y032513D01*
X058037Y032463D01*
X058167Y032446D01*
X058297D01*
X058309Y032323D01*
X058347Y0322D01*
X058407Y032087D01*
X058488Y031988D01*
X058587Y031907D01*
X0587Y031847D01*
X058823Y031809D01*
X05895Y031797D01*
X059077Y031809D01*
X0592Y031847D01*
X059313Y031907D01*
X059393Y031973D01*
X059411Y031977D01*
X059438Y031982D01*
X059626Y031997D01*
X059633Y031997D01*
X062019D01*
X062197Y031995D01*
X062336Y031986D01*
X062406Y031949D01*
X062529Y031912D01*
X062652Y0319D01*
X062659Y031823D01*
X062697Y0317D01*
X062757Y031587D01*
X062838Y031488D01*
X062937Y031407D01*
X06305Y031347D01*
X063173Y031309D01*
X0633Y031297D01*
X063427Y031309D01*
X06355Y031347D01*
X063663Y031407D01*
X063762Y031488D01*
X063843Y031587D01*
X063903Y0317D01*
X063941Y031823D01*
X063944Y031855D01*
X06395Y031864D01*
X064116Y032053D01*
X064182Y032119D01*
X064211Y032113D01*
X064232Y03206D01*
X064216Y03204D01*
X064151Y031919D01*
X064111Y031787D01*
X064097Y03165D01*
X064111Y031513D01*
X064151Y031381D01*
X064216Y03126D01*
X064275Y031188D01*
X064301Y03115D01*
X064275Y031112D01*
X064216Y03104D01*
X064151Y030919D01*
X064111Y030787D01*
X064097Y03065D01*
X064111Y030513D01*
X064151Y030381D01*
X064216Y03026D01*
X064275Y030188D01*
X064301Y03015D01*
X064275Y030112D01*
X064216Y03004D01*
X064151Y029919D01*
X064111Y029787D01*
X064097Y02965D01*
X064111Y029513D01*
X064151Y029381D01*
X064216Y02926D01*
X064303Y029153D01*
X06441Y029066D01*
X064531Y029001D01*
X064663Y028961D01*
X0648Y028947D01*
X064937Y028961D01*
X065051Y028995D01*
X065101Y028967D01*
Y028951D01*
X066499D01*
Y030349D01*
X066256D01*
X066322Y030272D01*
X06637Y030222D01*
X066228Y03008D01*
X066178Y030128D01*
X066081Y030211D01*
X066034Y030245D01*
X065988Y030274D01*
X065943Y030299D01*
X065899Y030319D01*
X065855Y030335D01*
X065813Y030346D01*
X065772Y030352D01*
X066019Y0306D01*
X0658D01*
Y0307D01*
X066196D01*
X066189Y030754D01*
X066149Y030851D01*
X066085Y030935D01*
X06606Y030954D01*
X066061Y030955D01*
X066076Y031005D01*
X06619Y031066D01*
X066297Y031153D01*
X066384Y03126D01*
X066449Y031381D01*
X066489Y031513D01*
X066503Y03165D01*
X066489Y031787D01*
X066449Y031919D01*
X066384Y03204D01*
X066325Y032112D01*
X066299Y03215D01*
X066325Y032188D01*
X066384Y03226D01*
X066449Y032381D01*
X066489Y032513D01*
X066503Y03265D01*
X066489Y032787D01*
X066449Y032919D01*
X066384Y03304D01*
X066325Y033112D01*
X066299Y03315D01*
X066325Y033188D01*
X066384Y03326D01*
X066449Y033381D01*
X066489Y033513D01*
X066503Y03365D01*
X066489Y033787D01*
X066449Y033919D01*
X066384Y03404D01*
X066325Y034112D01*
X066299Y03415D01*
X066325Y034188D01*
X066384Y03426D01*
X066449Y034381D01*
X066489Y034513D01*
X066503Y03465D01*
X066489Y034787D01*
X066449Y034919D01*
X066384Y03504D01*
X066325Y035112D01*
X066299Y03515D01*
X066325Y035188D01*
X066384Y03526D01*
X066449Y035381D01*
X066489Y035513D01*
X066503Y03565D01*
X066489Y035787D01*
X066449Y035919D01*
X066384Y03604D01*
X066325Y036112D01*
X066299Y03615D01*
X066325Y036188D01*
X066384Y03626D01*
X066449Y036381D01*
X066489Y036513D01*
X066503Y03665D01*
X066489Y036787D01*
X066449Y036919D01*
X066384Y03704D01*
X066325Y037112D01*
X066299Y03715D01*
X066325Y037188D01*
X066384Y03726D01*
X066449Y037381D01*
X066489Y037513D01*
X066503Y03765D01*
X066489Y037787D01*
X066449Y037919D01*
X066384Y03804D01*
X066325Y038112D01*
X066299Y03815D01*
X066325Y038188D01*
X066384Y03826D01*
X066449Y038381D01*
X066489Y038513D01*
X066503Y03865D01*
X066489Y038787D01*
X066449Y038919D01*
X066384Y03904D01*
X066297Y039147D01*
X06619Y039234D01*
X066069Y039299D01*
X065937Y039339D01*
X0658Y039353D01*
X065663Y039339D01*
X065531Y039299D01*
X06541Y039234D01*
X065338Y039175D01*
X0653Y039149D01*
X065262Y039175D01*
X06519Y039234D01*
X065069Y039299D01*
X064937Y039339D01*
X0648Y039353D01*
X064663Y039339D01*
X064531Y039299D01*
X06441Y039234D01*
X064303Y039147D01*
X064216Y03904D01*
X064151Y038919D01*
X064111Y038787D01*
X064098Y038654D01*
X056499D01*
X056369Y038636D01*
X056247Y038586D01*
X056143Y038506D01*
X053804Y036168D01*
X053773Y036173D01*
X053754Y036181D01*
Y039024D01*
X053737Y039155D01*
X053687Y039276D01*
X053607Y039381D01*
X053607Y039381D01*
X050831Y042157D01*
X050726Y042237D01*
X050605Y042287D01*
X050474Y042304D01*
X01805D01*
X017919Y042287D01*
X017798Y042237D01*
X017693Y042157D01*
X015832Y040295D01*
X015726Y040194D01*
X015617Y0401D01*
X015578Y040071D01*
X015547Y04005D01*
X015533Y040042D01*
X015464Y040035D01*
X015333Y039995D01*
X015212Y039931D01*
X015106Y039844D01*
X015094D01*
X014988Y039931D01*
X014867Y039995D01*
X014736Y040035D01*
X0146Y040049D01*
X014464Y040035D01*
X014333Y039995D01*
X014212Y039931D01*
X014106Y039844D01*
X014094D01*
X013988Y039931D01*
X013867Y039995D01*
X013736Y040035D01*
X0136Y040049D01*
X013464Y040035D01*
X013333Y039995D01*
X013212Y039931D01*
X013106Y039844D01*
X013094D01*
X012988Y039931D01*
X012867Y039995D01*
X012736Y040035D01*
X0126Y040049D01*
X012464Y040035D01*
X012333Y039995D01*
X012212Y039931D01*
X012106Y039844D01*
X012094D01*
X011988Y039931D01*
X011867Y039995D01*
X011736Y040035D01*
X0116Y040049D01*
X011464Y040035D01*
X011333Y039995D01*
X011212Y039931D01*
X011106Y039844D01*
X011094D01*
X010988Y039931D01*
X010867Y039995D01*
X010736Y040035D01*
X0106Y040049D01*
X010464Y040035D01*
X010333Y039995D01*
X010212Y039931D01*
X010106Y039844D01*
X010094D01*
X009988Y039931D01*
X009867Y039995D01*
X009736Y040035D01*
X0096Y040049D01*
X009464Y040035D01*
X009333Y039995D01*
X009212Y039931D01*
X009106Y039844D01*
X009019Y039738D01*
X008955Y039617D01*
X008915Y039486D01*
X008901Y03935D01*
X008915Y039214D01*
X008955Y039083D01*
X009019Y038962D01*
X009106Y038856D01*
X009212Y038769D01*
X009333Y038705D01*
X009464Y038665D01*
X0096Y038651D01*
X009736Y038665D01*
X009867Y038705D01*
X009988Y038769D01*
X010094Y038856D01*
X010106D01*
X010212Y038769D01*
X010333Y038705D01*
X010464Y038665D01*
X0106Y038651D01*
X010736Y038665D01*
X010867Y038705D01*
X010988Y038769D01*
X011094Y038856D01*
X011106D01*
X011212Y038769D01*
X011333Y038705D01*
X011464Y038665D01*
X0116Y038651D01*
X011736Y038665D01*
X011867Y038705D01*
X011988Y038769D01*
X012033Y038806D01*
X012079Y038786D01*
X012096Y03857D01*
X012096Y038563D01*
Y02355D01*
X012113Y02342D01*
X012163Y023298D01*
X012243Y023194D01*
X014405Y021032D01*
X014375Y020991D01*
X014367Y020995D01*
X014236Y021035D01*
X0141Y021049D01*
X013964Y021035D01*
X013833Y020995D01*
X013712Y020931D01*
X013637Y02087D01*
X0136Y020848D01*
X013563Y02087D01*
X013488Y020931D01*
X013367Y020995D01*
X013236Y021035D01*
X0131Y021049D01*
X012964Y021035D01*
X012833Y020995D01*
X012712Y020931D01*
X012606Y020844D01*
X012519Y020738D01*
X012455Y020617D01*
X012415Y020486D01*
X012401Y02035D01*
X012415Y020214D01*
X012455Y020083D01*
X012519Y019962D01*
X012606Y019856D01*
X012712Y019769D01*
X012833Y019705D01*
X012964Y019665D01*
X0131Y019651D01*
X013236Y019665D01*
X013367Y019705D01*
X013488Y019769D01*
X013563Y01983D01*
X0136Y019852D01*
X013637Y01983D01*
X013712Y019769D01*
X013833Y019705D01*
X013964Y019665D01*
X0141Y019651D01*
X014236Y019665D01*
X014367Y019705D01*
X014488Y019769D01*
X014533Y019806D01*
X014579Y019786D01*
X014596Y01957D01*
X014596Y019563D01*
Y0181D01*
X01455D01*
Y017728D01*
X014548Y017719D01*
X014549Y017709D01*
X014548Y0177D01*
X01455Y017683D01*
Y0163D01*
X015495D01*
X01552Y016257D01*
X0155Y016219D01*
X01546Y016087D01*
X015447Y01595D01*
Y01565D01*
X01546Y015513D01*
X0155Y015381D01*
X015565Y015259D01*
X015653Y015153D01*
X015759Y015065D01*
X015881Y015D01*
X016013Y01496D01*
X01615Y014947D01*
X016287Y01496D01*
X016419Y015D01*
X016541Y015065D01*
X016647Y015153D01*
X016653D01*
X016759Y015065D01*
X016881Y015D01*
X017013Y01496D01*
X01715Y014947D01*
X017287Y01496D01*
X017419Y015D01*
X017541Y015065D01*
X017647Y015153D01*
X017653D01*
X017759Y015065D01*
X017881Y015D01*
X018013Y01496D01*
X01815Y014947D01*
X018287Y01496D01*
X0184Y014994D01*
X01845Y014966D01*
Y01495D01*
X01985D01*
Y016638D01*
X0199Y016731D01*
X01994Y016863D01*
X019953Y017D01*
Y0174D01*
X01994Y017537D01*
X0199Y017669D01*
X019835Y017791D01*
X019754Y017889D01*
Y018591D01*
X02086Y019696D01*
X020964Y019665D01*
X0211Y019651D01*
X021236Y019665D01*
X021367Y019705D01*
X021488Y019769D01*
X021563Y01983D01*
X0216Y019852D01*
X021637Y01983D01*
X021712Y019769D01*
X021833Y019705D01*
X021964Y019665D01*
X0221Y019651D01*
X022236Y019665D01*
X022367Y019705D01*
X022488Y019769D01*
X022563Y01983D01*
X0226Y019852D01*
X022637Y01983D01*
X022712Y019769D01*
X022833Y019705D01*
X022964Y019665D01*
X0231Y019651D01*
X023236Y019665D01*
X023367Y019705D01*
X023488Y019769D01*
X023563Y01983D01*
X0236Y019852D01*
X023637Y01983D01*
X023712Y019769D01*
X023833Y019705D01*
X023964Y019665D01*
X0241Y019651D01*
X024236Y019665D01*
X024367Y019705D01*
X024488Y019769D01*
X024563Y01983D01*
X0246Y019852D01*
X024637Y01983D01*
X024712Y019769D01*
X024833Y019705D01*
X024964Y019665D01*
X0251Y019651D01*
X025236Y019665D01*
X025367Y019705D01*
X025488Y019769D01*
X025563Y01983D01*
X0256Y019852D01*
X025637Y01983D01*
X025712Y019769D01*
X025833Y019705D01*
X025964Y019665D01*
X0261Y019651D01*
X026236Y019665D01*
X026355Y019701D01*
X026405Y019675D01*
Y019655D01*
X027795D01*
Y021045D01*
X026405D01*
Y021025D01*
X026355Y020999D01*
X026236Y021035D01*
X0261Y021049D01*
X025964Y021035D01*
X025833Y020995D01*
X025712Y020931D01*
X025637Y02087D01*
X0256Y020848D01*
X025563Y02087D01*
X025488Y020931D01*
X025367Y020995D01*
X025236Y021035D01*
X0251Y021049D01*
X024964Y021035D01*
X024833Y020995D01*
X024712Y020931D01*
X024637Y02087D01*
X0246Y020848D01*
X024563Y02087D01*
X024488Y020931D01*
X024367Y020995D01*
X024236Y021035D01*
X0241Y021049D01*
X023964Y021035D01*
X023833Y020995D01*
X023712Y020931D01*
X023637Y02087D01*
X0236Y020848D01*
X023563Y02087D01*
X023488Y020931D01*
X023367Y020995D01*
X023236Y021035D01*
X0231Y021049D01*
X022964Y021035D01*
X022833Y020995D01*
X022712Y020931D01*
X022637Y02087D01*
X0226Y020848D01*
X022563Y02087D01*
X022488Y020931D01*
X022367Y020995D01*
X022236Y021035D01*
X0221Y021049D01*
X021964Y021035D01*
X021833Y020995D01*
X021825Y020991D01*
X021795Y021032D01*
X024599Y023836D01*
X024648Y023824D01*
X024657Y023792D01*
X024732Y023653D01*
X024832Y023532D01*
X024953Y023432D01*
X025092Y023357D01*
X025243Y023312D01*
X02535Y023301D01*
X025362Y023298D01*
X025384Y023296D01*
X025388Y023295D01*
X025411Y023286D01*
X025449Y023267D01*
X025499Y023236D01*
X025553Y023198D01*
X025797Y022989D01*
X025839Y022948D01*
X026493Y022293D01*
X026598Y022213D01*
X026719Y022163D01*
X02685Y022146D01*
X029307D01*
X029443Y02214D01*
X029544Y022131D01*
X029562Y022128D01*
X029587Y022107D01*
X0297Y022047D01*
X029823Y022009D01*
X02995Y021997D01*
X030077Y022009D01*
X030085Y022012D01*
X030097Y021998D01*
X030117Y021969D01*
X0301Y021842D01*
Y021049D01*
X0301Y021049D01*
X029964Y021035D01*
X029833Y020995D01*
X029712Y020931D01*
X029637Y02087D01*
X0296Y020848D01*
X029563Y02087D01*
X029488Y020931D01*
X029367Y020995D01*
X029236Y021035D01*
X0291Y021049D01*
X028964Y021035D01*
X028833Y020995D01*
X028712Y020931D01*
X028606Y020844D01*
X028519Y020738D01*
X028455Y020617D01*
X028415Y020486D01*
X028401Y02035D01*
X028415Y020214D01*
X028455Y020083D01*
X028519Y019962D01*
X028606Y019856D01*
X028712Y019769D01*
X028833Y019705D01*
X028964Y019665D01*
X0291Y019651D01*
X029236Y019665D01*
X029367Y019705D01*
X029488Y019769D01*
X029563Y01983D01*
X0296Y019852D01*
X029637Y01983D01*
X029712Y019769D01*
X029833Y019705D01*
X029964Y019665D01*
X0301Y019651D01*
X0301Y019651D01*
Y012139D01*
X029776Y011815D01*
X029761Y0118D01*
X028925D01*
Y01147D01*
X028875Y011446D01*
X028774Y011488D01*
X0287Y011498D01*
Y01095D01*
Y010402D01*
X028774Y010412D01*
X028875Y010454D01*
X028925Y01043D01*
Y0101D01*
X030475D01*
Y011087D01*
X030961Y011573D01*
X031041Y011678D01*
X031092Y011799D01*
X031109Y01193D01*
Y01308D01*
X031159Y01309D01*
X031168Y013068D01*
X031248Y012964D01*
X032693Y011519D01*
X032683Y01147D01*
X03261Y01144D01*
X032511Y011364D01*
X032435Y011265D01*
X032387Y011149D01*
X032371Y011025D01*
Y011D01*
X03285D01*
Y01095D01*
X0329D01*
Y010402D01*
X032974Y010412D01*
X033075Y010454D01*
X033125Y01043D01*
Y0101D01*
X034675D01*
Y0118D01*
X033838D01*
X032109Y013529D01*
Y019652D01*
X032236Y019665D01*
X032367Y019705D01*
X032488Y019769D01*
X032563Y01983D01*
X0326Y019852D01*
X032637Y01983D01*
X032712Y019769D01*
X032833Y019705D01*
X032964Y019665D01*
X033091Y019652D01*
Y01553D01*
X033108Y015399D01*
X033159Y015278D01*
X033239Y015173D01*
X036893Y011519D01*
X036883Y01147D01*
X03681Y01144D01*
X036711Y011364D01*
X036635Y011265D01*
X036587Y011149D01*
X036571Y011025D01*
Y011D01*
X03705D01*
Y01095D01*
X0371D01*
Y010402D01*
X037174Y010412D01*
X037275Y010454D01*
X037325Y01043D01*
Y0101D01*
X038875D01*
Y0118D01*
X038038D01*
X0341Y015739D01*
Y019651D01*
X0341Y019651D01*
X034236Y019665D01*
X034367Y019705D01*
X034488Y019769D01*
X034563Y01983D01*
X0346Y019852D01*
X034637Y01983D01*
X034712Y019769D01*
X034833Y019705D01*
X034964Y019665D01*
X0351Y019651D01*
X035236Y019665D01*
X035355Y019701D01*
X035405Y019675D01*
Y019655D01*
X0361D01*
Y01672D01*
X036118Y01659D01*
X036168Y016468D01*
X036248Y016364D01*
X041093Y011519D01*
X041083Y01147D01*
X04101Y01144D01*
X040911Y011364D01*
X040835Y011265D01*
X040787Y011149D01*
X040771Y011025D01*
Y011D01*
X04125D01*
Y01095D01*
X0413D01*
Y010402D01*
X041374Y010412D01*
X041475Y010454D01*
X041525Y01043D01*
Y0101D01*
X043075D01*
Y0118D01*
X042238D01*
X037109Y016929D01*
Y020032D01*
X037159Y02004D01*
X03718Y019969D01*
X037272Y019797D01*
X037396Y019646D01*
X037547Y019522D01*
X037719Y01943D01*
X037906Y019374D01*
X0381Y019355D01*
X038294Y019374D01*
X038481Y01943D01*
X038653Y019522D01*
X038804Y019646D01*
X038928Y019797D01*
X03902Y019969D01*
X039076Y020156D01*
X039095Y02035D01*
X039076Y020544D01*
X03902Y020731D01*
X038928Y020903D01*
X038804Y021054D01*
X038653Y021178D01*
X038481Y02127D01*
X038294Y021326D01*
X0381Y021345D01*
X037906Y021326D01*
X037719Y02127D01*
X037547Y021178D01*
X037396Y021054D01*
X037272Y020903D01*
X03718Y020731D01*
X037159Y02066D01*
X037109Y020668D01*
Y021652D01*
X037236Y021665D01*
X037355Y021701D01*
X037405Y021675D01*
Y021655D01*
X038795D01*
Y023045D01*
X038775D01*
X038749Y023095D01*
X038785Y023214D01*
X038799Y02335D01*
X038785Y023486D01*
X038745Y023617D01*
X038681Y023738D01*
X03862Y023813D01*
X038598Y02385D01*
X03862Y023887D01*
X038681Y023962D01*
X038745Y024083D01*
X038785Y024214D01*
X038799Y02435D01*
X038785Y024486D01*
X038745Y024617D01*
X038681Y024738D01*
X03862Y024813D01*
X038598Y02485D01*
X03862Y024887D01*
X038681Y024962D01*
X038745Y025083D01*
X038785Y025214D01*
X038799Y02535D01*
X038785Y025486D01*
X038745Y025617D01*
X038681Y025738D01*
X03862Y025813D01*
X038598Y02585D01*
X03862Y025887D01*
X038681Y025962D01*
X038745Y026083D01*
X038785Y026214D01*
X038799Y02635D01*
X038785Y026486D01*
X038745Y026617D01*
X038681Y026738D01*
X03862Y026813D01*
X038598Y02685D01*
X03862Y026887D01*
X038681Y026962D01*
X038745Y027083D01*
X038785Y027214D01*
X038799Y02735D01*
X038785Y027486D01*
X038745Y027617D01*
X038681Y027738D01*
X03862Y027813D01*
X038598Y02785D01*
X03862Y027887D01*
X038681Y027962D01*
X038745Y028083D01*
X038785Y028214D01*
X038799Y02835D01*
X038785Y028486D01*
X038745Y028617D01*
X038681Y028738D01*
X03862Y028813D01*
X038598Y02885D01*
X03862Y028887D01*
X038681Y028962D01*
X038745Y029083D01*
X038785Y029214D01*
X038799Y02935D01*
X038785Y029486D01*
X038745Y029617D01*
X038681Y029738D01*
X03862Y029813D01*
X038598Y02985D01*
X03862Y029887D01*
X038681Y029962D01*
X038745Y030083D01*
X038785Y030214D01*
X038799Y03035D01*
X038785Y030486D01*
X038745Y030617D01*
X038681Y030738D01*
X03862Y030813D01*
X038598Y03085D01*
X03862Y030887D01*
X038681Y030962D01*
X038745Y031083D01*
X038785Y031214D01*
X038799Y03135D01*
X038785Y031486D01*
X038745Y031617D01*
X038681Y031738D01*
X03862Y031813D01*
X038598Y03185D01*
X03862Y031887D01*
X038681Y031962D01*
X038745Y032083D01*
X038785Y032214D01*
X038799Y03235D01*
X038785Y032486D01*
X038745Y032617D01*
X038681Y032738D01*
X038594Y032844D01*
Y032856D01*
X038681Y032962D01*
X038745Y033083D01*
X038785Y033214D01*
X038799Y03335D01*
X038785Y033486D01*
X038745Y033617D01*
X038681Y033738D01*
X03862Y033813D01*
X038598Y03385D01*
X03862Y033887D01*
X038681Y033962D01*
X038745Y034083D01*
X038785Y034214D01*
X038799Y03435D01*
X038785Y034486D01*
X038745Y034617D01*
X038681Y034738D01*
X03862Y034813D01*
X038598Y03485D01*
X03862Y034887D01*
X038681Y034962D01*
X038745Y035083D01*
X038785Y035214D01*
X038799Y03535D01*
X038785Y035486D01*
X038745Y035617D01*
X038681Y035738D01*
X03862Y035813D01*
X038598Y03585D01*
X03862Y035887D01*
X038681Y035962D01*
X038745Y036083D01*
X038785Y036214D01*
X038799Y03635D01*
X038785Y036486D01*
X038745Y036617D01*
X038681Y036738D01*
X03862Y036813D01*
X038598Y03685D01*
X03862Y036887D01*
X038681Y036962D01*
X038745Y037083D01*
X038785Y037214D01*
X038799Y03735D01*
X038785Y037486D01*
X038745Y037617D01*
X038681Y037738D01*
X03862Y037813D01*
X038598Y03785D01*
X03862Y037887D01*
X038681Y037962D01*
X038745Y038083D01*
X038785Y038214D01*
X038799Y03835D01*
X038785Y038486D01*
X038745Y038617D01*
X038681Y038738D01*
X03862Y038813D01*
X038598Y03885D01*
X03862Y038887D01*
X038681Y038962D01*
X038745Y039083D01*
X038785Y039214D01*
X038799Y03935D01*
X038785Y039486D01*
X038745Y039617D01*
X038704Y039696D01*
X038734Y039746D01*
X039424D01*
X044991Y034179D01*
Y022448D01*
X044864Y022435D01*
X044733Y022395D01*
X044612Y022331D01*
X044506Y022244D01*
X044419Y022138D01*
X044355Y022017D01*
X044315Y021886D01*
X044301Y02175D01*
X044315Y021614D01*
X044355Y021483D01*
X044419Y021362D01*
X044506Y021256D01*
X044612Y021169D01*
X044733Y021105D01*
X044864Y021065D01*
X045Y021051D01*
X045136Y021065D01*
X045261Y021103D01*
X046444Y01992D01*
Y01963D01*
X046457Y019493D01*
X046497Y019361D01*
X046562Y019239D01*
X04665Y019133D01*
X046756Y019045D01*
X046878Y01898D01*
X04701Y01894D01*
X047147Y018927D01*
X047284Y01894D01*
X047397Y018974D01*
X047447Y018946D01*
Y01893D01*
X047551D01*
X04757Y018884D01*
X045689Y017002D01*
X045627Y017012D01*
X045581Y017099D01*
X045494Y017205D01*
X045388Y017292D01*
X045267Y017356D01*
X045136Y017396D01*
X045Y017409D01*
X044864Y017396D01*
X044733Y017356D01*
X044612Y017292D01*
X044506Y017205D01*
X044419Y017099D01*
X044355Y016978D01*
X044315Y016847D01*
X044301Y016711D01*
X044315Y016574D01*
X044355Y016443D01*
X044419Y016322D01*
X044506Y016217D01*
X044612Y01613D01*
X0447Y016083D01*
Y015488D01*
X044643Y015398D01*
X044581Y015316D01*
X044573Y015301D01*
X04454Y015261D01*
X044447Y015088D01*
X04439Y014899D01*
X044371Y014703D01*
X04439Y014507D01*
X044447Y014319D01*
X04454Y014145D01*
X044665Y013993D01*
X0447Y013964D01*
Y010701D01*
X044589Y010611D01*
X044465Y010458D01*
X044372Y010285D01*
X044314Y010096D01*
X044295Y0099D01*
X044314Y009704D01*
X044372Y009515D01*
X044465Y009342D01*
X044589Y009189D01*
X0447Y009099D01*
Y005713D01*
X000454D01*
Y044196D01*
X074396D01*
X074396Y005713D01*
D02*
G37*
G36*
X064617Y034414D02*
X064581Y034439D01*
X064543Y034463D01*
X064504Y034483D01*
X064463Y034501D01*
X064421Y034516D01*
X064377Y034528D01*
X064332Y034538D01*
X064285Y034545D01*
X064236Y034549D01*
X064186Y03455D01*
Y03475D01*
X064236Y034751D01*
X064285Y034755D01*
X064332Y034762D01*
X064377Y034772D01*
X064421Y034784D01*
X064463Y034799D01*
X064504Y034817D01*
X064543Y034837D01*
X064581Y03486D01*
X064617Y034886D01*
Y034414D01*
D02*
G37*
G36*
X063623Y034223D02*
X063604Y034238D01*
X063577Y034251D01*
X063541Y034262D01*
X063498Y034272D01*
X063447Y034281D01*
X06332Y034293D01*
X063162Y034299D01*
X063071Y0343D01*
Y0345D01*
X063162Y034501D01*
X063447Y034519D01*
X063498Y034528D01*
X063541Y034538D01*
X063577Y034549D01*
X063604Y034562D01*
X063623Y034577D01*
Y034223D01*
D02*
G37*
G36*
X061396Y034562D02*
X061423Y034549D01*
X061459Y034538D01*
X061502Y034528D01*
X061553Y034519D01*
X06168Y034507D01*
X061838Y034501D01*
X061929Y0345D01*
Y0343D01*
X061838Y034299D01*
X061553Y034281D01*
X061502Y034272D01*
X061459Y034262D01*
X061423Y034251D01*
X061396Y034238D01*
X061377Y034223D01*
Y034577D01*
X061396Y034562D01*
D02*
G37*
G36*
X065828Y034352D02*
X065787Y034346D01*
X065745Y034335D01*
X065701Y034319D01*
X065657Y034299D01*
X065612Y034274D01*
X065566Y034245D01*
X065519Y034211D01*
X065422Y034128D01*
X065371Y03408D01*
X06523Y034221D01*
X065278Y034272D01*
X065361Y034369D01*
X065395Y034416D01*
X065424Y034462D01*
X065449Y034507D01*
X065469Y034551D01*
X065485Y034595D01*
X065496Y034637D01*
X065502Y034678D01*
X065828Y034352D01*
D02*
G37*
G36*
X023222Y034521D02*
X02336Y034402D01*
X023401Y034372D01*
X023439Y034347D01*
X023475Y034328D01*
X023509Y034313D01*
X02354Y034304D01*
X023568Y034299D01*
X023301Y034032D01*
X023296Y03406D01*
X023287Y034091D01*
X023272Y034125D01*
X023253Y034161D01*
X023228Y034199D01*
X023198Y03424D01*
X023124Y03433D01*
X023029Y034429D01*
X023171Y034571D01*
X023222Y034521D01*
D02*
G37*
G36*
X058648Y03419D02*
X058674Y03412D01*
X058683Y034099D01*
X058703Y034063D01*
X058714Y034048D01*
X058725Y034033D01*
X058737Y034021D01*
X058596Y033879D01*
X058589Y033884D01*
X05858Y033888D01*
X058568Y033891D01*
X058553Y033894D01*
X058535Y033897D01*
X058491Y0339D01*
X058436Y033901D01*
X058404Y033901D01*
X058641Y034216D01*
X058648Y03419D01*
D02*
G37*
G36*
X064632Y033402D02*
X064037Y0334D01*
X063907Y0336D01*
X064001Y033602D01*
X064089Y033609D01*
X06417Y03362D01*
X064245Y033636D01*
X064313Y033656D01*
X064375Y033681D01*
X06443Y033711D01*
X064479Y033745D01*
X064522Y033783D01*
X064558Y033826D01*
X064632Y033402D01*
D02*
G37*
G36*
X062296Y033662D02*
X062323Y033649D01*
X062359Y033638D01*
X062402Y033628D01*
X062453Y033619D01*
X06258Y033607D01*
X062738Y033601D01*
X062829Y0336D01*
Y0334D01*
X062738Y033399D01*
X062453Y033381D01*
X062402Y033372D01*
X062359Y033362D01*
X062323Y033351D01*
X062296Y033338D01*
X062277Y033323D01*
Y033677D01*
X062296Y033662D01*
D02*
G37*
G36*
X034612Y033854D02*
X034599Y033827D01*
X034588Y033791D01*
X034578Y033748D01*
X034569Y033697D01*
X034557Y03357D01*
X034551Y033412D01*
X03455Y033321D01*
X03435D01*
X034349Y033412D01*
X034331Y033697D01*
X034322Y033748D01*
X034312Y033791D01*
X034301Y033827D01*
X034288Y033854D01*
X034273Y033873D01*
X034627D01*
X034612Y033854D01*
D02*
G37*
G36*
X02257Y033822D02*
X022785Y033634D01*
X022827Y033604D01*
X022864Y03358D01*
X022898Y033563D01*
X022926Y033553D01*
X02295Y03355D01*
X0227Y0333D01*
X022697Y033324D01*
X022687Y033352D01*
X02267Y033386D01*
X022646Y033423D01*
X022616Y033465D01*
X022535Y033564D01*
X022428Y03368D01*
X022364Y033745D01*
X022505Y033886D01*
X02257Y033822D01*
D02*
G37*
G36*
X065828Y033352D02*
X065787Y033346D01*
X065745Y033335D01*
X065701Y033319D01*
X065657Y033299D01*
X065612Y033274D01*
X065565Y033244D01*
X065518Y03321D01*
X06542Y033127D01*
X06537Y033078D01*
X065229Y03322D01*
X065277Y03327D01*
X06536Y033368D01*
X065394Y033415D01*
X065424Y033462D01*
X065449Y033507D01*
X065469Y033551D01*
X065485Y033595D01*
X065496Y033637D01*
X065502Y033678D01*
X065828Y033352D01*
D02*
G37*
G36*
X058152Y033212D02*
X058166Y033156D01*
X058174Y033131D01*
X058192Y033087D01*
X058202Y033068D01*
X058213Y03305D01*
X058225Y033035D01*
X058238Y033021D01*
X058096Y032879D01*
X058084Y03289D01*
X05807Y0329D01*
X058053Y032909D01*
X058035Y032917D01*
X058014Y032925D01*
X05799Y032932D01*
X057937Y032943D01*
X057907Y032947D01*
X057874Y032951D01*
X058146Y033242D01*
X058152Y033212D01*
D02*
G37*
G36*
X02227Y033172D02*
X022485Y032984D01*
X022527Y032954D01*
X022564Y03293D01*
X022598Y032913D01*
X022626Y032903D01*
X02265Y0329D01*
X0224Y03265D01*
X022397Y032674D01*
X022387Y032702D01*
X02237Y032736D01*
X022346Y032773D01*
X022316Y032815D01*
X022235Y032914D01*
X022128Y03303D01*
X022064Y033095D01*
X022205Y033236D01*
X02227Y033172D01*
D02*
G37*
G36*
X033912Y033154D02*
X033899Y033127D01*
X033888Y033091D01*
X033878Y033048D01*
X033869Y032997D01*
X033857Y03287D01*
X033851Y032712D01*
X03385Y032621D01*
X03365D01*
X033649Y032712D01*
X033631Y032997D01*
X033622Y033048D01*
X033612Y033091D01*
X033601Y033127D01*
X033588Y033154D01*
X033573Y033173D01*
X033927D01*
X033912Y033154D01*
D02*
G37*
G36*
X0646Y032427D02*
X064569Y032451D01*
X064532Y032472D01*
X064489Y03249D01*
X064439Y032506D01*
X064382Y032519D01*
X064319Y03253D01*
X064172Y032545D01*
X064089Y032549D01*
X064Y03255D01*
Y03275D01*
X064089Y032751D01*
X064319Y03277D01*
X064382Y032781D01*
X064439Y032794D01*
X064489Y03281D01*
X064532Y032828D01*
X064569Y032849D01*
X0646Y032873D01*
Y032427D01*
D02*
G37*
G36*
X062492Y032363D02*
X062479Y032371D01*
X062457Y032377D01*
X062426Y032383D01*
X062386Y032388D01*
X062212Y032398D01*
X061957Y032401D01*
X061911Y032601D01*
X061998Y032602D01*
X062219Y03262D01*
X062278Y03263D01*
X06233Y032643D01*
X062375Y032658D01*
X062413Y032675D01*
X062444Y032695D01*
X062468Y032717D01*
X062492Y032363D01*
D02*
G37*
G36*
X059127Y032632D02*
X059149Y032625D01*
X05918Y03262D01*
X05922Y032615D01*
X059394Y032605D01*
X059649Y032601D01*
X059695Y032401D01*
X059608Y0324D01*
X059387Y032383D01*
X059328Y032372D01*
X059276Y032359D01*
X059231Y032344D01*
X059193Y032327D01*
X059162Y032307D01*
X059138Y032285D01*
X059114Y032639D01*
X059127Y032632D01*
D02*
G37*
G36*
X02197Y032522D02*
X022185Y032334D01*
X022227Y032304D01*
X022264Y03228D01*
X022298Y032263D01*
X022326Y032253D01*
X02235Y03225D01*
X0221Y032D01*
X022097Y032024D01*
X022087Y032052D01*
X02207Y032086D01*
X022046Y032123D01*
X022016Y032166D01*
X021935Y032264D01*
X021828Y03238D01*
X021764Y032445D01*
X021905Y032586D01*
X02197Y032522D01*
D02*
G37*
G36*
X063886Y032395D02*
X063822Y03233D01*
X063634Y032115D01*
X063604Y032073D01*
X06358Y032036D01*
X063563Y032002D01*
X063553Y031974D01*
X06355Y03195D01*
X0633Y0322D01*
X063324Y032203D01*
X063352Y032213D01*
X063386Y03223D01*
X063423Y032254D01*
X063465Y032284D01*
X063564Y032365D01*
X06368Y032472D01*
X063745Y032536D01*
X063886Y032395D01*
D02*
G37*
G36*
X033312Y032254D02*
X033299Y032227D01*
X033288Y032191D01*
X033278Y032148D01*
X033269Y032097D01*
X033257Y03197D01*
X033251Y031812D01*
X03325Y031721D01*
X03305D01*
X033049Y031812D01*
X033031Y032097D01*
X033022Y032148D01*
X033012Y032191D01*
X033001Y032227D01*
X032988Y032254D01*
X032973Y032273D01*
X033327D01*
X033312Y032254D01*
D02*
G37*
G36*
X032512Y031654D02*
X032499Y031627D01*
X032488Y031591D01*
X032478Y031548D01*
X032469Y031497D01*
X032457Y03137D01*
X032451Y031212D01*
X03245Y031121D01*
X03225D01*
X032249Y031212D01*
X032231Y031497D01*
X032222Y031548D01*
X032212Y031591D01*
X032201Y031627D01*
X032188Y031654D01*
X032173Y031673D01*
X032527D01*
X032512Y031654D01*
D02*
G37*
G36*
X024425Y028515D02*
X024443Y02823D01*
X024452Y028179D01*
X024462Y028136D01*
X024473Y028101D01*
X024486Y028073D01*
X024501Y028054D01*
X024147D01*
X024162Y028073D01*
X024175Y028101D01*
X024186Y028136D01*
X024196Y028179D01*
X024205Y02823D01*
X024217Y028357D01*
X024223Y028515D01*
X024224Y028606D01*
X024424D01*
X024425Y028515D01*
D02*
G37*
G36*
X026501Y026873D02*
X026528Y026535D01*
X02654Y026472D01*
X026555Y026419D01*
X026571Y026374D01*
X02659Y026338D01*
X026612Y026311D01*
X026188D01*
X02621Y026338D01*
X026229Y026374D01*
X026245Y026419D01*
X02626Y026472D01*
X026272Y026535D01*
X026282Y026606D01*
X026296Y026775D01*
X0263Y02698D01*
X0265D01*
X026501Y026873D01*
D02*
G37*
G36*
X025704Y026087D02*
X025715Y026045D01*
X025731Y026001D01*
X025751Y025957D01*
X025776Y025912D01*
X025805Y025866D01*
X02584Y025818D01*
X025922Y025721D01*
X025971Y025671D01*
X025829Y025529D01*
X025779Y025578D01*
X025682Y02566D01*
X025634Y025695D01*
X025588Y025724D01*
X025543Y025749D01*
X025499Y025769D01*
X025455Y025785D01*
X025413Y025796D01*
X025372Y025802D01*
X025698Y026128D01*
X025704Y026087D01*
D02*
G37*
G36*
X057032Y024172D02*
X056998Y024135D01*
X056897Y024218D01*
X056758Y024293D01*
X056607Y024338D01*
X05645Y024354D01*
X056293Y024338D01*
X056142Y024293D01*
X056003Y024218D01*
X055882Y024118D01*
X055782Y023997D01*
X055707Y023858D01*
X055662Y023707D01*
X055646Y02355D01*
X055662Y023393D01*
X055707Y023242D01*
X055782Y023103D01*
X055882Y022982D01*
X056003Y022882D01*
X056142Y022807D01*
X056293Y022762D01*
X05645Y022746D01*
X056607Y022762D01*
X056758Y022807D01*
X056897Y022882D01*
X057018Y022982D01*
X057118Y023103D01*
X057193Y023242D01*
X057238Y023393D01*
X057254Y02355D01*
X057238Y023707D01*
X057193Y023858D01*
X057118Y023997D01*
X057035Y024098D01*
X057072Y024132D01*
X058041Y023163D01*
Y022567D01*
X057914Y022555D01*
X057783Y022515D01*
X057662Y022451D01*
X057556Y022364D01*
X057469Y022258D01*
X057405Y022137D01*
X057365Y022006D01*
X057351Y02187D01*
X057365Y021733D01*
X057405Y021602D01*
X057469Y021482D01*
X057556Y021376D01*
X057662Y021289D01*
X057783Y021224D01*
X057914Y021184D01*
X05805Y021171D01*
X058186Y021184D01*
X058317Y021224D01*
X058347Y02124D01*
X059366Y02022D01*
Y01993D01*
X05938Y019793D01*
X05942Y019661D01*
X059485Y019539D01*
X059572Y019433D01*
X059679Y019345D01*
X059801Y01928D01*
X059933Y01924D01*
X06007Y019227D01*
X060207Y01924D01*
X06032Y019274D01*
X06037Y019246D01*
Y01923D01*
X060474D01*
X060493Y019184D01*
X058611Y017301D01*
X058561Y017304D01*
X058544Y017324D01*
X058438Y017411D01*
X058317Y017476D01*
X058186Y017516D01*
X05805Y017529D01*
X057914Y017516D01*
X057783Y017476D01*
X057662Y017411D01*
X057556Y017324D01*
X057469Y017218D01*
X057405Y017098D01*
X057365Y016967D01*
X057351Y01683D01*
X057365Y016694D01*
X057405Y016563D01*
X057469Y016442D01*
X057556Y016336D01*
X057662Y016249D01*
X057683Y016238D01*
X057677Y016196D01*
X057673Y016172D01*
X057672Y016158D01*
X057671Y016153D01*
Y016144D01*
X05767Y016108D01*
X057669Y0161D01*
X056851D01*
X056833Y01615D01*
X056908Y016242D01*
X056973Y016363D01*
X057012Y016494D01*
X057026Y01663D01*
X057012Y016767D01*
X056973Y016898D01*
X056908Y017018D01*
X056821Y017124D01*
X056715Y017211D01*
X056595Y017276D01*
X056464Y017316D01*
X056327Y017329D01*
X056191Y017316D01*
X05606Y017276D01*
X055939Y017211D01*
X055833Y017124D01*
X055746Y017018D01*
X055682Y016898D01*
X055642Y016767D01*
X055629Y01663D01*
X055642Y016494D01*
X055682Y016363D01*
X055746Y016242D01*
X055822Y01615D01*
X055803Y0161D01*
X055007D01*
X054982Y016143D01*
X055031Y016183D01*
X055118Y016289D01*
X055183Y016411D01*
X055223Y016543D01*
X055237Y01668D01*
Y01698D01*
X055223Y017117D01*
X055183Y017249D01*
X055118Y017371D01*
X055031Y017477D01*
X054924Y017565D01*
X054803Y01763D01*
X054671Y01767D01*
X054533Y017683D01*
X054396Y01767D01*
X054264Y01763D01*
X054143Y017565D01*
X054072Y017507D01*
X054047Y017489D01*
X054016Y017507D01*
X054011Y017561D01*
X05539Y018941D01*
X05547Y019045D01*
X055521Y019167D01*
X055538Y019297D01*
Y021426D01*
X055521Y021556D01*
X05547Y021678D01*
X05539Y021782D01*
X055204Y021968D01*
Y022925D01*
X055205Y02299D01*
X05521Y023101D01*
X055229Y0233D01*
X055241Y023369D01*
X055255Y023427D01*
X055268Y023467D01*
X055278Y023489D01*
X05528Y023493D01*
X055294Y02351D01*
X0553Y023521D01*
X055368Y023603D01*
X055443Y023742D01*
X055488Y023893D01*
X055504Y02405D01*
X055488Y024207D01*
X055443Y024358D01*
X055368Y024497D01*
X055268Y024618D01*
X055147Y024718D01*
X055008Y024793D01*
X054857Y024838D01*
X0547Y024854D01*
X054543Y024838D01*
X054515Y02483D01*
X05448Y024865D01*
X054488Y024893D01*
X054504Y02505D01*
X054488Y025207D01*
X054443Y025358D01*
X054368Y025497D01*
X054268Y025618D01*
X054147Y025718D01*
X054008Y025793D01*
X053857Y025838D01*
X0537Y025854D01*
X053543Y025838D01*
X053392Y025793D01*
X053253Y025718D01*
X053132Y025618D01*
X053032Y025497D01*
X052957Y025358D01*
X052912Y025207D01*
X052896Y02505D01*
X052912Y024893D01*
X052957Y024742D01*
X053032Y024603D01*
X053132Y024482D01*
X053253Y024382D01*
X053392Y024307D01*
X053543Y024262D01*
X0537Y024246D01*
X053857Y024262D01*
X053885Y02427D01*
X05392Y024235D01*
X053912Y024207D01*
X053896Y02405D01*
X053912Y023893D01*
X053957Y023742D01*
X054032Y023603D01*
X0541Y023521D01*
X054106Y02351D01*
X05412Y023493D01*
X054122Y023489D01*
X054132Y023467D01*
X054145Y023427D01*
X054159Y023369D01*
X05417Y023304D01*
X054195Y022983D01*
X054196Y022925D01*
Y021759D01*
X054213Y021629D01*
X054263Y021507D01*
X054343Y021403D01*
X054529Y021217D01*
Y02068D01*
X053833D01*
Y020664D01*
X053783Y020636D01*
X053671Y02067D01*
X053544Y020682D01*
X0526Y021627D01*
Y023521D01*
X052637Y023554D01*
X05265Y023552D01*
Y02405D01*
Y024548D01*
X052637Y024546D01*
X0526Y024579D01*
Y028539D01*
X052646Y028558D01*
X057032Y024172D01*
D02*
G37*
G36*
X021862Y024654D02*
X021849Y024627D01*
X021838Y024591D01*
X021828Y024548D01*
X021819Y024497D01*
X021807Y02437D01*
X021801Y024212D01*
X0218Y024121D01*
X0216D01*
X021599Y024212D01*
X021581Y024497D01*
X021572Y024548D01*
X021562Y024591D01*
X021551Y024627D01*
X021538Y024654D01*
X021523Y024673D01*
X021877D01*
X021862Y024654D01*
D02*
G37*
G36*
X025805Y024046D02*
X02582Y023987D01*
X025846Y023922D01*
X025882Y023853D01*
X025928Y023778D01*
X025984Y023699D01*
X026127Y023525D01*
X026213Y023431D01*
X02631Y023331D01*
X026169Y02319D01*
X026069Y023287D01*
X025801Y023516D01*
X025722Y023572D01*
X025647Y023618D01*
X025578Y023654D01*
X025513Y02368D01*
X025454Y023695D01*
X0254Y0237D01*
X0258Y0241D01*
X025805Y024046D01*
D02*
G37*
G36*
X061548Y023775D02*
X061517Y023723D01*
X06149Y023659D01*
X061466Y023585D01*
X061446Y0235D01*
X061429Y023404D01*
X061407Y02318D01*
X061402Y023052D01*
X0614Y022913D01*
X0612D01*
X061198Y023052D01*
X061171Y023404D01*
X061154Y0235D01*
X061134Y023585D01*
X06111Y023659D01*
X061083Y023723D01*
X061052Y023775D01*
X061017Y023817D01*
X061583D01*
X061548Y023775D01*
D02*
G37*
G36*
X054948Y023725D02*
X054917Y023673D01*
X05489Y023609D01*
X054866Y023535D01*
X054846Y02345D01*
X054829Y023354D01*
X054807Y02313D01*
X054802Y023002D01*
X0548Y022863D01*
X0546D01*
X054598Y023002D01*
X054571Y023354D01*
X054554Y02345D01*
X054534Y023535D01*
X05451Y023609D01*
X054483Y023673D01*
X054452Y023725D01*
X054417Y023767D01*
X054983D01*
X054948Y023725D01*
D02*
G37*
G36*
X068148Y023575D02*
X068117Y023523D01*
X06809Y023459D01*
X068066Y023385D01*
X068046Y0233D01*
X068029Y023204D01*
X068007Y02298D01*
X068002Y022852D01*
X068Y022713D01*
X0678D01*
X067798Y022852D01*
X067771Y023204D01*
X067754Y0233D01*
X067734Y023385D01*
X06771Y023459D01*
X067683Y023523D01*
X067652Y023575D01*
X067617Y023617D01*
X068183D01*
X068148Y023575D01*
D02*
G37*
G36*
X051591Y039079D02*
Y022367D01*
X051464Y022355D01*
X051333Y022315D01*
X051212Y022251D01*
X051106Y022164D01*
X051019Y022058D01*
X050955Y021937D01*
X050915Y021806D01*
X050901Y02167D01*
X050915Y021533D01*
X050955Y021402D01*
X051019Y021282D01*
X051106Y021176D01*
X051212Y021089D01*
X051333Y021024D01*
X051464Y020984D01*
X0516Y020971D01*
X051736Y020984D01*
X051797Y021003D01*
X05283Y01997D01*
Y01968D01*
X052844Y019543D01*
X052884Y019411D01*
X052949Y019289D01*
X053036Y019183D01*
X053143Y019095D01*
X053264Y01903D01*
X053396Y01899D01*
X053533Y018977D01*
X053671Y01899D01*
X053783Y019024D01*
X053833Y018996D01*
Y01898D01*
X053938D01*
X053957Y018934D01*
X052144Y017121D01*
X052094Y017124D01*
X052094Y017124D01*
X051988Y017211D01*
X051867Y017276D01*
X051736Y017316D01*
X0516Y017329D01*
X051464Y017316D01*
X051333Y017276D01*
X051212Y017211D01*
X051106Y017124D01*
X051019Y017018D01*
X050955Y016898D01*
X050915Y016767D01*
X050901Y01663D01*
X050915Y016494D01*
X050955Y016363D01*
X051019Y016242D01*
X051095Y01615D01*
X051076Y0161D01*
X050505D01*
X050483Y016145D01*
X050522Y016192D01*
X050586Y016313D01*
X050626Y016444D01*
X05064Y01658D01*
X050626Y016717D01*
X050586Y016848D01*
X050522Y016968D01*
X050435Y017074D01*
X050329Y017161D01*
X050208Y017226D01*
X050077Y017266D01*
X049941Y017279D01*
X049805Y017266D01*
X049674Y017226D01*
X049553Y017161D01*
X049447Y017074D01*
X04936Y016968D01*
X049295Y016848D01*
X049256Y016717D01*
X049242Y01658D01*
X049256Y016444D01*
X049295Y016313D01*
X04936Y016192D01*
X049399Y016145D01*
X049377Y0161D01*
X048681D01*
X048659Y01615D01*
X048732Y016239D01*
X048797Y016361D01*
X048837Y016493D01*
X04885Y01663D01*
Y01693D01*
X048837Y017067D01*
X048797Y017199D01*
X048732Y017321D01*
X048644Y017427D01*
X048538Y017515D01*
X048416Y01758D01*
X048284Y01762D01*
X048147Y017633D01*
X04801Y01762D01*
X047878Y01758D01*
X047756Y017515D01*
X047685Y017457D01*
X047661Y017439D01*
X04763Y017457D01*
X047624Y017511D01*
X049004Y018891D01*
X049084Y018995D01*
X049134Y019117D01*
X049151Y019247D01*
Y022564D01*
X049156Y022781D01*
X049172Y022985D01*
X049182Y023058D01*
X049194Y023119D01*
X049205Y023161D01*
X049212Y02318D01*
X049218Y023189D01*
X049225Y0232D01*
X049268Y023253D01*
X049283Y02328D01*
X049332Y023275D01*
X049357Y023192D01*
X049432Y023053D01*
X049532Y022932D01*
X049653Y022832D01*
X049792Y022757D01*
X049943Y022712D01*
X0501Y022696D01*
X050257Y022712D01*
X050408Y022757D01*
X050547Y022832D01*
X050668Y022932D01*
X050768Y023053D01*
X050843Y023192D01*
X050888Y023343D01*
X050904Y0235D01*
X050888Y023657D01*
X050843Y023808D01*
X050768Y023947D01*
X050668Y024068D01*
X050547Y024168D01*
X050408Y024243D01*
X050257Y024288D01*
X0501Y024304D01*
X049943Y024288D01*
X049792Y024243D01*
X049653Y024168D01*
X049532Y024068D01*
X049432Y023947D01*
X049417Y02392D01*
X049368Y023925D01*
X049343Y024008D01*
X049268Y024147D01*
X049168Y024268D01*
X049047Y024368D01*
X048908Y024443D01*
X048757Y024488D01*
X0486Y024504D01*
X048443Y024488D01*
X048415Y02448D01*
X04838Y024515D01*
X048388Y024543D01*
X048404Y0247D01*
X048388Y024857D01*
X048343Y025008D01*
X048268Y025147D01*
X048168Y025268D01*
X048047Y025368D01*
X047908Y025443D01*
X047757Y025488D01*
X0476Y025504D01*
X047443Y025488D01*
X047292Y025443D01*
X047153Y025368D01*
X047032Y025268D01*
X046932Y025147D01*
X046857Y025008D01*
X046812Y024857D01*
X046796Y0247D01*
X046812Y024543D01*
X046857Y024392D01*
X046932Y024253D01*
X047032Y024132D01*
X047153Y024032D01*
X047292Y023957D01*
X047443Y023912D01*
X0476Y023896D01*
X047757Y023912D01*
X047785Y02392D01*
X04782Y023885D01*
X047812Y023857D01*
X047796Y0237D01*
X047812Y023543D01*
X047857Y023392D01*
X047932Y023253D01*
X048032Y023132D01*
X048037Y023127D01*
X048051Y023111D01*
X048058Y023102D01*
X04807Y023078D01*
X048085Y023038D01*
X0481Y022984D01*
X048114Y022914D01*
X048126Y022835D01*
X048142Y022621D01*
X048143Y022553D01*
Y02063D01*
X047447D01*
Y020614D01*
X047397Y020586D01*
X047284Y02062D01*
X047158Y020632D01*
X046Y021791D01*
Y034388D01*
X045982Y034518D01*
X045932Y03464D01*
X045852Y034744D01*
X040347Y040249D01*
X040366Y040296D01*
X050374D01*
X051591Y039079D01*
D02*
G37*
G36*
X062803Y024634D02*
X062781Y024585D01*
X062642Y024543D01*
X062503Y024468D01*
X062382Y024368D01*
X062282Y024247D01*
X062207Y024108D01*
X062162Y023957D01*
X062146Y0238D01*
X062162Y023643D01*
X062207Y023492D01*
X062282Y023353D01*
X062382Y023232D01*
X062503Y023132D01*
X062642Y023057D01*
X062793Y023012D01*
X06295Y022996D01*
X063107Y023012D01*
X063258Y023057D01*
X063397Y023132D01*
X063518Y023232D01*
X063618Y023353D01*
X063693Y023492D01*
X063735Y023631D01*
X063784Y023653D01*
X064829Y022608D01*
X064808Y022563D01*
X06475Y022568D01*
X064614Y022555D01*
X064483Y022515D01*
X064362Y022451D01*
X064256Y022364D01*
X064169Y022258D01*
X064105Y022137D01*
X064065Y022006D01*
X064051Y02187D01*
X064065Y021733D01*
X064105Y021602D01*
X064169Y021482D01*
X064256Y021376D01*
X064362Y021289D01*
X064483Y021224D01*
X064614Y021184D01*
X06475Y021171D01*
X064886Y021184D01*
X065017Y021224D01*
X065138Y021289D01*
X065244Y021376D01*
X065331Y021482D01*
X065395Y021602D01*
X065435Y021733D01*
X065449Y02187D01*
X065443Y021927D01*
X065488Y021949D01*
X066102Y021335D01*
Y020569D01*
X066021Y020471D01*
X065956Y020349D01*
X065916Y020217D01*
X065903Y02008D01*
Y01978D01*
X065916Y019643D01*
X065956Y019511D01*
X066021Y019389D01*
X066109Y019283D01*
X066215Y019195D01*
X066337Y01913D01*
X066469Y01909D01*
X066606Y019077D01*
X066743Y01909D01*
X066856Y019124D01*
X066906Y019096D01*
Y01908D01*
X06701D01*
X06703Y019034D01*
X065305Y017309D01*
X065255Y017311D01*
X065244Y017324D01*
X065138Y017411D01*
X065017Y017476D01*
X064886Y017516D01*
X06475Y017529D01*
X064614Y017516D01*
X064483Y017476D01*
X064362Y017411D01*
X064256Y017324D01*
X064169Y017218D01*
X064105Y017098D01*
X064065Y016967D01*
X064051Y01683D01*
X064065Y016694D01*
X064105Y016563D01*
X064169Y016442D01*
X064256Y016336D01*
X064269Y016326D01*
X064271Y016276D01*
X064219Y016223D01*
X064139Y016119D01*
X064131Y0161D01*
X061453D01*
X061373Y016249D01*
X06137Y016253D01*
X06138Y016302D01*
X061461Y016345D01*
X061567Y016433D01*
X061655Y016539D01*
X06172Y016661D01*
X06176Y016793D01*
X061773Y01693D01*
Y01723D01*
X06176Y017367D01*
X06172Y017499D01*
X061655Y017621D01*
X061567Y017727D01*
X061461Y017815D01*
X061339Y01788D01*
X061207Y01792D01*
X06107Y017933D01*
X060933Y01792D01*
X060801Y01788D01*
X060679Y017815D01*
X060608Y017757D01*
X060583Y017739D01*
X060552Y017757D01*
X060547Y017811D01*
X061926Y019191D01*
X062007Y019295D01*
X062057Y019417D01*
X062074Y019547D01*
Y021608D01*
X062057Y021738D01*
X062007Y02186D01*
X061926Y021964D01*
X061804Y022086D01*
Y022975D01*
X061805Y02304D01*
X06181Y023151D01*
X061829Y02335D01*
X061841Y023419D01*
X061855Y023477D01*
X061868Y023517D01*
X061878Y023539D01*
X06188Y023543D01*
X061894Y02356D01*
X0619Y02357D01*
X061968Y023653D01*
X062043Y023792D01*
X062088Y023943D01*
X062104Y0241D01*
X062088Y024257D01*
X062043Y024408D01*
X061968Y024547D01*
X061868Y024668D01*
X061747Y024768D01*
X061608Y024843D01*
X061457Y024888D01*
X0613Y024904D01*
X061143Y024888D01*
X061115Y02488D01*
X06108Y024915D01*
X061088Y024943D01*
X061104Y0251D01*
X061088Y025257D01*
X061043Y025408D01*
X060968Y025547D01*
X060868Y025668D01*
X060747Y025768D01*
X060608Y025843D01*
X060457Y025888D01*
X0603Y025904D01*
X060143Y025888D01*
X059992Y025843D01*
X059853Y025768D01*
X059732Y025668D01*
X059632Y025547D01*
X059557Y025408D01*
X059512Y025257D01*
X059496Y0251D01*
X059512Y024943D01*
X059557Y024792D01*
X059632Y024653D01*
X059732Y024532D01*
X059853Y024432D01*
X059992Y024357D01*
X060143Y024312D01*
X0603Y024296D01*
X060457Y024312D01*
X060485Y02432D01*
X06052Y024285D01*
X060512Y024257D01*
X060496Y0241D01*
X060512Y023943D01*
X060557Y023792D01*
X060632Y023653D01*
X0607Y02357D01*
X060706Y02356D01*
X06072Y023543D01*
X060722Y023539D01*
X060732Y023517D01*
X060745Y023477D01*
X060759Y023419D01*
X06077Y023354D01*
X060795Y023033D01*
X060796Y022975D01*
Y021877D01*
X060813Y021747D01*
X060863Y021625D01*
X060943Y021521D01*
X061065Y021399D01*
Y02093D01*
X06037D01*
Y020914D01*
X06032Y020886D01*
X060207Y02092D01*
X060081Y020932D01*
X05905Y021963D01*
Y023372D01*
X059032Y023502D01*
X058982Y023624D01*
X058932Y023689D01*
X058968Y023725D01*
X059048Y023663D01*
X059169Y023613D01*
X05925Y023602D01*
Y02405D01*
X058802D01*
X058813Y023969D01*
X058863Y023848D01*
X058896Y023805D01*
X058859Y023772D01*
X056927Y025704D01*
X056946Y02575D01*
X05725D01*
Y02735D01*
X05565D01*
Y027046D01*
X055604Y027027D01*
X053204Y029426D01*
Y034167D01*
X053251Y034186D01*
X062803Y024634D01*
D02*
G37*
G36*
X048866Y023391D02*
X048841Y023342D01*
X048819Y023281D01*
X0488Y023208D01*
X048784Y023124D01*
X048771Y023028D01*
X048753Y022801D01*
X048747Y022528D01*
X048547Y022504D01*
X048545Y022639D01*
X048527Y022879D01*
X048512Y022984D01*
X048492Y023079D01*
X048468Y023165D01*
X04844Y02324D01*
X048407Y023306D01*
X04837Y023361D01*
X048328Y023407D01*
X048894Y023429D01*
X048866Y023391D01*
D02*
G37*
G36*
X029773Y022473D02*
X029754Y022488D01*
X029727Y022501D01*
X029691Y022512D01*
X029648Y022522D01*
X029597Y022531D01*
X02947Y022543D01*
X029312Y022549D01*
X029221Y02255D01*
Y02275D01*
X029312Y022751D01*
X029597Y022769D01*
X029648Y022778D01*
X029691Y022788D01*
X029727Y022799D01*
X029754Y022812D01*
X029773Y022827D01*
Y022473D01*
D02*
G37*
G36*
X066707Y020512D02*
X066715Y020429D01*
X066722Y020395D01*
X066731Y020367D01*
X066742Y020343D01*
X066755Y020325D01*
X06677Y020312D01*
X066786Y020304D01*
X066805Y020302D01*
X066407D01*
X066426Y020304D01*
X066443Y020312D01*
X066457Y020325D01*
X06647Y020343D01*
X066481Y020367D01*
X06649Y020395D01*
X066497Y020429D01*
X066502Y020468D01*
X066505Y020512D01*
X066506Y020562D01*
X066706D01*
X066707Y020512D01*
D02*
G37*
G36*
X059835Y020607D02*
X0599Y020554D01*
X059929Y020535D01*
X059955Y020521D01*
X05998Y020512D01*
X060002Y020508D01*
X060021Y02051D01*
X060039Y020516D01*
X060054Y020528D01*
X059772Y020246D01*
X059784Y020261D01*
X05979Y020278D01*
X059791Y020298D01*
X059788Y02032D01*
X059779Y020344D01*
X059765Y020371D01*
X059746Y0204D01*
X059722Y020431D01*
X059693Y020464D01*
X059658Y0205D01*
X0598Y020642D01*
X059835Y020607D01*
D02*
G37*
G36*
X053299Y020357D02*
X053364Y020304D01*
X053392Y020285D01*
X053419Y020271D01*
X053443Y020262D01*
X053465Y020258D01*
X053485Y02026D01*
X053502Y020266D01*
X053518Y020278D01*
X053236Y019996D01*
X053247Y020011D01*
X053254Y020028D01*
X053255Y020048D01*
X053251Y02007D01*
X053242Y020094D01*
X053229Y020121D01*
X05321Y02015D01*
X053185Y020181D01*
X053156Y020214D01*
X053122Y02025D01*
X053263Y020392D01*
X053299Y020357D01*
D02*
G37*
G36*
X046913Y020307D02*
X046977Y020254D01*
X047006Y020235D01*
X047033Y020221D01*
X047057Y020212D01*
X047079Y020208D01*
X047099Y02021D01*
X047116Y020216D01*
X047131Y020228D01*
X04685Y019946D01*
X046861Y019961D01*
X046867Y019978D01*
X046869Y019998D01*
X046865Y02002D01*
X046856Y020044D01*
X046842Y020071D01*
X046823Y0201D01*
X046799Y020131D01*
X04677Y020164D01*
X046736Y0202D01*
X046877Y020342D01*
X046913Y020307D01*
D02*
G37*
G36*
X015288Y020115D02*
X01527Y02008D01*
X015253Y020036D01*
X015239Y019983D01*
X015227Y019922D01*
X015217Y019851D01*
X015204Y019684D01*
X0152Y019482D01*
X015D01*
X014999Y019587D01*
X014973Y019922D01*
X014961Y019983D01*
X014947Y020036D01*
X01493Y02008D01*
X014912Y020115D01*
X014891Y020141D01*
X015309D01*
X015288Y020115D01*
D02*
G37*
G36*
X016303Y01959D02*
X016418Y01949D01*
X016471Y01945D01*
X016521Y019416D01*
X016568Y01939D01*
X016612Y01937D01*
X016654Y019356D01*
X016692Y019349D01*
X016727Y019349D01*
X016501Y019075D01*
X016497Y019085D01*
X016486Y019102D01*
X016468Y019125D01*
X016411Y019189D01*
X016147Y019462D01*
X016241Y01965D01*
X016303Y01959D01*
D02*
G37*
G36*
X015201Y017861D02*
X015204Y017826D01*
X015209Y017796D01*
X015216Y01777D01*
X015225Y017748D01*
X015236Y01773D01*
X015249Y017716D01*
X015264Y017706D01*
X015281Y0177D01*
X0153Y017698D01*
X014951Y017699D01*
X01496Y017701D01*
X014969Y017707D01*
X014976Y017717D01*
X014982Y017731D01*
X014988Y017749D01*
X014992Y017771D01*
X014996Y017797D01*
X015Y017861D01*
X015Y017899D01*
X0152D01*
X015201Y017861D01*
D02*
G37*
G36*
X016661Y01767D02*
X016627Y017634D01*
X016574Y01757D01*
X016555Y017541D01*
X016541Y017514D01*
X016532Y01749D01*
X016528Y017468D01*
X01653Y017448D01*
X016536Y017431D01*
X016547Y017416D01*
X016266Y017697D01*
X016281Y017686D01*
X016298Y01768D01*
X016318Y017678D01*
X01634Y017682D01*
X016364Y017691D01*
X016391Y017705D01*
X01642Y017724D01*
X016451Y017748D01*
X016484Y017777D01*
X01652Y017811D01*
X016661Y01767D01*
D02*
G37*
G36*
X019351Y017832D02*
X019359Y017749D01*
X019366Y017715D01*
X019375Y017687D01*
X019386Y017663D01*
X019399Y017645D01*
X019414Y017632D01*
X01943Y017624D01*
X019449Y017621D01*
X019051D01*
X01907Y017624D01*
X019086Y017632D01*
X019101Y017645D01*
X019114Y017663D01*
X019125Y017687D01*
X019134Y017715D01*
X019141Y017749D01*
X019146Y017788D01*
X019149Y017832D01*
X01915Y017882D01*
X01935D01*
X019351Y017832D01*
D02*
G37*
G36*
X058279Y016072D02*
X058291Y015989D01*
X058309Y015905D01*
X058335Y015819D01*
X058369Y015732D01*
X05841Y015643D01*
X058458Y015552D01*
X058514Y01546D01*
X058649Y015272D01*
X057702D01*
X057773Y015367D01*
X057893Y015552D01*
X057941Y015643D01*
X057982Y015732D01*
X058016Y015819D01*
X058042Y015905D01*
X058061Y015989D01*
X058072Y016072D01*
X058076Y016153D01*
X058276D01*
X058279Y016072D01*
D02*
G37*
G36*
X064679Y015834D02*
X064691Y015794D01*
X06471Y015746D01*
X064736Y015692D01*
X064812Y015561D01*
X064919Y015401D01*
X065056Y015213D01*
X064096D01*
X064168Y015311D01*
X064415Y015692D01*
X064441Y015746D01*
X06446Y015794D01*
X064472Y015834D01*
X064476Y015867D01*
X064676D01*
X064679Y015834D01*
D02*
G37*
G36*
X051879Y015961D02*
X051891Y015881D01*
X051909Y015799D01*
X051935Y015715D01*
X051969Y015629D01*
X05201Y015541D01*
X052059Y015451D01*
X052115Y01536D01*
X052249Y015171D01*
X051302D01*
X051373Y015267D01*
X051492Y015451D01*
X051541Y015541D01*
X051582Y015629D01*
X051616Y015715D01*
X051642Y015799D01*
X051661Y015881D01*
X051672Y015961D01*
X051676Y016039D01*
X051876D01*
X051879Y015961D01*
D02*
G37*
G36*
X045479Y01589D02*
X04549Y015803D01*
X045509Y015715D01*
X045535Y015626D01*
X045569Y015536D01*
X045609Y015445D01*
X045658Y015354D01*
X045714Y015261D01*
X045848Y015074D01*
X044904D01*
X044974Y015168D01*
X045093Y015354D01*
X045142Y015445D01*
X045183Y015536D01*
X045216Y015626D01*
X045242Y015715D01*
X045261Y015803D01*
X045272Y01589D01*
X045276Y015976D01*
X045476D01*
X045479Y01589D01*
D02*
G37*
G36*
X030215Y011399D02*
X030175Y011358D01*
X030113Y011284D01*
X03009Y011251D01*
X030073Y011222D01*
X030062Y011195D01*
X030056Y011171D01*
X030056Y01115D01*
X030061Y011131D01*
X030073Y011116D01*
X029791Y011398D01*
X029806Y011386D01*
X029825Y011381D01*
X029846Y011381D01*
X02987Y011387D01*
X029897Y011398D01*
X029926Y011415D01*
X029959Y011438D01*
X029994Y011466D01*
X030074Y01154D01*
X030215Y011399D01*
D02*
G37*
G36*
X041967Y011501D02*
X042041Y011438D01*
X042074Y011415D01*
X042103Y011398D01*
X04213Y011387D01*
X042154Y011381D01*
X042175Y011381D01*
X042194Y011386D01*
X042209Y011398D01*
X041927Y011116D01*
X041939Y011131D01*
X041944Y01115D01*
X041944Y011171D01*
X041938Y011195D01*
X041927Y011222D01*
X04191Y011251D01*
X041887Y011284D01*
X041859Y011319D01*
X041785Y011399D01*
X041926Y01154D01*
X041967Y011501D01*
D02*
G37*
G36*
X037767D02*
X037841Y011438D01*
X037874Y011415D01*
X037903Y011398D01*
X03793Y011387D01*
X037954Y011381D01*
X037975Y011381D01*
X037994Y011386D01*
X038009Y011398D01*
X037727Y011116D01*
X037739Y011131D01*
X037744Y01115D01*
X037744Y011171D01*
X037738Y011195D01*
X037727Y011222D01*
X03771Y011251D01*
X037687Y011284D01*
X037659Y011319D01*
X037585Y011399D01*
X037726Y01154D01*
X037767Y011501D01*
D02*
G37*
G36*
X033567D02*
X033641Y011438D01*
X033674Y011415D01*
X033703Y011398D01*
X03373Y011387D01*
X033754Y011381D01*
X033775Y011381D01*
X033794Y011386D01*
X033809Y011398D01*
X033527Y011116D01*
X033539Y011131D01*
X033544Y01115D01*
X033544Y011171D01*
X033538Y011195D01*
X033527Y011222D01*
X03351Y011251D01*
X033487Y011284D01*
X033459Y011319D01*
X033385Y011399D01*
X033526Y01154D01*
X033567Y011501D01*
D02*
G37*
%LPC*%
G36*
X01795Y033796D02*
Y03345D01*
X018296D01*
X018289Y033504D01*
X018249Y033601D01*
X018185Y033685D01*
X018101Y033749D01*
X018004Y033789D01*
X01795Y033796D01*
D02*
G37*
G36*
X01785D02*
X017796Y033789D01*
X017699Y033749D01*
X017615Y033685D01*
X017551Y033601D01*
X017511Y033504D01*
X017504Y03345D01*
X01785D01*
Y033796D01*
D02*
G37*
G36*
X018296Y03335D02*
X018208D01*
X018215Y033328D01*
X018235Y033284D01*
X018262Y033236D01*
X018263Y033234D01*
X018289Y033296D01*
X018296Y03335D01*
D02*
G37*
G36*
X018149D02*
X0179D01*
X017504D01*
X017511Y033296D01*
X017551Y033199D01*
X017615Y033115D01*
X01764Y033096D01*
X017639Y033095D01*
X017624Y033045D01*
X01751Y032984D01*
X017403Y032897D01*
X017316Y03279D01*
X017251Y032669D01*
X017211Y032537D01*
X017197Y0324D01*
X017211Y032263D01*
X017251Y032131D01*
X017316Y03201D01*
X017375Y031938D01*
X017401Y0319D01*
X017375Y031862D01*
X017316Y03179D01*
X017251Y031669D01*
X017211Y031537D01*
X017197Y0314D01*
X017211Y031263D01*
X017251Y031131D01*
X017316Y03101D01*
X017375Y030938D01*
X017401Y0309D01*
X017375Y030862D01*
X017316Y03079D01*
X017251Y030669D01*
X017211Y030537D01*
X017197Y0304D01*
X017211Y030263D01*
X017251Y030131D01*
X017316Y03001D01*
X017375Y029938D01*
X017401Y0299D01*
X017375Y029862D01*
X017316Y02979D01*
X017251Y029669D01*
X017211Y029537D01*
X017197Y0294D01*
X017211Y029263D01*
X017245Y029149D01*
X017217Y029099D01*
X017201D01*
Y027701D01*
X018599D01*
Y029099D01*
X018583D01*
X018555Y029149D01*
X018589Y029263D01*
X018603Y0294D01*
X018589Y029537D01*
X018549Y029669D01*
X018484Y02979D01*
X018425Y029862D01*
X018399Y0299D01*
X018425Y029938D01*
X018484Y03001D01*
X018549Y030131D01*
X018589Y030263D01*
X018603Y0304D01*
X018589Y030537D01*
X018549Y030669D01*
X018484Y03079D01*
X018425Y030862D01*
X018399Y0309D01*
X018425Y030938D01*
X018484Y03101D01*
X018549Y031131D01*
X018589Y031263D01*
X018603Y0314D01*
X018589Y031537D01*
X018549Y031669D01*
X018484Y03179D01*
X018425Y031862D01*
X018399Y0319D01*
X018425Y031938D01*
X018484Y03201D01*
X018549Y032131D01*
X018589Y032263D01*
X018603Y0324D01*
X018589Y032537D01*
X018549Y032669D01*
X018502Y032757D01*
X018452Y032707D01*
X018375Y032782D01*
X018117Y033002D01*
X018064Y033038D01*
X018016Y033065D01*
X017972Y033085D01*
X017934Y033097D01*
X0179Y033101D01*
X018149Y03335D01*
D02*
G37*
G36*
X01705Y020742D02*
X016997Y020735D01*
X016901Y020695D01*
X016818Y020632D01*
X016755Y020549D01*
X016715Y020453D01*
X016708Y0204D01*
X01705D01*
Y020742D01*
D02*
G37*
G36*
Y0203D02*
X016708D01*
X016715Y020247D01*
X016755Y020151D01*
X016818Y020068D01*
X016901Y020005D01*
X016997Y019965D01*
X01705Y019958D01*
Y0203D01*
D02*
G37*
G36*
X0728Y043739D02*
X072583Y043721D01*
X072371Y043671D01*
X07217Y043587D01*
X071984Y043473D01*
X071818Y043332D01*
X071677Y043166D01*
X071563Y04298D01*
X071479Y042779D01*
X071429Y042567D01*
X071411Y04235D01*
X071429Y042133D01*
X071479Y041921D01*
X071563Y04172D01*
X071677Y041534D01*
X071818Y041368D01*
X071984Y041227D01*
X07217Y041113D01*
X072371Y041029D01*
X072583Y040979D01*
X0728Y040961D01*
X073017Y040979D01*
X073229Y041029D01*
X07343Y041113D01*
X073616Y041227D01*
X073782Y041368D01*
X073923Y041534D01*
X074037Y04172D01*
X074121Y041921D01*
X074171Y042133D01*
X074189Y04235D01*
X074171Y042567D01*
X074121Y042779D01*
X074037Y04298D01*
X073923Y043166D01*
X073782Y043332D01*
X073616Y043473D01*
X07343Y043587D01*
X073229Y043671D01*
X073017Y043721D01*
X0728Y043739D01*
D02*
G37*
G36*
X0023D02*
X002083Y043721D01*
X001871Y043671D01*
X00167Y043587D01*
X001484Y043473D01*
X001318Y043332D01*
X001177Y043166D01*
X001063Y04298D01*
X000979Y042779D01*
X000929Y042567D01*
X000911Y04235D01*
X000929Y042133D01*
X000979Y041921D01*
X001063Y04172D01*
X001177Y041534D01*
X001318Y041368D01*
X001484Y041227D01*
X00167Y041113D01*
X001871Y041029D01*
X002083Y040979D01*
X0023Y040961D01*
X002517Y040979D01*
X002729Y041029D01*
X00293Y041113D01*
X003116Y041227D01*
X003282Y041368D01*
X003423Y041534D01*
X003537Y04172D01*
X003621Y041921D01*
X003671Y042133D01*
X003689Y04235D01*
X003671Y042567D01*
X003621Y042779D01*
X003537Y04298D01*
X003423Y043166D01*
X003282Y043332D01*
X003116Y043473D01*
X00293Y043587D01*
X002729Y043671D01*
X002517Y043721D01*
X0023Y043739D01*
D02*
G37*
G36*
X0061Y040345D02*
X005906Y040326D01*
X005719Y04027D01*
X005547Y040178D01*
X005396Y040054D01*
X005272Y039903D01*
X00518Y039731D01*
X005124Y039544D01*
X005105Y03935D01*
X005124Y039156D01*
X00518Y038969D01*
X005272Y038797D01*
X005396Y038646D01*
X005547Y038522D01*
X005719Y03843D01*
X005906Y038374D01*
X0061Y038355D01*
X006294Y038374D01*
X006481Y03843D01*
X006653Y038522D01*
X006804Y038646D01*
X006928Y038797D01*
X00702Y038969D01*
X007076Y039156D01*
X007095Y03935D01*
X007076Y039544D01*
X00702Y039731D01*
X006928Y039903D01*
X006804Y040054D01*
X006653Y040178D01*
X006481Y04027D01*
X006294Y040326D01*
X0061Y040345D01*
D02*
G37*
G36*
X066196Y0306D02*
X066114D01*
X066115Y030595D01*
X066131Y030551D01*
X066151Y030507D01*
X066163Y030484D01*
X066189Y030546D01*
X066196Y0306D01*
D02*
G37*
G36*
X07025Y027435D02*
X06865D01*
Y025835D01*
X07025D01*
Y027435D01*
D02*
G37*
G36*
X06595Y024398D02*
Y024347D01*
X065991Y024366D01*
X066029Y024387D01*
X06595Y024398D01*
D02*
G37*
G36*
X066307Y02419D02*
X066306Y024179D01*
X066299Y024058D01*
X0663Y02395D01*
X066398D01*
X066387Y024031D01*
X066337Y024152D01*
X066307Y02419D01*
D02*
G37*
G36*
X06595Y024159D02*
Y02395D01*
X066244D01*
X06595Y024159D01*
D02*
G37*
G36*
X06585Y024398D02*
X065769Y024387D01*
X065648Y024337D01*
X065543Y024257D01*
X065463Y024152D01*
X065413Y024031D01*
X065402Y02395D01*
X06585D01*
Y02423D01*
X065778Y024281D01*
X065835Y0243D01*
X06585Y024306D01*
Y024398D01*
D02*
G37*
G36*
X066398Y02385D02*
X06595D01*
Y023402D01*
X066031Y023413D01*
X066152Y023463D01*
X066257Y023543D01*
X066337Y023648D01*
X066387Y023769D01*
X066398Y02385D01*
D02*
G37*
G36*
X06585D02*
X065402D01*
X065413Y023769D01*
X065463Y023648D01*
X065543Y023543D01*
X065648Y023463D01*
X065769Y023413D01*
X06585Y023402D01*
Y02385D01*
D02*
G37*
G36*
X0694Y022468D02*
X069264Y022455D01*
X069133Y022415D01*
X069012Y022351D01*
X068906Y022264D01*
X068819Y022158D01*
X068755Y022037D01*
X068715Y021906D01*
X068701Y02177D01*
X068715Y021633D01*
X068755Y021502D01*
X068819Y021382D01*
X068906Y021276D01*
X069012Y021189D01*
X069133Y021124D01*
X069264Y021084D01*
X0694Y021071D01*
X069536Y021084D01*
X069667Y021124D01*
X069788Y021189D01*
X069894Y021276D01*
X069981Y021382D01*
X070045Y021502D01*
X070085Y021633D01*
X070099Y02177D01*
X070085Y021906D01*
X070045Y022037D01*
X069981Y022158D01*
X069894Y022264D01*
X069788Y022351D01*
X069667Y022415D01*
X069536Y022455D01*
X0694Y022468D01*
D02*
G37*
G36*
X0056Y021345D02*
X005406Y021326D01*
X005219Y02127D01*
X005047Y021178D01*
X004896Y021054D01*
X004772Y020903D01*
X00468Y020731D01*
X004624Y020544D01*
X004605Y02035D01*
X004624Y020156D01*
X00468Y019969D01*
X004772Y019797D01*
X004896Y019646D01*
X005047Y019522D01*
X005219Y01943D01*
X005406Y019374D01*
X0056Y019355D01*
X005794Y019374D01*
X005981Y01943D01*
X006153Y019522D01*
X006304Y019646D01*
X006428Y019797D01*
X00652Y019969D01*
X006576Y020156D01*
X006595Y02035D01*
X006576Y020544D01*
X00652Y020731D01*
X006428Y020903D01*
X006304Y021054D01*
X006153Y021178D01*
X005981Y02127D01*
X005794Y021326D01*
X0056Y021345D01*
D02*
G37*
G36*
X00712Y022807D02*
X006993Y022794D01*
X006871Y022757D01*
X006758Y022697D01*
X006659Y022616D01*
X006577Y022517D01*
X006517Y022404D01*
X00648Y022281D01*
X006467Y022154D01*
X00648Y022026D01*
X006517Y021904D01*
X006577Y021791D01*
X006633Y021724D01*
X006637Y021703D01*
X006642Y021674D01*
X006656Y021482D01*
X006656Y02148D01*
Y01819D01*
X006611Y018168D01*
X006591Y018185D01*
X006469Y01825D01*
X006337Y01829D01*
X0062Y018303D01*
X006063Y01829D01*
X005931Y01825D01*
X005809Y018185D01*
X005738Y018127D01*
X0057Y018099D01*
X005662Y018127D01*
X005591Y018185D01*
X005469Y01825D01*
X005337Y01829D01*
X0052Y018303D01*
X005063Y01829D01*
X00495Y018256D01*
X0049Y018284D01*
Y0183D01*
X0035D01*
Y0165D01*
X004563D01*
X004593Y01645D01*
X00455Y016369D01*
X00451Y016237D01*
X004497Y0161D01*
Y0158D01*
X00451Y015663D01*
X00455Y015531D01*
X004615Y015409D01*
X004703Y015303D01*
X004809Y015215D01*
X004931Y01515D01*
X005063Y01511D01*
X0052Y015097D01*
X005337Y01511D01*
X005469Y01515D01*
X005591Y015215D01*
X005662Y015273D01*
X0057Y015301D01*
X005738Y015273D01*
X005809Y015215D01*
X005931Y01515D01*
X006063Y01511D01*
X0062Y015097D01*
X006337Y01511D01*
X006469Y01515D01*
X006591Y015215D01*
X006697Y015303D01*
X006703D01*
X006809Y015215D01*
X006931Y01515D01*
X007063Y01511D01*
X0072Y015097D01*
X007337Y01511D01*
X00745Y015144D01*
X0075Y015116D01*
Y0151D01*
X0089D01*
Y01515D01*
X008735Y015153D01*
Y015353D01*
X008841Y015354D01*
X0089Y015359D01*
Y0168D01*
X008837D01*
X008807Y01685D01*
X00885Y016931D01*
X00889Y017063D01*
X008903Y0172D01*
Y0176D01*
X00889Y017737D01*
X00885Y017869D01*
X008785Y017991D01*
X008697Y018097D01*
X008591Y018185D01*
X008469Y01825D01*
X008337Y01829D01*
X0082Y018303D01*
X008063Y01829D01*
X007931Y01825D01*
X007809Y018185D01*
X007738Y018127D01*
X007703Y018101D01*
X007665Y01813D01*
Y021547D01*
X007671Y021744D01*
X007677Y021816D01*
X007724Y021904D01*
X007761Y022026D01*
X007774Y022154D01*
X007761Y022281D01*
X007724Y022404D01*
X007664Y022517D01*
X007582Y022616D01*
X007483Y022697D01*
X00737Y022757D01*
X007248Y022794D01*
X00712Y022807D01*
D02*
G37*
G36*
X02305Y01713D02*
Y016808D01*
X023372D01*
X023366Y016856D01*
X023328Y016947D01*
X023268Y017026D01*
X023189Y017086D01*
X023098Y017124D01*
X02305Y01713D01*
D02*
G37*
G36*
X02295D02*
X022902Y017124D01*
X022811Y017086D01*
X022732Y017026D01*
X022672Y016947D01*
X022634Y016856D01*
X022628Y016808D01*
X02295D01*
Y01713D01*
D02*
G37*
G36*
X01215Y01683D02*
Y016508D01*
X012472D01*
X012466Y016556D01*
X012428Y016647D01*
X012368Y016726D01*
X012289Y016786D01*
X012198Y016824D01*
X01215Y01683D01*
D02*
G37*
G36*
X01205D02*
X012002Y016824D01*
X011911Y016786D01*
X011832Y016726D01*
X011772Y016647D01*
X011734Y016556D01*
X011728Y016508D01*
X01205D01*
Y01683D01*
D02*
G37*
G36*
X023372Y016708D02*
X02305D01*
Y016386D01*
X023098Y016392D01*
X023189Y01643D01*
X023268Y01649D01*
X023328Y016568D01*
X023366Y01666D01*
X023372Y016708D01*
D02*
G37*
G36*
X02295D02*
X022628D01*
X022634Y01666D01*
X022672Y016568D01*
X022732Y01649D01*
X022811Y01643D01*
X022902Y016392D01*
X02295Y016386D01*
Y016708D01*
D02*
G37*
G36*
X012472Y016408D02*
X01215D01*
Y016086D01*
X012198Y016092D01*
X012289Y01613D01*
X012368Y01619D01*
X012428Y016268D01*
X012466Y01636D01*
X012472Y016408D01*
D02*
G37*
G36*
X01205D02*
X011728D01*
X011734Y01636D01*
X011772Y016268D01*
X011832Y01619D01*
X011911Y01613D01*
X012002Y016092D01*
X01205Y016086D01*
Y016408D01*
D02*
G37*
G36*
X010714Y015645D02*
Y015303D01*
X011056D01*
X011049Y015356D01*
X011009Y015452D01*
X010946Y015535D01*
X010863Y015598D01*
X010767Y015638D01*
X010714Y015645D01*
D02*
G37*
G36*
X009654D02*
Y015303D01*
X009996D01*
X009989Y015356D01*
X009949Y015452D01*
X009886Y015535D01*
X009803Y015598D01*
X009707Y015638D01*
X009654Y015645D01*
D02*
G37*
G36*
X009554D02*
X009501Y015638D01*
X009404Y015598D01*
X009322Y015535D01*
X009259Y015452D01*
X009233Y015392D01*
X009237Y015392D01*
X00929Y015406D01*
X009334Y015423D01*
X009369Y015441D01*
X009395Y015462D01*
Y015303D01*
X009554D01*
Y015645D01*
D02*
G37*
G36*
X010614D02*
X010561Y015638D01*
X010464Y015598D01*
X010382Y015535D01*
X010319Y015452D01*
X010279Y015356D01*
X010272Y015303D01*
X010614D01*
Y015645D01*
D02*
G37*
G36*
X02175Y015342D02*
Y015D01*
X022092D01*
X022085Y015053D01*
X022045Y015149D01*
X021982Y015232D01*
X021899Y015295D01*
X021803Y015335D01*
X02175Y015342D01*
D02*
G37*
G36*
X02165D02*
X021597Y015335D01*
X021501Y015295D01*
X021418Y015232D01*
X021355Y015149D01*
X021315Y015053D01*
X021308Y015D01*
X02165D01*
Y015342D01*
D02*
G37*
G36*
X02075Y015292D02*
Y01495D01*
X021092D01*
X021085Y015003D01*
X021045Y015099D01*
X020982Y015182D01*
X020899Y015245D01*
X020803Y015285D01*
X02075Y015292D01*
D02*
G37*
G36*
X02065D02*
X020597Y015285D01*
X020501Y015245D01*
X020418Y015182D01*
X020355Y015099D01*
X020315Y015003D01*
X020308Y01495D01*
X02065D01*
Y015292D01*
D02*
G37*
G36*
X011056Y015203D02*
X010664D01*
X010272D01*
X010279Y01515D01*
X010319Y015054D01*
X010382Y014971D01*
X01041Y014949D01*
X010401Y0149D01*
X010396Y014899D01*
X010276Y014834D01*
X01017Y014747D01*
X010159Y014734D01*
X010109D01*
X010098Y014747D01*
X009992Y014834D01*
X009871Y014899D01*
X009866Y0149D01*
X009857Y014949D01*
X009886Y014971D01*
X009949Y015054D01*
X009989Y01515D01*
X009996Y015203D01*
X009604D01*
X009395D01*
Y015044D01*
X009369Y015065D01*
X009334Y015083D01*
X00929Y0151D01*
X009237Y015114D01*
X009233Y015115D01*
X009259Y015054D01*
X009322Y014971D01*
X00935Y014949D01*
X009341Y0149D01*
X009336Y014899D01*
X009216Y014834D01*
X00911Y014747D01*
X009023Y014641D01*
X008958Y01452D01*
X008919Y014389D01*
X008905Y014253D01*
X008919Y014117D01*
X008958Y013986D01*
X009023Y013865D01*
X00911Y013759D01*
X009216Y013672D01*
X009336Y013608D01*
X009467Y013568D01*
X009604Y013554D01*
X00974Y013568D01*
X009871Y013608D01*
X009992Y013672D01*
X010098Y013759D01*
X010109Y013772D01*
X010159D01*
X01017Y013759D01*
X010276Y013672D01*
X010396Y013608D01*
X010527Y013568D01*
X010664Y013554D01*
X0108Y013568D01*
X010931Y013608D01*
X011052Y013672D01*
X011158Y013759D01*
X011245Y013865D01*
X011309Y013986D01*
X011349Y014117D01*
X011362Y014253D01*
X011349Y014389D01*
X011309Y01452D01*
X011245Y014641D01*
X011158Y014747D01*
X011052Y014834D01*
X010931Y014899D01*
X010926Y0149D01*
X010917Y014949D01*
X010946Y014971D01*
X011009Y015054D01*
X011049Y01515D01*
X011056Y015203D01*
D02*
G37*
G36*
X022092Y0149D02*
X0217D01*
X021308D01*
X021315Y014847D01*
X021355Y014751D01*
X021418Y014668D01*
X021447Y014646D01*
X021438Y014597D01*
X021433Y014595D01*
X021312Y014531D01*
X021206Y014444D01*
X021177Y014408D01*
X021088Y014481D01*
X020967Y014545D01*
X020962Y014547D01*
X020953Y014596D01*
X020982Y014618D01*
X021045Y014701D01*
X021085Y014797D01*
X021092Y01485D01*
X0207D01*
X020308D01*
X020315Y014797D01*
X020355Y014701D01*
X020418Y014618D01*
X020447Y014596D01*
X020438Y014547D01*
X020433Y014545D01*
X020312Y014481D01*
X020206Y014394D01*
X020119Y014288D01*
X020055Y014167D01*
X020015Y014036D01*
X020001Y0139D01*
X020015Y013764D01*
X020055Y013633D01*
X020119Y013512D01*
X020206Y013406D01*
X020312Y013319D01*
X020433Y013255D01*
X020564Y013215D01*
X0207Y013201D01*
X020836Y013215D01*
X020967Y013255D01*
X021088Y013319D01*
X021194Y013406D01*
X021223Y013442D01*
X021312Y013369D01*
X021433Y013305D01*
X021564Y013265D01*
X0217Y013251D01*
X021836Y013265D01*
X021967Y013305D01*
X022088Y013369D01*
X022194Y013456D01*
X022281Y013562D01*
X022345Y013683D01*
X022385Y013814D01*
X022399Y01395D01*
X022385Y014086D01*
X022345Y014217D01*
X022281Y014338D01*
X022194Y014444D01*
X022088Y014531D01*
X021967Y014595D01*
X021962Y014597D01*
X021953Y014646D01*
X021982Y014668D01*
X022045Y014751D01*
X022085Y014847D01*
X022092Y0149D01*
D02*
G37*
G36*
X0082Y013803D02*
X008063Y01379D01*
X007931Y01375D01*
X007809Y013685D01*
X007703Y013597D01*
X007697D01*
X007591Y013685D01*
X007469Y01375D01*
X007337Y01379D01*
X0072Y013803D01*
X007063Y01379D01*
X006931Y01375D01*
X006809Y013685D01*
X006738Y013627D01*
X0067Y013599D01*
X006662Y013627D01*
X006591Y013685D01*
X006469Y01375D01*
X006337Y01379D01*
X0062Y013803D01*
X006063Y01379D01*
X005931Y01375D01*
X005809Y013685D01*
X005703Y013597D01*
X005615Y013491D01*
X005572Y01341D01*
X005611Y01337D01*
X005577Y013334D01*
X005524Y01327D01*
X005505Y013241D01*
X005491Y013214D01*
X005482Y01319D01*
X005478Y013168D01*
X00548Y013148D01*
X005486Y013131D01*
X005497Y013116D01*
X00525Y013363D01*
Y01295D01*
Y012403D01*
X005304Y01241D01*
X005402Y012451D01*
X005485Y012515D01*
X005503Y012538D01*
X005554Y012523D01*
X005615Y012409D01*
X005703Y012303D01*
X005809Y012215D01*
X005931Y01215D01*
X006063Y01211D01*
X0062Y012097D01*
X006337Y01211D01*
X006469Y01215D01*
X006591Y012215D01*
X006662Y012273D01*
X0067Y012301D01*
X006738Y012273D01*
X006809Y012215D01*
X006931Y01215D01*
X007063Y01211D01*
X0072Y012097D01*
X007337Y01211D01*
X007469Y01215D01*
X007591Y012215D01*
X007697Y012303D01*
X007703D01*
X007809Y012215D01*
X007931Y01215D01*
X008063Y01211D01*
X0082Y012097D01*
X008337Y01211D01*
X008469Y01215D01*
X008591Y012215D01*
X008697Y012303D01*
X008785Y012409D01*
X00885Y012531D01*
X00889Y012663D01*
X008903Y0128D01*
Y0131D01*
X00889Y013237D01*
X00885Y013369D01*
X008785Y013491D01*
X008697Y013597D01*
X008591Y013685D01*
X008469Y01375D01*
X008337Y01379D01*
X0082Y013803D01*
D02*
G37*
G36*
X01915Y013653D02*
X019013Y01364D01*
X018881Y0136D01*
X018759Y013535D01*
X018653Y013447D01*
X018647D01*
X018541Y013535D01*
X018419Y0136D01*
X018287Y01364D01*
X01815Y013653D01*
X018013Y01364D01*
X017881Y0136D01*
X017759Y013535D01*
X017653Y013447D01*
X017647D01*
X017541Y013535D01*
X017419Y0136D01*
X017287Y01364D01*
X01715Y013653D01*
X017013Y01364D01*
X016881Y0136D01*
X016759Y013535D01*
X016653Y013447D01*
X016565Y013341D01*
X016504Y013227D01*
X016453Y013212D01*
X016435Y013235D01*
X016352Y013299D01*
X016254Y01334D01*
X0162Y013347D01*
Y0128D01*
X01615D01*
Y01275D01*
X015747D01*
Y01265D01*
X01576Y012546D01*
X015801Y012448D01*
X01585Y012383D01*
X015842Y012331D01*
X015836Y012323D01*
X015748Y012287D01*
X015643Y012207D01*
X015191Y011754D01*
X013562D01*
X013561Y011754D01*
X013408Y011761D01*
X013296Y011773D01*
X013267Y011779D01*
X013261Y01178D01*
X013219Y011814D01*
X013102Y011877D01*
X012975Y011916D01*
X012842Y011929D01*
X01271Y011916D01*
X012582Y011877D01*
X012465Y011814D01*
X012362Y01173D01*
X012278Y011627D01*
X012215Y01151D01*
X012176Y011382D01*
X012163Y01125D01*
X012176Y011118D01*
X012215Y01099D01*
X012278Y010873D01*
X012362Y01077D01*
X012465Y010686D01*
X012582Y010623D01*
X01271Y010584D01*
X012842Y010571D01*
X012975Y010584D01*
X013102Y010623D01*
X013219Y010686D01*
X013261Y01072D01*
X013267Y010721D01*
X013289Y010725D01*
X013567Y010746D01*
X0154D01*
X015531Y010763D01*
X015652Y010813D01*
X015757Y010893D01*
X016134Y011271D01*
X016162Y011258D01*
X016179Y011246D01*
X016192Y011118D01*
X016231Y01099D01*
X016293Y010873D01*
X016378Y01077D01*
X016481Y010686D01*
X016598Y010623D01*
X016725Y010584D01*
X016858Y010571D01*
X01699Y010584D01*
X017118Y010623D01*
X017235Y010686D01*
X017338Y01077D01*
X017365Y010803D01*
X017414Y010798D01*
X017428Y010773D01*
X017512Y01067D01*
X017615Y010586D01*
X017732Y010523D01*
X01786Y010484D01*
X017992Y010471D01*
X018125Y010484D01*
X018252Y010523D01*
X018369Y010586D01*
X018472Y01067D01*
X018557Y010773D01*
X018619Y01089D01*
X018658Y011018D01*
X018671Y01115D01*
X018658Y011282D01*
X018619Y01141D01*
X018613Y011422D01*
X018707Y011493D01*
X019161Y011948D01*
X019287Y01196D01*
X019419Y012D01*
X019541Y012065D01*
X019647Y012153D01*
X019735Y012259D01*
X0198Y012381D01*
X01984Y012513D01*
X019853Y01265D01*
Y01295D01*
X01984Y013087D01*
X0198Y013219D01*
X019735Y013341D01*
X019647Y013447D01*
X019541Y013535D01*
X019419Y0136D01*
X019287Y01364D01*
X01915Y013653D01*
D02*
G37*
G36*
X00525Y013497D02*
Y013379D01*
X005268Y013378D01*
X00529Y013382D01*
X005314Y013391D01*
X005341Y013405D01*
X00537Y013424D01*
X005401Y013448D01*
X005402Y013449D01*
X005402Y013449D01*
X005304Y01349D01*
X00525Y013497D01*
D02*
G37*
G36*
X00515D02*
X005096Y01349D01*
X004998Y013449D01*
X004915Y013385D01*
X004851Y013302D01*
X00481Y013204D01*
X004797Y0131D01*
Y013D01*
X00515D01*
Y013497D01*
D02*
G37*
G36*
X0161Y013347D02*
X016046Y01334D01*
X015948Y013299D01*
X015865Y013235D01*
X015801Y013152D01*
X01576Y013054D01*
X015747Y01295D01*
Y01285D01*
X0161D01*
Y013347D01*
D02*
G37*
G36*
X00515Y0129D02*
X004797D01*
Y0128D01*
X00481Y012696D01*
X004851Y012598D01*
X004915Y012515D01*
X004998Y012451D01*
X005096Y01241D01*
X00515Y012403D01*
Y0129D01*
D02*
G37*
G36*
X023Y013421D02*
X022868Y013408D01*
X02274Y013369D01*
X022623Y013307D01*
X02252Y013222D01*
X022436Y013119D01*
X022373Y013002D01*
X022334Y012875D01*
X022321Y012742D01*
X022334Y01261D01*
X022373Y012482D01*
X022436Y012365D01*
X02252Y012262D01*
X022623Y012178D01*
X02274Y012115D01*
X022868Y012076D01*
X023Y012063D01*
X023132Y012076D01*
X02326Y012115D01*
X023377Y012178D01*
X02348Y012262D01*
X023564Y012365D01*
X023627Y012482D01*
X023666Y01261D01*
X023679Y012742D01*
X023666Y012875D01*
X023627Y013002D01*
X023564Y013119D01*
X02348Y013222D01*
X023377Y013307D01*
X02326Y013369D01*
X023132Y013408D01*
X023Y013421D01*
D02*
G37*
G36*
X007142Y011979D02*
X00701Y011966D01*
X006882Y011927D01*
X006765Y011864D01*
X006699Y01181D01*
X006668Y011827D01*
X00654Y011866D01*
X006408Y011879D01*
X006275Y011866D01*
X006148Y011827D01*
X006031Y011764D01*
X005928Y01168D01*
X005843Y011577D01*
X005781Y01146D01*
X005742Y011332D01*
X005729Y0112D01*
X005742Y011068D01*
X005781Y01094D01*
X005843Y010823D01*
X005928Y01072D01*
X006031Y010636D01*
X006148Y010573D01*
X006275Y010534D01*
X006408Y010521D01*
X00654Y010534D01*
X006668Y010573D01*
X006785Y010636D01*
X006851Y01069D01*
X006882Y010673D01*
X00701Y010634D01*
X007142Y010621D01*
X007275Y010634D01*
X007402Y010673D01*
X007519Y010736D01*
X007622Y01082D01*
X007707Y010923D01*
X007769Y01104D01*
X007808Y011168D01*
X007821Y0113D01*
X007808Y011432D01*
X007769Y01156D01*
X007707Y011677D01*
X007622Y01178D01*
X007519Y011864D01*
X007402Y011927D01*
X007275Y011966D01*
X007142Y011979D01*
D02*
G37*
G36*
X0121Y013121D02*
X011968Y013108D01*
X01184Y013069D01*
X011723Y013007D01*
X01162Y012922D01*
X011536Y012819D01*
X011473Y012702D01*
X011434Y012575D01*
X011421Y012442D01*
X011434Y01231D01*
X011473Y012182D01*
X011536Y012065D01*
X01162Y011962D01*
X011723Y011878D01*
X01184Y011815D01*
X011968Y011776D01*
X0121Y011763D01*
X012232Y011776D01*
X01236Y011815D01*
X012477Y011878D01*
X01258Y011962D01*
X012664Y012065D01*
X012727Y012182D01*
X012766Y01231D01*
X012779Y012442D01*
X012766Y012575D01*
X012727Y012702D01*
X012664Y012819D01*
X01258Y012922D01*
X012477Y013007D01*
X01236Y013069D01*
X012232Y013108D01*
X0121Y013121D01*
D02*
G37*
G36*
X011208Y011672D02*
Y01135D01*
X01153D01*
X011524Y011398D01*
X011486Y011489D01*
X011426Y011568D01*
X011347Y011628D01*
X011256Y011666D01*
X011208Y011672D01*
D02*
G37*
G36*
X011108D02*
X01106Y011666D01*
X010968Y011628D01*
X01089Y011568D01*
X01083Y011489D01*
X010792Y011398D01*
X010786Y01135D01*
X011108D01*
Y011672D01*
D02*
G37*
G36*
X022058Y011522D02*
Y0112D01*
X02238D01*
X022374Y011248D01*
X022336Y011339D01*
X022276Y011418D01*
X022197Y011478D01*
X022106Y011516D01*
X022058Y011522D01*
D02*
G37*
G36*
X021958D02*
X02191Y011516D01*
X021818Y011478D01*
X02174Y011418D01*
X02168Y011339D01*
X021642Y011248D01*
X021636Y0112D01*
X021958D01*
Y011522D01*
D02*
G37*
G36*
X0286Y011498D02*
X028526Y011488D01*
X02841Y01144D01*
X028311Y011364D01*
X028235Y011265D01*
X028187Y011149D01*
X028171Y011025D01*
Y011D01*
X0286D01*
Y011498D01*
D02*
G37*
G36*
X01153Y01125D02*
X011208D01*
Y010928D01*
X011256Y010934D01*
X011347Y010972D01*
X011426Y011032D01*
X011486Y011111D01*
X011524Y011202D01*
X01153Y01125D01*
D02*
G37*
G36*
X011108D02*
X010786D01*
X010792Y011202D01*
X01083Y011111D01*
X01089Y011032D01*
X010968Y010972D01*
X01106Y010934D01*
X011108Y010928D01*
Y01125D01*
D02*
G37*
G36*
X02238Y0111D02*
X022058D01*
Y010778D01*
X022106Y010784D01*
X022197Y010822D01*
X022276Y010882D01*
X022336Y010961D01*
X022374Y011052D01*
X02238Y0111D01*
D02*
G37*
G36*
X021958D02*
X021636D01*
X021642Y011052D01*
X02168Y010961D01*
X02174Y010882D01*
X021818Y010822D01*
X02191Y010784D01*
X021958Y010778D01*
Y0111D01*
D02*
G37*
G36*
X002392Y011879D02*
X00226Y011866D01*
X002132Y011827D01*
X002015Y011764D01*
X001912Y01168D01*
X001828Y011577D01*
X001765Y01146D01*
X001726Y011332D01*
X001713Y0112D01*
X001726Y011068D01*
X001765Y01094D01*
X001828Y010823D01*
X001912Y01072D01*
X002015Y010636D01*
X002132Y010573D01*
X00226Y010534D01*
X002392Y010521D01*
X002525Y010534D01*
X002652Y010573D01*
X002769Y010636D01*
X002872Y01072D01*
X002957Y010823D01*
X003019Y01094D01*
X003058Y011068D01*
X003071Y0112D01*
X003058Y011332D01*
X003019Y01146D01*
X002957Y011577D01*
X002872Y01168D01*
X002769Y011764D01*
X002652Y011827D01*
X002525Y011866D01*
X002392Y011879D01*
D02*
G37*
G36*
X0412Y0109D02*
X040771D01*
Y010875D01*
X040787Y010751D01*
X040835Y010635D01*
X040911Y010536D01*
X04101Y01046D01*
X041126Y010412D01*
X0412Y010402D01*
Y0109D01*
D02*
G37*
G36*
X037D02*
X036571D01*
Y010875D01*
X036587Y010751D01*
X036635Y010635D01*
X036711Y010536D01*
X03681Y01046D01*
X036926Y010412D01*
X037Y010402D01*
Y0109D01*
D02*
G37*
G36*
X0328D02*
X032371D01*
Y010875D01*
X032387Y010751D01*
X032435Y010635D01*
X032511Y010536D01*
X03261Y01046D01*
X032726Y010412D01*
X0328Y010402D01*
Y0109D01*
D02*
G37*
G36*
X0286D02*
X028171D01*
Y010875D01*
X028187Y010751D01*
X028235Y010635D01*
X028311Y010536D01*
X02841Y01046D01*
X028526Y010412D01*
X0286Y010402D01*
Y0109D01*
D02*
G37*
G36*
X008908Y010329D02*
X008775Y010316D01*
X008648Y010277D01*
X008531Y010214D01*
X008428Y01013D01*
X008343Y010027D01*
X008281Y00991D01*
X008242Y009782D01*
X008229Y00965D01*
X008242Y009518D01*
X008281Y00939D01*
X008343Y009273D01*
X008428Y00917D01*
X008531Y009086D01*
X008648Y009023D01*
X008775Y008984D01*
X008908Y008971D01*
X00904Y008984D01*
X009168Y009023D01*
X009285Y009086D01*
X009388Y00917D01*
X009472Y009273D01*
X009535Y00939D01*
X009574Y009518D01*
X009587Y00965D01*
X009574Y009782D01*
X009535Y00991D01*
X009472Y010027D01*
X009388Y01013D01*
X009285Y010214D01*
X009168Y010277D01*
X00904Y010316D01*
X008908Y010329D01*
D02*
G37*
G36*
X004892D02*
X00476Y010316D01*
X004632Y010277D01*
X004515Y010214D01*
X004412Y01013D01*
X004328Y010027D01*
X004265Y00991D01*
X004226Y009782D01*
X004213Y00965D01*
X004226Y009518D01*
X004265Y00939D01*
X004328Y009273D01*
X004412Y00917D01*
X004515Y009086D01*
X004632Y009023D01*
X00476Y008984D01*
X004892Y008971D01*
X005025Y008984D01*
X005152Y009023D01*
X005269Y009086D01*
X005372Y00917D01*
X005457Y009273D01*
X005519Y00939D01*
X005558Y009518D01*
X005571Y00965D01*
X005558Y009782D01*
X005519Y00991D01*
X005457Y010027D01*
X005372Y01013D01*
X005269Y010214D01*
X005152Y010277D01*
X005025Y010316D01*
X004892Y010329D01*
D02*
G37*
G36*
X019308Y010079D02*
X019175Y010066D01*
X019048Y010027D01*
X018931Y009964D01*
X018828Y00988D01*
X018743Y009777D01*
X018681Y00966D01*
X018642Y009532D01*
X018629Y0094D01*
X018642Y009268D01*
X018681Y00914D01*
X018743Y009023D01*
X018828Y00892D01*
X018931Y008836D01*
X019048Y008773D01*
X019175Y008734D01*
X019308Y008721D01*
X01944Y008734D01*
X019568Y008773D01*
X019685Y008836D01*
X019788Y00892D01*
X019872Y009023D01*
X019935Y00914D01*
X019974Y009268D01*
X019987Y0094D01*
X019974Y009532D01*
X019935Y00966D01*
X019872Y009777D01*
X019788Y00988D01*
X019685Y009964D01*
X019568Y010027D01*
X01944Y010066D01*
X019308Y010079D01*
D02*
G37*
G36*
X015292D02*
X01516Y010066D01*
X015032Y010027D01*
X014915Y009964D01*
X014812Y00988D01*
X014728Y009777D01*
X014665Y00966D01*
X014626Y009532D01*
X014613Y0094D01*
X014626Y009268D01*
X014665Y00914D01*
X014728Y009023D01*
X014812Y00892D01*
X014915Y008836D01*
X015032Y008773D01*
X01516Y008734D01*
X015292Y008721D01*
X015425Y008734D01*
X015552Y008773D01*
X015669Y008836D01*
X015772Y00892D01*
X015857Y009023D01*
X015919Y00914D01*
X015958Y009268D01*
X015971Y0094D01*
X015958Y009532D01*
X015919Y00966D01*
X015857Y009777D01*
X015772Y00988D01*
X015669Y009964D01*
X015552Y010027D01*
X015425Y010066D01*
X015292Y010079D01*
D02*
G37*
G36*
X024592Y007642D02*
X02405D01*
Y0071D01*
X024592D01*
Y007642D01*
D02*
G37*
G36*
X02395D02*
X023408D01*
Y0071D01*
X02395D01*
Y007642D01*
D02*
G37*
G36*
X04075Y007598D02*
Y007D01*
X041348D01*
X041341Y007077D01*
X041303Y0072D01*
X041243Y007313D01*
X041162Y007412D01*
X041063Y007493D01*
X04095Y007553D01*
X040827Y007591D01*
X04075Y007598D01*
D02*
G37*
G36*
X04065D02*
X040573Y007591D01*
X04045Y007553D01*
X040337Y007493D01*
X040238Y007412D01*
X040157Y007313D01*
X040097Y0072D01*
X040059Y007077D01*
X040052Y007D01*
X04065D01*
Y007598D01*
D02*
G37*
G36*
X036567D02*
Y007D01*
X037165D01*
X037157Y007077D01*
X03712Y0072D01*
X03706Y007313D01*
X036979Y007412D01*
X03688Y007493D01*
X036767Y007553D01*
X036644Y007591D01*
X036567Y007598D01*
D02*
G37*
G36*
X036467D02*
X036389Y007591D01*
X036267Y007553D01*
X036154Y007493D01*
X036055Y007412D01*
X035974Y007313D01*
X035913Y0072D01*
X035876Y007077D01*
X035868Y007D01*
X036467D01*
Y007598D01*
D02*
G37*
G36*
X032383D02*
Y007D01*
X032982D01*
X032974Y007077D01*
X032937Y0072D01*
X032876Y007313D01*
X032795Y007412D01*
X032696Y007493D01*
X032583Y007553D01*
X032461Y007591D01*
X032383Y007598D01*
D02*
G37*
G36*
X032283D02*
X032206Y007591D01*
X032083Y007553D01*
X03197Y007493D01*
X031871Y007412D01*
X03179Y007313D01*
X03173Y0072D01*
X031693Y007077D01*
X031685Y007D01*
X032283D01*
Y007598D01*
D02*
G37*
G36*
X0282D02*
Y007D01*
X028798D01*
X028791Y007077D01*
X028753Y0072D01*
X028693Y007313D01*
X028612Y007412D01*
X028513Y007493D01*
X0284Y007553D01*
X028277Y007591D01*
X0282Y007598D01*
D02*
G37*
G36*
X0281D02*
X028023Y007591D01*
X0279Y007553D01*
X027787Y007493D01*
X027688Y007412D01*
X027607Y007313D01*
X027547Y0072D01*
X027509Y007077D01*
X027502Y007D01*
X0281D01*
Y007598D01*
D02*
G37*
G36*
X024592Y007D02*
X02405D01*
Y006458D01*
X024592D01*
Y007D01*
D02*
G37*
G36*
X02395D02*
X023408D01*
Y006458D01*
X02395D01*
Y007D01*
D02*
G37*
G36*
X041348Y0069D02*
X04075D01*
Y006302D01*
X040827Y006309D01*
X04095Y006347D01*
X041063Y006407D01*
X041162Y006488D01*
X041243Y006587D01*
X041303Y0067D01*
X041341Y006823D01*
X041348Y0069D01*
D02*
G37*
G36*
X04065D02*
X040052D01*
X040059Y006823D01*
X040097Y0067D01*
X040157Y006587D01*
X040238Y006488D01*
X040337Y006407D01*
X04045Y006347D01*
X040573Y006309D01*
X04065Y006302D01*
Y0069D01*
D02*
G37*
G36*
X037165D02*
X036567D01*
Y006302D01*
X036644Y006309D01*
X036767Y006347D01*
X03688Y006407D01*
X036979Y006488D01*
X03706Y006587D01*
X03712Y0067D01*
X037157Y006823D01*
X037165Y0069D01*
D02*
G37*
G36*
X036467D02*
X035868D01*
X035876Y006823D01*
X035913Y0067D01*
X035974Y006587D01*
X036055Y006488D01*
X036154Y006407D01*
X036267Y006347D01*
X036389Y006309D01*
X036467Y006302D01*
Y0069D01*
D02*
G37*
G36*
X032982D02*
X032383D01*
Y006302D01*
X032461Y006309D01*
X032583Y006347D01*
X032696Y006407D01*
X032795Y006488D01*
X032876Y006587D01*
X032937Y0067D01*
X032974Y006823D01*
X032982Y0069D01*
D02*
G37*
G36*
X032283D02*
X031685D01*
X031693Y006823D01*
X03173Y0067D01*
X03179Y006587D01*
X031871Y006488D01*
X03197Y006407D01*
X032083Y006347D01*
X032206Y006309D01*
X032283Y006302D01*
Y0069D01*
D02*
G37*
G36*
X028798D02*
X0282D01*
Y006302D01*
X028277Y006309D01*
X0284Y006347D01*
X028513Y006407D01*
X028612Y006488D01*
X028693Y006587D01*
X028753Y0067D01*
X028791Y006823D01*
X028798Y0069D01*
D02*
G37*
G36*
X0281D02*
X027502D01*
X027509Y006823D01*
X027547Y0067D01*
X027607Y006587D01*
X027688Y006488D01*
X027787Y006407D01*
X0279Y006347D01*
X028023Y006309D01*
X0281Y006302D01*
Y0069D01*
D02*
G37*
G36*
X0728Y008939D02*
X072583Y008921D01*
X072371Y008871D01*
X07217Y008787D01*
X071984Y008673D01*
X071818Y008532D01*
X071677Y008366D01*
X071563Y00818D01*
X071479Y007979D01*
X071429Y007767D01*
X071411Y00755D01*
X071429Y007333D01*
X071479Y007121D01*
X071563Y00692D01*
X071677Y006734D01*
X071818Y006568D01*
X071984Y006427D01*
X07217Y006313D01*
X072371Y006229D01*
X072583Y006179D01*
X0728Y006161D01*
X073017Y006179D01*
X073229Y006229D01*
X07343Y006313D01*
X073616Y006427D01*
X073782Y006568D01*
X073923Y006734D01*
X074037Y00692D01*
X074121Y007121D01*
X074171Y007333D01*
X074189Y00755D01*
X074171Y007767D01*
X074121Y007979D01*
X074037Y00818D01*
X073923Y008366D01*
X073782Y008532D01*
X073616Y008673D01*
X07343Y008787D01*
X073229Y008871D01*
X073017Y008921D01*
X0728Y008939D01*
D02*
G37*
G36*
X0023D02*
X002083Y008921D01*
X001871Y008871D01*
X00167Y008787D01*
X001484Y008673D01*
X001318Y008532D01*
X001177Y008366D01*
X001063Y00818D01*
X000979Y007979D01*
X000929Y007767D01*
X000911Y00755D01*
X000929Y007333D01*
X000979Y007121D01*
X001063Y00692D01*
X001177Y006734D01*
X001318Y006568D01*
X001484Y006427D01*
X00167Y006313D01*
X001871Y006229D01*
X002083Y006179D01*
X0023Y006161D01*
X002517Y006179D01*
X002729Y006229D01*
X00293Y006313D01*
X003116Y006427D01*
X003282Y006568D01*
X003423Y006734D01*
X003537Y00692D01*
X003621Y007121D01*
X003671Y007333D01*
X003689Y00755D01*
X003671Y007767D01*
X003621Y007979D01*
X003537Y00818D01*
X003423Y008366D01*
X003282Y008532D01*
X003116Y008673D01*
X00293Y008787D01*
X002729Y008871D01*
X002517Y008921D01*
X0023Y008939D01*
D02*
G37*
G36*
X026887Y007942D02*
X025103D01*
Y006158D01*
X026887D01*
Y007942D01*
D02*
G37*
G36*
X022892D02*
X021108D01*
Y006158D01*
X022892D01*
Y007942D01*
D02*
G37*
G36*
X0079Y007955D02*
X007714Y007936D01*
X007535Y007882D01*
X00737Y007794D01*
X007225Y007675D01*
X007106Y00753D01*
X007018Y007365D01*
X006964Y007186D01*
X006945Y007D01*
X006964Y006814D01*
X007018Y006635D01*
X007106Y00647D01*
X007225Y006325D01*
X00737Y006206D01*
X007535Y006118D01*
X007714Y006064D01*
X0079Y006045D01*
X008086Y006064D01*
X008265Y006118D01*
X00843Y006206D01*
X008575Y006325D01*
X008694Y00647D01*
X008782Y006635D01*
X008836Y006814D01*
X008855Y007D01*
X008836Y007186D01*
X008782Y007365D01*
X008694Y00753D01*
X008575Y007675D01*
X00843Y007794D01*
X008265Y007882D01*
X008086Y007936D01*
X0079Y007955D01*
D02*
G37*
G36*
X0059D02*
X005714Y007936D01*
X005535Y007882D01*
X00537Y007794D01*
X005225Y007675D01*
X005106Y00753D01*
X005018Y007365D01*
X004964Y007186D01*
X004945Y007D01*
X004964Y006814D01*
X005018Y006635D01*
X005106Y00647D01*
X005225Y006325D01*
X00537Y006206D01*
X005535Y006118D01*
X005714Y006064D01*
X0059Y006045D01*
X006086Y006064D01*
X006265Y006118D01*
X00643Y006206D01*
X006575Y006325D01*
X006694Y00647D01*
X006782Y006635D01*
X006836Y006814D01*
X006855Y007D01*
X006836Y007186D01*
X006782Y007365D01*
X006694Y00753D01*
X006575Y007675D01*
X00643Y007794D01*
X006265Y007882D01*
X006086Y007936D01*
X0059Y007955D01*
D02*
G37*
G36*
X0427Y007905D02*
X042514Y007886D01*
X042335Y007832D01*
X04217Y007744D01*
X042025Y007625D01*
X041906Y00748D01*
X041818Y007315D01*
X041764Y007136D01*
X041745Y00695D01*
X041764Y006764D01*
X041818Y006585D01*
X041906Y00642D01*
X042025Y006275D01*
X04217Y006156D01*
X042335Y006068D01*
X042514Y006014D01*
X0427Y005995D01*
X042886Y006014D01*
X043065Y006068D01*
X04323Y006156D01*
X043375Y006275D01*
X043494Y00642D01*
X043582Y006585D01*
X043636Y006764D01*
X043655Y00695D01*
X043636Y007136D01*
X043582Y007315D01*
X043494Y00748D01*
X043375Y007625D01*
X04323Y007744D01*
X043065Y007832D01*
X042886Y007886D01*
X0427Y007905D01*
D02*
G37*
G36*
X038517D02*
X03833Y007886D01*
X038151Y007832D01*
X037986Y007744D01*
X037842Y007625D01*
X037723Y00748D01*
X037635Y007315D01*
X03758Y007136D01*
X037562Y00695D01*
X03758Y006764D01*
X037635Y006585D01*
X037723Y00642D01*
X037842Y006275D01*
X037986Y006156D01*
X038151Y006068D01*
X03833Y006014D01*
X038517Y005995D01*
X038703Y006014D01*
X038882Y006068D01*
X039047Y006156D01*
X039192Y006275D01*
X03931Y00642D01*
X039399Y006585D01*
X039453Y006764D01*
X039471Y00695D01*
X039453Y007136D01*
X039399Y007315D01*
X03931Y00748D01*
X039192Y007625D01*
X039047Y007744D01*
X038882Y007832D01*
X038703Y007886D01*
X038517Y007905D01*
D02*
G37*
G36*
X034333D02*
X034147Y007886D01*
X033968Y007832D01*
X033803Y007744D01*
X033658Y007625D01*
X03354Y00748D01*
X033451Y007315D01*
X033397Y007136D01*
X033379Y00695D01*
X033397Y006764D01*
X033451Y006585D01*
X03354Y00642D01*
X033658Y006275D01*
X033803Y006156D01*
X033968Y006068D01*
X034147Y006014D01*
X034333Y005995D01*
X03452Y006014D01*
X034699Y006068D01*
X034864Y006156D01*
X035008Y006275D01*
X035127Y00642D01*
X035215Y006585D01*
X03527Y006764D01*
X035288Y00695D01*
X03527Y007136D01*
X035215Y007315D01*
X035127Y00748D01*
X035008Y007625D01*
X034864Y007744D01*
X034699Y007832D01*
X03452Y007886D01*
X034333Y007905D01*
D02*
G37*
G36*
X03015D02*
X029964Y007886D01*
X029785Y007832D01*
X02962Y007744D01*
X029475Y007625D01*
X029356Y00748D01*
X029268Y007315D01*
X029214Y007136D01*
X029195Y00695D01*
X029214Y006764D01*
X029268Y006585D01*
X029356Y00642D01*
X029475Y006275D01*
X02962Y006156D01*
X029785Y006068D01*
X029964Y006014D01*
X03015Y005995D01*
X030336Y006014D01*
X030515Y006068D01*
X03068Y006156D01*
X030825Y006275D01*
X030944Y00642D01*
X031032Y006585D01*
X031086Y006764D01*
X031105Y00695D01*
X031086Y007136D01*
X031032Y007315D01*
X030944Y00748D01*
X030825Y007625D01*
X03068Y007744D01*
X030515Y007832D01*
X030336Y007886D01*
X03015Y007905D01*
D02*
G37*
G36*
X0182Y007755D02*
X018014Y007736D01*
X017835Y007682D01*
X01767Y007594D01*
X017525Y007475D01*
X017406Y00733D01*
X017318Y007165D01*
X017264Y006986D01*
X017245Y0068D01*
X017264Y006614D01*
X017318Y006435D01*
X017406Y00627D01*
X017525Y006125D01*
X01767Y006006D01*
X017835Y005918D01*
X018014Y005864D01*
X0182Y005845D01*
X018386Y005864D01*
X018565Y005918D01*
X01873Y006006D01*
X018875Y006125D01*
X018994Y00627D01*
X019082Y006435D01*
X019136Y006614D01*
X019155Y0068D01*
X019136Y006986D01*
X019082Y007165D01*
X018994Y00733D01*
X018875Y007475D01*
X01873Y007594D01*
X018565Y007682D01*
X018386Y007736D01*
X0182Y007755D01*
D02*
G37*
G36*
X0162D02*
X016014Y007736D01*
X015835Y007682D01*
X01567Y007594D01*
X015525Y007475D01*
X015406Y00733D01*
X015318Y007165D01*
X015264Y006986D01*
X015245Y0068D01*
X015264Y006614D01*
X015318Y006435D01*
X015406Y00627D01*
X015525Y006125D01*
X01567Y006006D01*
X015835Y005918D01*
X016014Y005864D01*
X0162Y005845D01*
X016386Y005864D01*
X016565Y005918D01*
X01673Y006006D01*
X016875Y006125D01*
X016994Y00627D01*
X017082Y006435D01*
X017136Y006614D01*
X017155Y0068D01*
X017136Y006986D01*
X017082Y007165D01*
X016994Y00733D01*
X016875Y007475D01*
X01673Y007594D01*
X016565Y007682D01*
X016386Y007736D01*
X0162Y007755D01*
D02*
G37*
%LPD*%
G36*
X007298Y021972D02*
X00729Y021949D01*
X007283Y021917D01*
X007277Y021876D01*
X007268Y021767D01*
X007261Y02154D01*
X00726Y021446D01*
X00706Y021411D01*
X007059Y0215D01*
X007043Y021721D01*
X007033Y021781D01*
X007022Y021833D01*
X007008Y021877D01*
X006992Y021915D01*
X006973Y021945D01*
X006953Y021968D01*
X007307Y021987D01*
X007298Y021972D01*
D02*
G37*
G36*
X007261Y018045D02*
X007269Y017963D01*
X007276Y01793D01*
X007285Y017903D01*
X007296Y017882D01*
X007309Y017866D01*
X007324Y017856D01*
X007341Y017851D01*
X00736Y017852D01*
X006961Y017778D01*
X00698Y017784D01*
X006997Y017795D01*
X007012Y017812D01*
X007025Y017833D01*
X007035Y017859D01*
X007044Y01789D01*
X007051Y017926D01*
X007056Y017967D01*
X007059Y018013D01*
X00706Y018064D01*
X00726Y018094D01*
X007261Y018045D01*
D02*
G37*
G36*
X019134Y012353D02*
X019119Y012364D01*
X019102Y01237D01*
X019082Y012372D01*
X01906Y012368D01*
X019036Y012359D01*
X019009Y012345D01*
X01898Y012326D01*
X018949Y012302D01*
X018916Y012273D01*
X01888Y012239D01*
X018739Y01238D01*
X018773Y012416D01*
X018826Y01248D01*
X018845Y012509D01*
X018859Y012536D01*
X018868Y01256D01*
X018872Y012582D01*
X01887Y012602D01*
X018864Y012619D01*
X018853Y012634D01*
X019134Y012353D01*
D02*
G37*
G36*
X01306Y011427D02*
X013092Y011411D01*
X013132Y011397D01*
X013181Y011384D01*
X013238Y011374D01*
X013377Y011359D01*
X013551Y011351D01*
X01365Y01135D01*
Y01115D01*
X013551Y011149D01*
X013238Y011126D01*
X013181Y011116D01*
X013132Y011103D01*
X013092Y011089D01*
X01306Y011073D01*
X013037Y011055D01*
Y011445D01*
X01306Y011427D01*
D02*
G37*
%LPC*%
G36*
X05275Y024548D02*
Y0241D01*
X053198D01*
X053187Y024181D01*
X053137Y024302D01*
X053057Y024407D01*
X052952Y024487D01*
X052831Y024537D01*
X05275Y024548D01*
D02*
G37*
G36*
X053198Y024D02*
X05275D01*
Y023552D01*
X052831Y023563D01*
X052952Y023613D01*
X053057Y023693D01*
X053137Y023798D01*
X053187Y023919D01*
X053198Y024D01*
D02*
G37*
G36*
X056327Y022368D02*
X056191Y022355D01*
X05606Y022315D01*
X055939Y022251D01*
X055833Y022164D01*
X055746Y022058D01*
X055682Y021937D01*
X055642Y021806D01*
X055629Y02167D01*
X055642Y021533D01*
X055682Y021402D01*
X055746Y021282D01*
X055833Y021176D01*
X055939Y021089D01*
X05606Y021024D01*
X056191Y020984D01*
X056327Y020971D01*
X056464Y020984D01*
X056595Y021024D01*
X056715Y021089D01*
X056821Y021176D01*
X056908Y021282D01*
X056973Y021402D01*
X057012Y021533D01*
X057026Y02167D01*
X057012Y021806D01*
X056973Y021937D01*
X056908Y022058D01*
X056821Y022164D01*
X056715Y022251D01*
X056595Y022315D01*
X056464Y022355D01*
X056327Y022368D01*
D02*
G37*
G36*
X04695Y031103D02*
X046823Y031091D01*
X0467Y031053D01*
X046587Y030993D01*
X046488Y030912D01*
X046407Y030813D01*
X046347Y0307D01*
X046309Y030577D01*
X046297Y03045D01*
X046309Y030323D01*
X046347Y0302D01*
X046407Y030087D01*
X046488Y029988D01*
X046587Y029907D01*
X0467Y029847D01*
X046823Y029809D01*
X046855Y029806D01*
X046864Y0298D01*
X047053Y029634D01*
X049341Y027346D01*
X049321Y0273D01*
X0493D01*
Y0257D01*
X0509D01*
Y0273D01*
X050604D01*
X050587Y027431D01*
X050537Y027552D01*
X050457Y027657D01*
X047762Y030352D01*
X047669Y030452D01*
X047604Y03053D01*
X047594Y030545D01*
X047591Y030577D01*
X047553Y0307D01*
X047493Y030813D01*
X047412Y030912D01*
X047313Y030993D01*
X0472Y031053D01*
X047077Y031091D01*
X04695Y031103D01*
D02*
G37*
G36*
X04665Y024198D02*
Y02375D01*
X047098D01*
X047087Y023831D01*
X047037Y023952D01*
X046957Y024057D01*
X046852Y024137D01*
X046731Y024187D01*
X04665Y024198D01*
D02*
G37*
G36*
X04655D02*
X046469Y024187D01*
X046348Y024137D01*
X046243Y024057D01*
X046163Y023952D01*
X046113Y023831D01*
X046102Y02375D01*
X04655D01*
Y024198D01*
D02*
G37*
G36*
X047098Y02365D02*
X04665D01*
Y023202D01*
X046731Y023213D01*
X046852Y023263D01*
X046957Y023343D01*
X047037Y023448D01*
X047087Y023569D01*
X047098Y02365D01*
D02*
G37*
G36*
X04655D02*
X046102D01*
X046113Y023569D01*
X046163Y023448D01*
X046243Y023343D01*
X046348Y023263D01*
X046469Y023213D01*
X04655Y023202D01*
Y02365D01*
D02*
G37*
G36*
X049941Y022318D02*
X049805Y022305D01*
X049674Y022265D01*
X049553Y022201D01*
X049447Y022114D01*
X04936Y022008D01*
X049295Y021887D01*
X049256Y021756D01*
X049242Y02162D01*
X049256Y021483D01*
X049295Y021352D01*
X04936Y021232D01*
X049447Y021126D01*
X049553Y021039D01*
X049674Y020974D01*
X049805Y020934D01*
X049941Y020921D01*
X050077Y020934D01*
X050208Y020974D01*
X050329Y021039D01*
X050435Y021126D01*
X050522Y021232D01*
X050586Y021352D01*
X050626Y021483D01*
X05064Y02162D01*
X050626Y021756D01*
X050586Y021887D01*
X050522Y022008D01*
X050435Y022114D01*
X050329Y022201D01*
X050208Y022265D01*
X050077Y022305D01*
X049941Y022318D01*
D02*
G37*
%LPD*%
G36*
X047203Y030426D02*
X047213Y030398D01*
X04723Y030364D01*
X047254Y030327D01*
X047284Y030285D01*
X047365Y030186D01*
X047472Y03007D01*
X047536Y030005D01*
X047395Y029864D01*
X04733Y029928D01*
X047116Y030116D01*
X047073Y030146D01*
X047036Y03017D01*
X047002Y030187D01*
X046974Y030197D01*
X04695Y0302D01*
X0472Y03045D01*
X047203Y030426D01*
D02*
G37*
G36*
X050201Y027061D02*
X050204Y027026D01*
X050209Y026996D01*
X050216Y02697D01*
X050225Y026948D01*
X050236Y02693D01*
X050249Y026916D01*
X050264Y026906D01*
X050281Y0269D01*
X0503Y026898D01*
X0499D01*
X049919Y0269D01*
X049936Y026906D01*
X049951Y026916D01*
X049964Y02693D01*
X049975Y026948D01*
X049984Y02697D01*
X049991Y026996D01*
X049996Y027026D01*
X049999Y027061D01*
X05Y027099D01*
X0502D01*
X050201Y027061D01*
D02*
G37*
%LPC*%
G36*
X05935Y024598D02*
Y02415D01*
X059798D01*
X059787Y024231D01*
X059737Y024352D01*
X059657Y024457D01*
X059552Y024537D01*
X059431Y024587D01*
X05935Y024598D01*
D02*
G37*
G36*
X05925D02*
X059169Y024587D01*
X059048Y024537D01*
X058943Y024457D01*
X058863Y024352D01*
X058813Y024231D01*
X058802Y02415D01*
X05925D01*
Y024598D01*
D02*
G37*
G36*
X059798Y02405D02*
X05935D01*
Y023602D01*
X059431Y023613D01*
X059552Y023663D01*
X059657Y023743D01*
X059737Y023848D01*
X059787Y023969D01*
X059798Y02405D01*
D02*
G37*
G36*
X062864Y022618D02*
X062727Y022605D01*
X062596Y022565D01*
X062475Y022501D01*
X06237Y022414D01*
X062283Y022308D01*
X062218Y022187D01*
X062178Y022056D01*
X062165Y02192D01*
X062178Y021783D01*
X062218Y021652D01*
X062283Y021532D01*
X06237Y021426D01*
X062475Y021339D01*
X062596Y021274D01*
X062727Y021234D01*
X062864Y021221D01*
X063Y021234D01*
X063131Y021274D01*
X063252Y021339D01*
X063358Y021426D01*
X063445Y021532D01*
X063509Y021652D01*
X063549Y021783D01*
X063562Y02192D01*
X063549Y022056D01*
X063509Y022187D01*
X063445Y022308D01*
X063358Y022414D01*
X063252Y022501D01*
X063131Y022565D01*
X063Y022605D01*
X062864Y022618D01*
D02*
G37*
G36*
Y017579D02*
X062727Y017566D01*
X062596Y017526D01*
X062475Y017461D01*
X06237Y017374D01*
X062283Y017268D01*
X062218Y017148D01*
X062178Y017017D01*
X062165Y01688D01*
X062178Y016744D01*
X062218Y016613D01*
X062283Y016492D01*
X06237Y016386D01*
X062475Y016299D01*
X062596Y016235D01*
X062727Y016195D01*
X062864Y016182D01*
X063Y016195D01*
X063131Y016235D01*
X063252Y016299D01*
X063358Y016386D01*
X063445Y016492D01*
X063509Y016613D01*
X063549Y016744D01*
X063562Y01688D01*
X063549Y017017D01*
X063509Y017148D01*
X063445Y017268D01*
X063358Y017374D01*
X063252Y017461D01*
X063131Y017526D01*
X063Y017566D01*
X062864Y017579D01*
D02*
G37*
%LPD*%
D39*
X062417Y03295D02*
X062616Y033149D01*
X0579Y0332D02*
X057917D01*
X058167Y03295D01*
X062417D01*
X05895Y03245D02*
X059001Y032501D01*
X062605D01*
X058399Y034151D02*
X058466D01*
X058666Y03395D01*
X064186D02*
X064387Y034151D01*
X0621Y0335D02*
X06465D01*
X058666Y03395D02*
X064186D01*
X06465Y0335D02*
X0648Y03365D01*
X065299Y033149D02*
X0658Y03365D01*
X062616Y033149D02*
X065299D01*
X063861Y03545D02*
X06416Y035151D01*
X056918Y035218D02*
X056954D01*
X057185Y03545D02*
X063861D01*
X056954Y035218D02*
X057185Y03545D01*
X063986Y03485D02*
X064186Y03465D01*
X059981Y03485D02*
X063986D01*
X0612Y0344D02*
X0638D01*
X064186Y03465D02*
X0648D01*
X059831Y0347D02*
X059981Y03485D01*
X05975Y0347D02*
X059831D01*
X062605Y032501D02*
X062656Y032552D01*
X0501Y0265D02*
Y0273D01*
X04695Y03045D02*
X0501Y0273D01*
X02685Y02265D02*
X02995D01*
X0254Y0241D02*
X02685Y02265D01*
X031605Y01332D02*
X0339Y011025D01*
X030605Y01193D02*
Y021842D01*
X03235Y023588D01*
X031605Y01332D02*
Y022418D01*
X03315Y023963D01*
X033595Y01553D02*
Y023984D01*
Y01553D02*
X0381Y011025D01*
X033595Y023984D02*
X03375Y024139D01*
X0297Y011025D02*
X030605Y01193D01*
X0297Y01095D02*
Y011025D01*
X03235Y023588D02*
Y03185D01*
X0201Y03425D02*
X02235Y032D01*
X0201Y03425D02*
Y03935D01*
X0317Y031106D02*
Y03895D01*
X026901Y026307D02*
X0317Y031106D01*
Y03895D02*
X0321Y03935D01*
X03315Y023963D02*
Y03245D01*
X03375Y024139D02*
Y03335D01*
X0339Y01095D02*
Y011025D01*
X024324Y027877D02*
Y034574D01*
X0211Y0342D02*
X02265Y03265D01*
X0211Y0342D02*
Y03935D01*
X0381Y01095D02*
Y011025D01*
X0221Y03415D02*
X02295Y0333D01*
X0221Y03415D02*
Y03935D01*
X0231Y0345D02*
X02355Y03405D01*
X0231Y0345D02*
Y03935D01*
X03445Y0324D02*
X0362Y03065D01*
X03445Y0324D02*
Y03405D01*
X0362Y029D02*
Y03065D01*
X0423Y01095D02*
Y011025D01*
X036605Y01672D02*
X0423Y011025D01*
X036605Y01672D02*
Y028595D01*
X0362Y029D02*
X036605Y028595D01*
X0658Y03065D02*
X066299Y030151D01*
Y024462D02*
Y030151D01*
X0659Y024062D02*
X066299Y024462D01*
X0659Y0239D02*
Y024062D01*
X066606Y01993D02*
Y021544D01*
X05325Y0349D02*
X066606Y021544D01*
X050474Y0418D02*
X05325Y039024D01*
Y0349D02*
Y039024D01*
X0527Y029217D02*
Y03915D01*
X01855Y0413D02*
X05055D01*
X0527Y03915D01*
X01955Y0408D02*
X050583D01*
X052095Y021418D02*
Y039288D01*
X050583Y0408D02*
X052095Y039288D01*
X0156Y03935D02*
X01805Y0418D01*
X050474D01*
X0166Y03935D02*
X01855Y0413D01*
X0527Y029217D02*
X058545Y023372D01*
Y021755D02*
X06007Y02023D01*
X058545Y021755D02*
Y023372D01*
X06007Y02008D02*
Y02023D01*
X0181Y03935D02*
X01955Y0408D01*
X052095Y021418D02*
X053533Y01998D01*
Y01983D02*
Y01998D01*
X039633Y04025D02*
X045495Y034388D01*
Y021582D02*
Y034388D01*
X02Y04025D02*
X039633D01*
X0191Y03935D02*
X02Y04025D01*
X045495Y021582D02*
X047147Y01993D01*
Y01978D02*
Y01993D01*
X0653Y03615D02*
X0658Y03665D01*
X0569Y03615D02*
X0653D01*
X057099Y037149D02*
X065299D01*
X0548Y03485D02*
X057099Y037149D01*
X0537Y03535D02*
X056499Y038149D01*
X065299D01*
X0658Y03865D01*
X00716Y01744D02*
X0072Y0174D01*
X00716Y01744D02*
Y022114D01*
X00712Y022154D02*
X00716Y022114D01*
X015595Y020154D02*
Y020555D01*
Y020154D02*
X016592Y019157D01*
X016693D01*
X0126Y02355D02*
Y03935D01*
Y02355D02*
X015595Y020555D01*
X016693Y019157D02*
X01675Y0191D01*
X01925Y0172D02*
Y0188D01*
X0217Y02285D02*
Y02485D01*
X020605Y020555D02*
X024899Y02485D01*
X01625Y0174D02*
X0217Y02285D01*
X024899Y02485D02*
Y034149D01*
X01925Y0188D02*
X020605Y020154D01*
X01625Y0172D02*
Y0174D01*
X020605Y020154D02*
Y020555D01*
X024324Y034574D02*
X0291Y03935D01*
X0244Y0261D02*
Y0269D01*
X0179Y0334D02*
X0244Y0269D01*
X024899Y034149D02*
X0301Y03935D01*
X0311Y035076D02*
Y03935D01*
X0264Y030376D02*
X0311Y035076D01*
X0264Y0261D02*
Y030376D01*
X0254Y0261D02*
X0259Y0256D01*
X026606D01*
X026901Y025895D02*
Y026307D01*
X026606Y0256D02*
X026901Y025895D01*
X064Y03265D02*
X0648D01*
X0633Y03195D02*
X064Y03265D01*
X064387Y034151D02*
X065301D01*
X06416Y035151D02*
X065301D01*
Y034151D02*
X0658Y03465D01*
X065299Y037149D02*
X0658Y03765D01*
X065301Y035151D02*
X0658Y03565D01*
X0658Y03365D02*
X0658D01*
X045376Y015976D02*
X048647Y019247D01*
Y023653D01*
X045376Y014703D02*
Y015976D01*
X0486Y0237D02*
X048647Y023653D01*
X0547Y021759D02*
X055033Y021426D01*
X051776Y014803D02*
Y016039D01*
X0547Y021759D02*
Y02405D01*
X055033Y019297D02*
Y021426D01*
X051776Y016039D02*
X055033Y019297D01*
X058176Y014903D02*
Y016153D01*
X06157Y019547D02*
Y021608D01*
X058176Y016153D02*
X06157Y019547D01*
X0613Y021877D02*
Y0241D01*
Y021877D02*
X06157Y021608D01*
X068106Y019397D02*
Y021464D01*
X064576Y015867D02*
X068106Y019397D01*
X0679Y02167D02*
X068106Y021464D01*
X064576Y014853D02*
Y015867D01*
X0679Y02167D02*
Y0239D01*
X0151Y01735D02*
Y02035D01*
Y01735D02*
X01525Y0172D01*
X01835Y01185D02*
X01915Y01265D01*
Y0128D01*
X016Y01185D02*
X01835D01*
X012842Y01125D02*
X0154D01*
X016Y01185D01*
X0052Y01295D02*
Y0131D01*
X007353Y015253D01*
X009604D01*
D40*
X065028Y00715D02*
D03*
X069023D02*
D03*
X067023D02*
D03*
X058569Y0072D02*
D03*
X062564D02*
D03*
X060564D02*
D03*
X05211Y0071D02*
D03*
X056105D02*
D03*
X054105D02*
D03*
X047647Y007D02*
D03*
X049647D02*
D03*
X045652D02*
D03*
X025995Y00705D02*
D03*
X022D02*
D03*
X024D02*
D03*
D41*
X0516Y01663D02*
D03*
Y02167D02*
D03*
X010664Y014253D02*
D03*
Y015253D02*
D03*
X009604Y014253D02*
D03*
Y015253D02*
D03*
X0217Y01395D02*
D03*
Y01495D02*
D03*
X0331Y03935D02*
D03*
X0321D02*
D03*
X0311D02*
D03*
X0301D02*
D03*
X0291D02*
D03*
X0281D02*
D03*
X0271D02*
D03*
X0171Y02035D02*
D03*
X0161D02*
D03*
X0151D02*
D03*
X0141D02*
D03*
X0131D02*
D03*
X0181Y03935D02*
D03*
X0191D02*
D03*
X0201D02*
D03*
X0211D02*
D03*
X0221D02*
D03*
X0231D02*
D03*
X0241D02*
D03*
X0096D02*
D03*
X0106D02*
D03*
X0116D02*
D03*
X0126D02*
D03*
X0136D02*
D03*
X0146D02*
D03*
X0156D02*
D03*
X0291Y02035D02*
D03*
X0301D02*
D03*
X0311D02*
D03*
X0321D02*
D03*
X0331D02*
D03*
X0341D02*
D03*
X0351D02*
D03*
X0201D02*
D03*
X0211D02*
D03*
X0221D02*
D03*
X0231D02*
D03*
X0241D02*
D03*
X0251D02*
D03*
X0261D02*
D03*
X0371Y02235D02*
D03*
X0381Y02335D02*
D03*
X0371D02*
D03*
X0381Y02435D02*
D03*
X0371D02*
D03*
X0381Y02535D02*
D03*
X0371D02*
D03*
X0381Y02635D02*
D03*
X0371D02*
D03*
X0381Y02735D02*
D03*
X0371D02*
D03*
X0381Y02835D02*
D03*
X0371D02*
D03*
X0381Y02935D02*
D03*
X0371D02*
D03*
X0381Y03035D02*
D03*
X0371D02*
D03*
X0381Y03135D02*
D03*
X0371D02*
D03*
X0381Y03235D02*
D03*
X0371D02*
D03*
X0381Y03335D02*
D03*
X0371D02*
D03*
X0381Y03435D02*
D03*
X0371D02*
D03*
X0381Y03535D02*
D03*
X0371D02*
D03*
X0381Y03635D02*
D03*
X0371D02*
D03*
X0381Y03735D02*
D03*
X0371D02*
D03*
X0381Y03835D02*
D03*
X0371D02*
D03*
X0381Y03935D02*
D03*
X0371D02*
D03*
X0207Y0149D02*
D03*
Y0139D02*
D03*
X045Y02175D02*
D03*
Y016711D02*
D03*
X049941Y01658D02*
D03*
Y02162D02*
D03*
X056327Y01663D02*
D03*
Y02167D02*
D03*
X05805Y02187D02*
D03*
Y01683D02*
D03*
X062864Y01688D02*
D03*
Y02192D02*
D03*
X06475Y02187D02*
D03*
Y01683D02*
D03*
X0694Y01673D02*
D03*
Y02177D02*
D03*
D42*
X0407Y00695D02*
D03*
X0427D02*
D03*
X038517D02*
D03*
X036517D02*
D03*
X034333D02*
D03*
X032333D02*
D03*
X0182Y0068D02*
D03*
X0162D02*
D03*
X0079Y007D02*
D03*
X0059D02*
D03*
X03015Y00695D02*
D03*
X02815D02*
D03*
D43*
X019308Y0094D02*
D03*
X015292D02*
D03*
X017992Y01115D02*
D03*
X022008D02*
D03*
X012842Y01125D02*
D03*
X016858D02*
D03*
X002392Y0112D02*
D03*
X006408D02*
D03*
X008908Y00965D02*
D03*
X004892D02*
D03*
X007142Y0113D02*
D03*
X011158D02*
D03*
X023Y012742D02*
D03*
Y016758D02*
D03*
X0121Y012442D02*
D03*
Y016458D02*
D03*
D44*
X0072Y0174D02*
D03*
X0062D02*
D03*
X0082D02*
D03*
X0052D02*
D03*
X01925Y0172D02*
D03*
X01625D02*
D03*
X01725D02*
D03*
X01825D02*
D03*
D45*
X0042Y0174D02*
D03*
X01525Y0172D02*
D03*
D46*
X01615Y0128D02*
D03*
X01715D02*
D03*
X01815D02*
D03*
X01915D02*
D03*
X01615Y0158D02*
D03*
X01715D02*
D03*
X01815D02*
D03*
X0052Y01295D02*
D03*
X0062D02*
D03*
X0072D02*
D03*
X0082D02*
D03*
X0052Y01595D02*
D03*
X0062D02*
D03*
X0072D02*
D03*
X053533Y01983D02*
D03*
Y01683D02*
D03*
X054533D02*
D03*
X066606Y01993D02*
D03*
Y01693D02*
D03*
X067606D02*
D03*
X06007Y02008D02*
D03*
Y01708D02*
D03*
X06107D02*
D03*
X047147Y01978D02*
D03*
Y01678D02*
D03*
X048147D02*
D03*
D47*
X01915Y0158D02*
D03*
X0082Y01595D02*
D03*
X054533Y01983D02*
D03*
X067606Y01993D02*
D03*
X06107Y02008D02*
D03*
X048147Y01978D02*
D03*
D48*
X0284Y0241D02*
D03*
D49*
X0254D02*
D03*
X0501Y0235D02*
D03*
X0527Y02405D02*
D03*
X0537Y02505D02*
D03*
X0547Y02405D02*
D03*
X05645Y02355D02*
D03*
X0593Y0241D02*
D03*
X0603Y0251D02*
D03*
X0613Y0241D02*
D03*
X06295Y0238D02*
D03*
X0659Y0239D02*
D03*
X0669Y0249D02*
D03*
X0679Y0239D02*
D03*
X06945Y023635D02*
D03*
X0466Y0237D02*
D03*
X0476Y0247D02*
D03*
X0486Y0237D02*
D03*
D50*
X0341Y03935D02*
D03*
X0181Y02035D02*
D03*
X0251Y03935D02*
D03*
X0166D02*
D03*
X0361Y02035D02*
D03*
X0271D02*
D03*
D51*
X0381Y02235D02*
D03*
D52*
X0658Y02965D02*
D03*
X0179Y0284D02*
D03*
D53*
X0658Y03065D02*
D03*
Y03165D02*
D03*
Y03265D02*
D03*
Y03365D02*
D03*
Y03465D02*
D03*
Y03565D02*
D03*
Y03665D02*
D03*
Y03765D02*
D03*
Y03865D02*
D03*
X0648D02*
D03*
Y03765D02*
D03*
Y03665D02*
D03*
Y03565D02*
D03*
Y03465D02*
D03*
Y03365D02*
D03*
Y03265D02*
D03*
Y03165D02*
D03*
Y03065D02*
D03*
Y02965D02*
D03*
X0179Y0334D02*
D03*
Y0324D02*
D03*
Y0314D02*
D03*
Y0304D02*
D03*
Y0294D02*
D03*
X0274Y0261D02*
D03*
X0264D02*
D03*
X0254D02*
D03*
X0244D02*
D03*
D54*
X054138Y015591D02*
D03*
X0565Y01D02*
D03*
X0517D02*
D03*
X0565Y014803D02*
D03*
X051776D02*
D03*
X060538Y015691D02*
D03*
X0629Y0101D02*
D03*
X0581D02*
D03*
X0629Y014903D02*
D03*
X058176D02*
D03*
X066938Y015641D02*
D03*
X0693Y01005D02*
D03*
X0645D02*
D03*
X0693Y014853D02*
D03*
X064576D02*
D03*
X045376Y014703D02*
D03*
X0501D02*
D03*
X0453Y0099D02*
D03*
X0501D02*
D03*
X047738Y015491D02*
D03*
D55*
X02865Y01095D02*
D03*
X03705D02*
D03*
X04125D02*
D03*
X03285D02*
D03*
D56*
X0297D02*
D03*
X0381D02*
D03*
X0423D02*
D03*
X0339D02*
D03*
D57*
X0284Y0261D02*
D03*
D58*
X0728Y00755D02*
D03*
X0023Y04235D02*
D03*
Y00755D02*
D03*
X0728Y04235D02*
D03*
D59*
X0501Y0265D02*
D03*
X05645Y02655D02*
D03*
X06295Y0268D02*
D03*
X06945Y026635D02*
D03*
D60*
X05895Y03245D02*
D03*
X0621Y0335D02*
D03*
X0638Y0344D02*
D03*
X0612D02*
D03*
X04695Y03045D02*
D03*
X02995Y02265D02*
D03*
X03235Y03185D02*
D03*
X02235Y032D02*
D03*
X03315Y03245D02*
D03*
X03375Y03335D02*
D03*
X024324Y027877D02*
D03*
X02265Y03265D02*
D03*
X02295Y0333D02*
D03*
X02355Y03405D02*
D03*
X03445D02*
D03*
X056918Y035218D02*
D03*
X00712Y022154D02*
D03*
X01675Y0191D02*
D03*
X0217Y02485D02*
D03*
X0633Y03195D02*
D03*
X062656Y032552D02*
D03*
X05975Y0347D02*
D03*
X0579Y0332D02*
D03*
X058399Y034151D02*
D03*
X0548Y03485D02*
D03*
X0569Y03615D02*
D03*
X0537Y03535D02*
D03*
D61*
X0381Y02035D02*
D03*
X0356Y03935D02*
D03*
X0061D02*
D03*
X0056Y02035D02*
D03*
M02*
