G04*
G04 #@! TF.GenerationSoftware,Altium Limited,Altium Designer,20.2.5 (213)*
G04*
G04 Layer_Color=65535*
%FSTAX24Y24*%
%MOIN*%
G70*
G04*
G04 #@! TF.SameCoordinates,673CB199-A7F1-4250-81FB-05A331180C63*
G04*
G04*
G04 #@! TF.FilePolarity,Positive*
G04*
G01*
G75*
%ADD10C,0.0070*%
%ADD11C,0.0100*%
%ADD12C,0.0150*%
%ADD13C,0.0050*%
%ADD14C,0.0079*%
%ADD15R,0.0200X0.1260*%
%ADD16R,0.1260X0.0200*%
G36*
X0069Y00785D02*
X00665Y0076D01*
X0068D01*
Y00735D01*
X007D01*
Y0076D01*
X00715D01*
X0069Y00785D01*
D02*
G37*
G36*
X0172Y00765D02*
X01695Y0074D01*
X0171D01*
Y00715D01*
X0173D01*
Y0074D01*
X01745D01*
X0172Y00765D01*
D02*
G37*
G36*
X02915Y0078D02*
X0289Y00755D01*
X02905D01*
Y0073D01*
X02925D01*
Y00755D01*
X0294D01*
X02915Y0078D01*
D02*
G37*
G36*
X033333D02*
X033083Y00755D01*
X033233D01*
Y0073D01*
X033433D01*
Y00755D01*
X033583D01*
X033333Y0078D01*
D02*
G37*
G36*
X037517D02*
X037267Y00755D01*
X037417D01*
Y0073D01*
X037617D01*
Y00755D01*
X037767D01*
X037517Y0078D01*
D02*
G37*
G36*
X0417D02*
X04145Y00755D01*
X0416D01*
Y0073D01*
X0418D01*
Y00755D01*
X04195D01*
X0417Y0078D01*
D02*
G37*
D10*
X04109Y007411D02*
G03*
X041152Y00735I-00039J-000461D01*
G01*
X042784Y00848D02*
G03*
X042784Y00848I-000064J0D01*
G01*
X040764Y00847D02*
G03*
X040764Y00847I-000064J0D01*
G01*
X043098Y007404D02*
G03*
X043152Y00735I-000398J-000454D01*
G01*
X038914Y007404D02*
G03*
X038968Y00735I-000398J-000454D01*
G01*
X036581Y00847D02*
G03*
X036581Y00847I-000064J0D01*
G01*
X038601Y00848D02*
G03*
X038601Y00848I-000064J0D01*
G01*
X036907Y007411D02*
G03*
X036968Y00735I-00039J-000461D01*
G01*
X034731Y007404D02*
G03*
X034785Y00735I-000398J-000454D01*
G01*
X032397Y00847D02*
G03*
X032397Y00847I-000064J0D01*
G01*
X034417Y00848D02*
G03*
X034417Y00848I-000064J0D01*
G01*
X032724Y007411D02*
G03*
X032785Y00735I-00039J-000461D01*
G01*
X018598Y007254D02*
G03*
X018652Y0072I-000398J-000454D01*
G01*
X016264Y00832D02*
G03*
X016264Y00832I-000064J0D01*
G01*
X018284Y00833D02*
G03*
X018284Y00833I-000064J0D01*
G01*
X01659Y007261D02*
G03*
X016652Y0072I-00039J-000461D01*
G01*
X008298Y007454D02*
G03*
X008352Y0074I-000398J-000454D01*
G01*
X005964Y00852D02*
G03*
X005964Y00852I-000064J0D01*
G01*
X007984Y00853D02*
G03*
X007984Y00853I-000064J0D01*
G01*
X00629Y007461D02*
G03*
X006352Y0074I-00039J-000461D01*
G01*
X019654Y0148D02*
G03*
X01965Y0138I-000017J-0005D01*
G01*
X008704Y01495D02*
G03*
X0087Y01395I-000017J-0005D01*
G01*
X053559Y014948D02*
G03*
X054719Y014938I000585J000575D01*
G01*
X054327Y012996D02*
G03*
X054327Y012996I-000178J0D01*
G01*
X053434Y010683D02*
G03*
X053434Y010683I-000178J0D01*
G01*
X054944Y010673D02*
G03*
X054944Y010673I-000178J0D01*
G01*
X059959Y015048D02*
G03*
X061119Y015038I000585J000575D01*
G01*
X060727Y013096D02*
G03*
X060727Y013096I-000178J0D01*
G01*
X059834Y010783D02*
G03*
X059834Y010783I-000178J0D01*
G01*
X061344Y010773D02*
G03*
X061344Y010773I-000178J0D01*
G01*
X066359Y014998D02*
G03*
X067519Y014988I000585J000575D01*
G01*
X067127Y013046D02*
G03*
X067127Y013046I-000178J0D01*
G01*
X066234Y010733D02*
G03*
X066234Y010733I-000178J0D01*
G01*
X067744Y010723D02*
G03*
X067744Y010723I-000178J0D01*
G01*
X030548Y007404D02*
G03*
X030602Y00735I-000398J-000454D01*
G01*
X028214Y00847D02*
G03*
X028214Y00847I-000064J0D01*
G01*
X030234Y00848D02*
G03*
X030234Y00848I-000064J0D01*
G01*
X02854Y007411D02*
G03*
X028602Y00735I-00039J-000461D01*
G01*
X055037Y01883D02*
G03*
X055033Y01783I-000017J-0005D01*
G01*
X048544Y010573D02*
G03*
X048544Y010573I-000178J0D01*
G01*
X047034Y010583D02*
G03*
X047034Y010583I-000178J0D01*
G01*
X047927Y012896D02*
G03*
X047927Y012896I-000178J0D01*
G01*
X047159Y014848D02*
G03*
X048319Y014838I000585J000575D01*
G01*
X06811Y01893D02*
G03*
X068106Y01793I-000017J-0005D01*
G01*
X061574Y01908D02*
G03*
X06157Y01808I-000017J-0005D01*
G01*
X048651Y01878D02*
G03*
X048647Y01778I-000017J-0005D01*
G01*
X04028Y00653D02*
X04113Y00738D01*
X0397Y00795D02*
X0437D01*
X0397Y00595D02*
Y00745D01*
X0437Y00595D02*
Y00846D01*
X0436D02*
X0437D01*
X0436D02*
Y00877D01*
X0397Y00745D02*
Y00895D01*
X03964Y0085D02*
Y00875D01*
X04172Y00616D02*
Y00767D01*
X04228Y00653D02*
X043125Y007375D01*
X0397Y00595D02*
X0437D01*
Y00616D02*
Y00735D01*
X0397Y00895D02*
X0437D01*
X0436Y0088D02*
X0437D01*
Y00895D01*
X039517Y0088D02*
Y00895D01*
X039417Y0088D02*
X039517D01*
X035517Y00895D02*
X039517D01*
Y00616D02*
Y00735D01*
X035517Y00595D02*
X039517D01*
X038097Y00653D02*
X038942Y007375D01*
X037537Y00616D02*
Y00767D01*
X035457Y0085D02*
Y00875D01*
X035517Y00745D02*
Y00895D01*
X039417Y00846D02*
Y00877D01*
Y00846D02*
X039517D01*
Y00595D02*
Y00846D01*
X035517Y00595D02*
Y00745D01*
Y00795D02*
X039517D01*
X036097Y00653D02*
X036947Y00738D01*
X035333Y0088D02*
Y00895D01*
X035233Y0088D02*
X035333D01*
X031333Y00895D02*
X035333D01*
Y00616D02*
Y00735D01*
X031333Y00595D02*
X035333D01*
X033913Y00653D02*
X034758Y007375D01*
X033353Y00616D02*
Y00767D01*
X031273Y0085D02*
Y00875D01*
X031333Y00745D02*
Y00895D01*
X035233Y00846D02*
Y00877D01*
Y00846D02*
X035333D01*
Y00595D02*
Y00846D01*
X031333Y00595D02*
Y00745D01*
Y00795D02*
X035333D01*
X031913Y00653D02*
X032763Y00738D01*
X0192Y00865D02*
Y0088D01*
X0191Y00865D02*
X0192D01*
X0152Y0088D02*
X0192D01*
Y00601D02*
Y0072D01*
X0152Y0058D02*
X0192D01*
X01778Y00638D02*
X018625Y007225D01*
X01722Y00601D02*
Y00752D01*
X01514Y00835D02*
Y0086D01*
X0152Y0073D02*
Y0088D01*
X0191Y00831D02*
Y00862D01*
Y00831D02*
X0192D01*
Y0058D02*
Y00831D01*
X0152Y0058D02*
Y0073D01*
Y0078D02*
X0192D01*
X01578Y00638D02*
X01663Y00723D01*
X0089Y00885D02*
Y009D01*
X0088Y00885D02*
X0089D01*
X0049Y009D02*
X0089D01*
Y00621D02*
Y0074D01*
X0049Y006D02*
X0089D01*
X00748Y00658D02*
X008325Y007425D01*
X00692Y00621D02*
Y00772D01*
X00484Y00855D02*
Y0088D01*
X0049Y0075D02*
Y009D01*
X0088Y00851D02*
Y00882D01*
Y00851D02*
X0089D01*
Y006D02*
Y00851D01*
X0049Y006D02*
Y0075D01*
Y008D02*
X0089D01*
X00548Y00658D02*
X00633Y00743D01*
X0037Y01805D02*
X0088D01*
Y01685D02*
Y01805D01*
X0037Y01685D02*
X0088D01*
X0037D02*
Y01805D01*
X0046Y01685D02*
Y01805D01*
X01965Y0148D02*
Y0163D01*
Y0123D02*
Y01379D01*
X01565Y0163D02*
X01965D01*
X01565Y0123D02*
Y0163D01*
Y0123D02*
X01965D01*
X01663Y0138D02*
Y0148D01*
X01864D01*
Y0138D02*
Y0148D01*
X01663Y0138D02*
X01864D01*
X0087Y01495D02*
Y01645D01*
Y01245D02*
Y01394D01*
X0047Y01645D02*
X0087D01*
X0047Y01245D02*
Y01645D01*
Y01245D02*
X0087D01*
X00568Y01395D02*
Y01495D01*
X00769D01*
Y01395D02*
Y01495D01*
X00568Y01395D02*
X00769D01*
X02765Y0241D02*
Y02426D01*
Y02389D02*
Y0241D01*
X02724Y02363D02*
Y0246D01*
X02765Y0241D02*
X02795D01*
X02585D02*
X02615D01*
X02765D02*
Y02471D01*
X02615D02*
X02765D01*
X02615Y02345D02*
Y02471D01*
Y02345D02*
X02765D01*
Y0241D01*
X01565Y01665D02*
Y01785D01*
X01475Y01665D02*
Y01785D01*
Y01665D02*
X01985D01*
Y01785D01*
X01475D02*
X01985D01*
X051032Y008591D02*
X057238D01*
X051032Y016225D02*
X057238D01*
X051032Y008591D02*
Y016225D01*
X057238Y008591D02*
Y016225D01*
X054729Y014948D02*
X055869D01*
X052419Y014958D02*
X053549D01*
X054149Y011155D02*
Y012798D01*
X054139Y013198D02*
Y015241D01*
X055086Y010235D02*
X055846D01*
X054826Y010495D02*
X055086Y010235D01*
X052326D02*
X052986D01*
X053256Y010505D01*
X054148Y011155D02*
X054538Y010765D01*
X057432Y008691D02*
X063638D01*
X057432Y016325D02*
X063638D01*
X057432Y008691D02*
Y016325D01*
X063638Y008691D02*
Y016325D01*
X061129Y015048D02*
X062269D01*
X058819Y015058D02*
X059949D01*
X060549Y011255D02*
Y012898D01*
X060539Y013298D02*
Y015341D01*
X061486Y010335D02*
X062246D01*
X061226Y010595D02*
X061486Y010335D01*
X058726D02*
X059386D01*
X059656Y010605D01*
X060548Y011255D02*
X060938Y010865D01*
X063832Y008641D02*
X070038D01*
X063832Y016275D02*
X070038D01*
X063832Y008641D02*
Y016275D01*
X070038Y008641D02*
Y016275D01*
X067529Y014998D02*
X068669D01*
X065219Y015008D02*
X066349D01*
X066949Y011205D02*
Y012848D01*
X066939Y013248D02*
Y015291D01*
X067886Y010285D02*
X068646D01*
X067626Y010545D02*
X067886Y010285D01*
X065126D02*
X065786D01*
X066056Y010555D01*
X066948Y011205D02*
X067338Y010815D01*
X03115Y0088D02*
Y00895D01*
X03105Y0088D02*
X03115D01*
X02715Y00895D02*
X03115D01*
Y00616D02*
Y00735D01*
X02715Y00595D02*
X03115D01*
X02973Y00653D02*
X030575Y007375D01*
X02917Y00616D02*
Y00767D01*
X02709Y0085D02*
Y00875D01*
X02715Y00745D02*
Y00895D01*
X03105Y00846D02*
Y00877D01*
Y00846D02*
X03115D01*
Y00595D02*
Y00846D01*
X02715Y00595D02*
Y00745D01*
Y00795D02*
X03115D01*
X02773Y00653D02*
X02858Y00738D01*
X0501Y02575D02*
X05075D01*
Y02425D02*
Y02575D01*
X04949Y02425D02*
X05075D01*
X04949D02*
Y02575D01*
X0501D01*
Y02395D02*
Y02425D01*
Y02575D02*
Y02605D01*
X0496Y02534D02*
X05057D01*
X0501Y02575D02*
X05031D01*
X04994D02*
X0501D01*
X05645Y0258D02*
X0571D01*
Y0243D02*
Y0258D01*
X05584Y0243D02*
X0571D01*
X05584D02*
Y0258D01*
X05645D01*
Y024D02*
Y0243D01*
Y0258D02*
Y0261D01*
X05595Y02539D02*
X05692D01*
X05645Y0258D02*
X05666D01*
X05629D02*
X05645D01*
X06295Y02605D02*
X0636D01*
Y02455D02*
Y02605D01*
X06234Y02455D02*
X0636D01*
X06234D02*
Y02605D01*
X06295D01*
Y02425D02*
Y02455D01*
Y02605D02*
Y02635D01*
X06245Y02564D02*
X06342D01*
X06295Y02605D02*
X06316D01*
X06279D02*
X06295D01*
X06945Y025885D02*
X0701D01*
Y024385D02*
Y025885D01*
X06884Y024385D02*
X0701D01*
X06884D02*
Y025885D01*
X06945D01*
Y024085D02*
Y024385D01*
Y025885D02*
Y026185D01*
X06895Y025475D02*
X06992D01*
X06945Y025885D02*
X06966D01*
X06929D02*
X06945D01*
X053033Y01633D02*
X055033D01*
X053033D02*
Y02033D01*
X055033D01*
Y01633D02*
Y01782D01*
Y01883D02*
Y02033D01*
X047748Y011055D02*
X048138Y010665D01*
X046586Y010135D02*
X046856Y010405D01*
X045926Y010135D02*
X046586D01*
X048426Y010395D02*
X048686Y010135D01*
X049446D01*
X047739Y013098D02*
Y015141D01*
X047749Y011055D02*
Y012698D01*
X046019Y014858D02*
X047149D01*
X048329Y014848D02*
X049469D01*
X050838Y008491D02*
Y016125D01*
X044632Y008491D02*
Y016125D01*
X050838D01*
X044632Y008491D02*
X050838D01*
X066106Y01643D02*
X068106D01*
X066106D02*
Y02043D01*
X068106D01*
Y01643D02*
Y01792D01*
Y01893D02*
Y02043D01*
X05957Y01658D02*
X06157D01*
X05957D02*
Y02058D01*
X06157D01*
Y01658D02*
Y01807D01*
Y01908D02*
Y02058D01*
X046647Y01628D02*
X048647D01*
X046647D02*
Y02028D01*
X048647D01*
Y01628D02*
Y01777D01*
Y01878D02*
Y02028D01*
D11*
X010288Y014247D02*
G03*
X01104Y014253I000376J-000004D01*
G01*
X01104Y015249D02*
G03*
X010288Y015243I-000376J000004D01*
G01*
X009228Y014247D02*
G03*
X00998Y014253I000376J-000004D01*
G01*
X00998Y015249D02*
G03*
X009228Y015243I-000376J000004D01*
G01*
X021324Y013944D02*
G03*
X022076Y01395I000376J-000004D01*
G01*
X022076Y014946D02*
G03*
X021324Y01494I-000376J000004D01*
G01*
X021076Y014896D02*
G03*
X020324Y01489I-000376J000004D01*
G01*
X020324Y013894D02*
G03*
X021076Y0139I000376J-000004D01*
G01*
X066023Y007505D02*
X066223Y007705D01*
X065823D02*
X066023Y007505D01*
Y00812D01*
X068018Y007505D02*
Y00812D01*
X067818Y007705D02*
X068018Y007505D01*
X068218Y007705D01*
X064023Y00856D02*
X070023D01*
Y00555D02*
Y00856D01*
X064023Y00555D02*
Y00856D01*
Y00555D02*
X070023D01*
X059564Y007555D02*
X059764Y007755D01*
X059364D02*
X059564Y007555D01*
Y00817D01*
X061559Y007555D02*
Y00817D01*
X061359Y007755D02*
X061559Y007555D01*
X061759Y007755D01*
X057564Y00861D02*
X063564D01*
Y0056D02*
Y00861D01*
X057564Y0056D02*
Y00861D01*
Y0056D02*
X063564D01*
X053105Y007455D02*
X053305Y007655D01*
X052905D02*
X053105Y007455D01*
Y00807D01*
X0551Y007455D02*
Y00807D01*
X0549Y007655D02*
X0551Y007455D01*
X0553Y007655D01*
X051105Y00851D02*
X057105D01*
Y0055D02*
Y00851D01*
X051105Y0055D02*
Y00851D01*
Y0055D02*
X057105D01*
X044647Y0054D02*
X050647D01*
X044647D02*
Y00841D01*
X050647Y0054D02*
Y00841D01*
X044647D02*
X050647D01*
X048642Y007355D02*
X048842Y007555D01*
X048442D02*
X048642Y007355D01*
Y00797D01*
X046647Y007355D02*
Y00797D01*
X046447Y007555D02*
X046647Y007355D01*
X046847Y007555D01*
X0516Y01685D02*
Y01715D01*
Y02115D02*
Y02145D01*
X050911Y017182D02*
Y021119D01*
X052289D01*
Y017182D02*
Y021119D01*
X050911Y017182D02*
X052289D01*
X0248Y006495D02*
X025Y006695D01*
X0252Y006495D01*
X025Y00608D02*
Y006695D01*
X023005Y00608D02*
Y006695D01*
X023205Y006495D01*
X022805D02*
X023005Y006695D01*
X021Y00564D02*
X027D01*
X021D02*
Y00865D01*
X027Y00564D02*
Y00865D01*
X021D02*
X027D01*
X0185Y008908D02*
Y009892D01*
X0161Y008908D02*
X0185D01*
X0161D02*
Y009892D01*
X0185D01*
X01557Y0094D02*
X01609D01*
X01852D02*
X01904D01*
X0188Y010658D02*
Y011642D01*
X0212D01*
Y010658D02*
Y011642D01*
X0188Y010658D02*
X0212D01*
X02121Y01115D02*
X02173D01*
X01826D02*
X01878D01*
X01365Y010758D02*
Y011742D01*
X01605D01*
Y010758D02*
Y011742D01*
X01365Y010758D02*
X01605D01*
X01606Y01125D02*
X01658D01*
X01311D02*
X01363D01*
X0032Y010708D02*
Y011692D01*
X0056D01*
Y010708D02*
Y011692D01*
X0032Y010708D02*
X0056D01*
X00561Y0112D02*
X00613D01*
X00266D02*
X00318D01*
X0081Y009158D02*
Y010142D01*
X0057Y009158D02*
X0081D01*
X0057D02*
Y010142D01*
X0081D01*
X00517Y00965D02*
X00569D01*
X00812D02*
X00864D01*
X00795Y010808D02*
Y011792D01*
X01035D01*
Y010808D02*
Y011792D01*
X00795Y010808D02*
X01035D01*
X01036Y0113D02*
X01088D01*
X00741D02*
X00793D01*
X010284Y014253D02*
Y015253D01*
X011044Y014263D02*
Y015223D01*
X009224Y014253D02*
Y015253D01*
X009984Y014263D02*
Y015223D01*
X02132Y01395D02*
Y01495D01*
X02208Y01396D02*
Y01492D01*
X022508Y01355D02*
X023492D01*
X022508D02*
Y01595D01*
X023492D01*
Y01355D02*
Y01595D01*
X023Y01596D02*
Y01648D01*
Y01301D02*
Y01353D01*
X011608Y01325D02*
X012592D01*
X011608D02*
Y01565D01*
X012592D01*
Y01325D02*
Y01565D01*
X0121Y01566D02*
Y01618D01*
Y01271D02*
Y01323D01*
X02108Y01391D02*
Y01487D01*
X02032Y0139D02*
Y0149D01*
X056463Y010055D02*
X056506Y010012D01*
X062863Y010155D02*
X062906Y010112D01*
X069263Y010105D02*
X069306Y010062D01*
X03045Y0102D02*
Y0117D01*
X02795D02*
X03045D01*
X02795Y0102D02*
Y0117D01*
Y0102D02*
X03045D01*
X03885D02*
Y0117D01*
X03635D02*
X03885D01*
X03635Y0102D02*
Y0117D01*
Y0102D02*
X03885D01*
X04305D02*
Y0117D01*
X04055D02*
X04305D01*
X04055Y0102D02*
Y0117D01*
Y0102D02*
X04305D01*
X03465D02*
Y0117D01*
X03215D02*
X03465D01*
X03215Y0102D02*
Y0117D01*
Y0102D02*
X03465D01*
X044311Y017262D02*
X045689D01*
Y021199D01*
X044311D02*
X045689D01*
X044311Y017262D02*
Y021199D01*
X045Y02123D02*
Y02153D01*
Y01693D02*
Y01723D01*
X049252Y021068D02*
X05063D01*
X049252Y017132D02*
Y021068D01*
Y017132D02*
X05063D01*
Y021068D01*
X049941Y0168D02*
Y0171D01*
Y0211D02*
Y0214D01*
X055638Y021119D02*
X057016D01*
X055638Y017182D02*
Y021119D01*
Y017182D02*
X057016D01*
Y021119D01*
X056327Y01685D02*
Y01715D01*
Y02115D02*
Y02145D01*
X057361Y017382D02*
X058739D01*
Y021319D01*
X057361D02*
X058739D01*
X057361Y017382D02*
Y021319D01*
X05805Y02135D02*
Y02165D01*
Y01705D02*
Y01735D01*
X062175Y021369D02*
X063553D01*
X062175Y017431D02*
Y021369D01*
Y017431D02*
X063553D01*
Y021369D01*
X062864Y0171D02*
Y0174D01*
Y0214D02*
Y0217D01*
X064061Y017382D02*
X065439D01*
Y021319D01*
X064061D02*
X065439D01*
X064061Y017382D02*
Y021319D01*
X06475Y02135D02*
Y02165D01*
Y01705D02*
Y01735D01*
X068711Y021219D02*
X070089D01*
X068711Y017282D02*
Y021219D01*
Y017282D02*
X070089D01*
Y021219D01*
X0694Y01695D02*
Y01725D01*
Y02125D02*
Y02155D01*
X050063Y009955D02*
X050106Y009912D01*
X0168Y0181D02*
X017D01*
X0169D01*
Y0187D01*
X0168Y0186D01*
X0173D02*
X0174Y0187D01*
X0176D01*
X0177Y0186D01*
Y0182D01*
X0176Y0181D01*
X0174D01*
X0173Y0182D01*
Y0186D01*
X0179Y0181D02*
Y0187D01*
Y0183D02*
X0182Y0185D01*
X0179Y0183D02*
X0182Y0181D01*
X00585Y01835D02*
X00605D01*
X00595D01*
Y01895D01*
X00585Y01885D01*
X00635D02*
X00645Y01895D01*
X00665D01*
X00675Y01885D01*
Y01845D01*
X00665Y01835D01*
X00645D01*
X00635Y01845D01*
Y01885D01*
X00695Y01835D02*
Y01895D01*
Y01855D02*
X00725Y01875D01*
X00695Y01855D02*
X00725Y01835D01*
X0244Y0145D02*
Y0147D01*
Y0146D01*
X0238D01*
X0239Y0145D01*
X0244Y015D02*
X0238D01*
X0242D02*
X024Y0153D01*
X0242Y015D02*
X0244Y0153D01*
X0197Y0109D02*
X0193D01*
X0197Y0113D01*
Y0114D01*
X0196Y0115D01*
X0194D01*
X0193Y0114D01*
X0199D02*
X02Y0115D01*
X0202D01*
X0203Y0114D01*
Y011D01*
X0202Y0109D01*
X02D01*
X0199Y011D01*
Y0114D01*
X0205Y0109D02*
Y0115D01*
Y0111D02*
X0208Y0113D01*
X0205Y0111D02*
X0208Y0109D01*
X01645Y0092D02*
X01665D01*
X01655D01*
Y0098D01*
X01645Y0097D01*
X01735Y0092D02*
X01695D01*
X01735Y0096D01*
Y0097D01*
X01725Y0098D01*
X01705D01*
X01695Y0097D01*
X01755D02*
X01765Y0098D01*
X01785D01*
X01795Y0097D01*
Y0093D01*
X01785Y0092D01*
X01765D01*
X01755Y0093D01*
Y0097D01*
X0145Y01095D02*
X0141D01*
X0145Y01135D01*
Y01145D01*
X0144Y01155D01*
X0142D01*
X0141Y01145D01*
X0147D02*
X0148Y01155D01*
X015D01*
X0151Y01145D01*
Y01105D01*
X015Y01095D01*
X0148D01*
X0147Y01105D01*
Y01145D01*
X0153Y01095D02*
Y01155D01*
Y01115D02*
X0156Y01135D01*
X0153Y01115D02*
X0156Y01095D01*
X01355Y01415D02*
Y01435D01*
Y01425D01*
X01295D01*
X01305Y01415D01*
X01355Y01465D02*
X01295D01*
X01335D02*
X01315Y01495D01*
X01335Y01465D02*
X01355Y01495D01*
X0089Y01105D02*
X0085D01*
X0089Y01145D01*
Y01155D01*
X0088Y01165D01*
X0086D01*
X0085Y01155D01*
X0091D02*
X0092Y01165D01*
X0094D01*
X0095Y01155D01*
Y01115D01*
X0094Y01105D01*
X0092D01*
X0091Y01115D01*
Y01155D01*
X0097Y01105D02*
Y01165D01*
Y01125D02*
X01Y01145D01*
X0097Y01125D02*
X01Y01105D01*
X0059Y00935D02*
X0061D01*
X006D01*
Y00995D01*
X0059Y00985D01*
X0068Y00935D02*
X0064D01*
X0068Y00975D01*
Y00985D01*
X0067Y00995D01*
X0065D01*
X0064Y00985D01*
X007D02*
X0071Y00995D01*
X0073D01*
X0074Y00985D01*
Y00945D01*
X0073Y00935D01*
X0071D01*
X007Y00945D01*
Y00985D01*
X00405Y01095D02*
X00365D01*
X00405Y01135D01*
Y01145D01*
X00395Y01155D01*
X00375D01*
X00365Y01145D01*
X00425D02*
X00435Y01155D01*
X00455D01*
X00465Y01145D01*
Y01105D01*
X00455Y01095D01*
X00435D01*
X00425Y01105D01*
Y01145D01*
X00485Y01095D02*
Y01155D01*
Y01115D02*
X00515Y01135D01*
X00485Y01115D02*
X00515Y01095D01*
X01325Y0065D02*
Y0069D01*
X01345Y0071D01*
X01365Y0069D01*
Y0065D01*
Y0068D01*
X01325D01*
X01385D02*
X01425D01*
X01445Y0071D02*
Y0065D01*
X01475D01*
X01485Y0066D01*
Y0067D01*
X01475Y0068D01*
X01445D01*
X01475D01*
X01485Y0069D01*
Y007D01*
X01475Y0071D01*
X01445D01*
X0092Y00645D02*
Y00685D01*
X0094Y00705D01*
X0096Y00685D01*
Y00645D01*
Y00675D01*
X0092D01*
X0098D02*
X0102D01*
X0104Y00705D02*
Y00645D01*
X0107D01*
X0108Y00655D01*
Y00665D01*
X0107Y00675D01*
X0104D01*
X0107D01*
X0108Y00685D01*
Y00695D01*
X0107Y00705D01*
X0104D01*
X015901Y01535D02*
Y01595D01*
X0161Y01575D01*
X0163Y01595D01*
Y01535D01*
X0165D02*
Y01575D01*
X0167Y01595D01*
X0169Y01575D01*
Y01535D01*
Y01565D01*
X0165D01*
X0171Y01595D02*
X0175Y01535D01*
Y01595D02*
X0171Y01535D01*
X018D02*
Y01595D01*
X0177Y01565D01*
X0181D01*
X0183Y01585D02*
X0184Y01595D01*
X0186D01*
X0187Y01585D01*
Y01575D01*
X0186Y01565D01*
X0187Y01555D01*
Y01545D01*
X0186Y01535D01*
X0184D01*
X0183Y01545D01*
Y01555D01*
X0184Y01565D01*
X0183Y01575D01*
Y01585D01*
X0184Y01565D02*
X0186D01*
X019299Y01595D02*
X0189D01*
Y01565D01*
X0191Y01575D01*
X019199D01*
X019299Y01565D01*
Y01545D01*
X019199Y01535D01*
X019D01*
X0189Y01545D01*
X005001Y01555D02*
Y01615D01*
X0052Y01595D01*
X0054Y01615D01*
Y01555D01*
X0056D02*
Y01595D01*
X0058Y01615D01*
X006Y01595D01*
Y01555D01*
Y01585D01*
X0056D01*
X0062Y01615D02*
X0066Y01555D01*
Y01615D02*
X0062Y01555D01*
X0071D02*
Y01615D01*
X0068Y01585D01*
X0072D01*
X0074Y01605D02*
X0075Y01615D01*
X0077D01*
X0078Y01605D01*
Y01595D01*
X0077Y01585D01*
X0078Y01575D01*
Y01565D01*
X0077Y01555D01*
X0075D01*
X0074Y01565D01*
Y01575D01*
X0075Y01585D01*
X0074Y01595D01*
Y01605D01*
X0075Y01585D02*
X0077D01*
X008399Y01615D02*
X008D01*
Y01585D01*
X0082Y01595D01*
X008299D01*
X008399Y01585D01*
Y01565D01*
X008299Y01555D01*
X0081D01*
X008Y01565D01*
X02195Y01545D02*
Y01565D01*
Y01555D01*
X02135D01*
X02145Y01545D01*
Y01595D02*
X02135Y01605D01*
Y01625D01*
X02145Y01635D01*
X02185D01*
X02195Y01625D01*
Y01605D01*
X02185Y01595D01*
X02145D01*
Y01655D02*
X02135Y01665D01*
Y01685D01*
X02145Y01695D01*
X02155D01*
X02165Y01685D01*
Y01675D01*
Y01685D01*
X02175Y01695D01*
X02185D01*
X02195Y01685D01*
Y01665D01*
X02185Y01655D01*
X0209Y0154D02*
Y0156D01*
Y0155D01*
X0203D01*
X0204Y0154D01*
Y0159D02*
X0203Y016D01*
Y0162D01*
X0204Y0163D01*
X0208D01*
X0209Y0162D01*
Y016D01*
X0208Y0159D01*
X0204D01*
X0209Y0169D02*
Y0165D01*
X0205Y0169D01*
X0204D01*
X0203Y0168D01*
Y0166D01*
X0204Y0165D01*
X01095Y01575D02*
Y01595D01*
Y01585D01*
X01035D01*
X01045Y01575D01*
Y01625D02*
X01035Y01635D01*
Y01655D01*
X01045Y01665D01*
X01085D01*
X01095Y01655D01*
Y01635D01*
X01085Y01625D01*
X01045D01*
Y01685D02*
X01035Y01695D01*
Y01715D01*
X01045Y01725D01*
X01055D01*
X01065Y01715D01*
Y01705D01*
Y01715D01*
X01075Y01725D01*
X01085D01*
X01095Y01715D01*
Y01695D01*
X01085Y01685D01*
X00985Y0157D02*
Y0159D01*
Y0158D01*
X00925D01*
X00935Y0157D01*
Y0162D02*
X00925Y0163D01*
Y0165D01*
X00935Y0166D01*
X00975D01*
X00985Y0165D01*
Y0163D01*
X00975Y0162D01*
X00935D01*
X00985Y0172D02*
Y0168D01*
X00945Y0172D01*
X00935D01*
X00925Y0171D01*
Y0169D01*
X00935Y0168D01*
X0406Y01275D02*
X0408D01*
X0407D01*
Y01215D01*
X0406D01*
X0408D01*
X0411D02*
Y01275D01*
X0415Y01215D01*
Y01275D01*
X0417Y01205D02*
X0421D01*
X042599Y01215D02*
Y01275D01*
X042299Y01245D01*
X042699D01*
X0364Y01275D02*
X0366D01*
X0365D01*
Y01215D01*
X0364D01*
X0366D01*
X0369D02*
Y01275D01*
X0373Y01215D01*
Y01275D01*
X0375Y01205D02*
X0379D01*
X038099Y01265D02*
X038199Y01275D01*
X038399D01*
X038499Y01265D01*
Y01255D01*
X038399Y01245D01*
X038299D01*
X038399D01*
X038499Y01235D01*
Y01225D01*
X038399Y01215D01*
X038199D01*
X038099Y01225D01*
X021601Y0096D02*
X021201D01*
Y0093D01*
X021401Y0094D01*
X021501D01*
X021601Y0093D01*
Y0091D01*
X021501Y009D01*
X021301D01*
X021201Y0091D01*
X021801Y0096D02*
Y0092D01*
X022001Y009D01*
X022201Y0092D01*
Y0096D01*
X022401Y0093D02*
X0228D01*
X0234Y0095D02*
X0233Y0096D01*
X0231D01*
X023Y0095D01*
Y0091D01*
X0231Y009D01*
X0233D01*
X0234Y0091D01*
Y0093D01*
X0232D01*
X0236Y009D02*
Y0096D01*
X024Y009D01*
Y0096D01*
X0242D02*
Y009D01*
X0245D01*
X0246Y0091D01*
Y0095D01*
X0245Y0096D01*
X0242D01*
X0248Y0093D02*
X0252D01*
X0254Y009D02*
X0256D01*
X0255D01*
Y0096D01*
X0254Y0095D01*
X026299Y009D02*
X025899D01*
X026299Y0094D01*
Y0095D01*
X026199Y0096D01*
X025999D01*
X025899Y0095D01*
X026499Y0096D02*
Y0092D01*
X026699Y009D01*
X026899Y0092D01*
Y0096D01*
X02625Y0254D02*
Y0248D01*
X02655D01*
X02665Y0249D01*
Y0253D01*
X02655Y0254D01*
X02625D01*
X02725D02*
X02685D01*
Y0251D01*
X02705Y0252D01*
X02715D01*
X02725Y0251D01*
Y0249D01*
X02715Y0248D01*
X02695D01*
X02685Y0249D01*
X01786Y03484D02*
X01776Y03494D01*
X01756D01*
X01746Y03484D01*
Y03474D01*
X01756Y03464D01*
X01776D01*
X01786Y03454D01*
Y03444D01*
X01776Y03434D01*
X01756D01*
X01746Y03444D01*
X01806Y03494D02*
Y03434D01*
X01836D01*
X01846Y03444D01*
Y03484D01*
X01836Y03494D01*
X01806D01*
X02426Y02744D02*
X02416Y02754D01*
X02396D01*
X02386Y02744D01*
Y02734D01*
X02396Y02724D01*
X02416D01*
X02426Y02714D01*
Y02704D01*
X02416Y02694D01*
X02396D01*
X02386Y02704D01*
X02446Y02754D02*
X02466D01*
X02456D01*
Y02694D01*
X02446D01*
X02466D01*
X02496D02*
Y02754D01*
X02516Y02734D01*
X02536Y02754D01*
Y02694D01*
X00015Y0407D02*
Y0411D01*
X00035Y0413D01*
X00055Y0411D01*
Y0407D01*
Y041D01*
X00015D01*
X00075Y0407D02*
Y0413D01*
X00105D01*
X00115Y0412D01*
Y041D01*
X00105Y0409D01*
X00075D01*
X00095D02*
X00115Y0407D01*
X00135Y0413D02*
Y0407D01*
X00165D01*
X001749Y0408D01*
Y0412D01*
X00165Y0413D01*
X00135D01*
X001949Y0407D02*
X002149D01*
X002049D01*
Y0413D01*
X001949Y0412D01*
X046488Y011191D02*
X045888D01*
Y011491D01*
X045988Y011591D01*
X046188D01*
X046288Y011491D01*
Y011191D01*
Y011391D02*
X046488Y011591D01*
X045888Y011791D02*
X046488D01*
Y01219D01*
Y01269D02*
X045888D01*
X046188Y01239D01*
Y01279D01*
X0533Y0115D02*
X0527D01*
Y0118D01*
X0528Y0119D01*
X053D01*
X0531Y0118D01*
Y0115D01*
Y0117D02*
X0533Y0119D01*
X0527Y0121D02*
X0533D01*
Y0125D01*
X0528Y0127D02*
X0527Y0128D01*
Y013D01*
X0528Y0131D01*
X0529D01*
X053Y013D01*
Y0129D01*
Y013D01*
X0531Y0131D01*
X0532D01*
X0533Y013D01*
Y0128D01*
X0532Y0127D01*
X0597Y011553D02*
X0591D01*
Y011853D01*
X0592Y011953D01*
X0594D01*
X0595Y011853D01*
Y011553D01*
Y011753D02*
X0597Y011953D01*
X0591Y012153D02*
X0597D01*
Y012553D01*
Y013153D02*
Y012753D01*
X0593Y013153D01*
X0592D01*
X0591Y013053D01*
Y012853D01*
X0592Y012753D01*
X0661Y011553D02*
X0655D01*
Y011853D01*
X0656Y011953D01*
X0658D01*
X0659Y011853D01*
Y011553D01*
Y011753D02*
X0661Y011953D01*
X0655Y012153D02*
X0661D01*
Y012553D01*
Y012753D02*
Y012953D01*
Y012853D01*
X0655D01*
X0656Y012753D01*
X04465Y0198D02*
Y0196D01*
Y0197D01*
X04525D01*
X04515Y0198D01*
X04465Y0193D02*
X04525D01*
X04485D02*
X04505Y019D01*
X04485Y0193D02*
X04465Y019D01*
X049691Y01985D02*
Y01965D01*
Y01975D01*
X050291D01*
X050191Y01985D01*
X049691Y01935D02*
X050291D01*
X049891D02*
X050091Y01905D01*
X049891Y01935D02*
X049691Y01905D01*
X05135Y02D02*
Y0198D01*
Y0199D01*
X05195D01*
X05185Y02D01*
X05135Y0195D02*
X05195D01*
X05155D02*
X05175Y0192D01*
X05155Y0195D02*
X05135Y0192D01*
X056027Y0198D02*
Y0196D01*
Y0197D01*
X056627D01*
X056527Y0198D01*
X056027Y0193D02*
X056627D01*
X056227D02*
X056427Y019D01*
X056227Y0193D02*
X056027Y019D01*
X0577Y01995D02*
Y01975D01*
Y01985D01*
X0583D01*
X0582Y01995D01*
X0577Y01945D02*
X0583D01*
X0579D02*
X0581Y01915D01*
X0579Y01945D02*
X0577Y01915D01*
X062514Y01995D02*
Y01975D01*
Y01985D01*
X063114D01*
X063014Y01995D01*
X062514Y01945D02*
X063114D01*
X062714D02*
X062914Y01915D01*
X062714Y01945D02*
X062514Y01915D01*
X06445Y02025D02*
Y02005D01*
Y02015D01*
X06505D01*
X06495Y02025D01*
X06445Y01975D02*
X06505D01*
X06465D02*
X06485Y01945D01*
X06465Y01975D02*
X06445Y01945D01*
X06905Y0197D02*
Y0195D01*
Y0196D01*
X06965D01*
X06955Y0197D01*
X06905Y0192D02*
X06965D01*
X06925D02*
X06945Y0189D01*
X06925Y0192D02*
X06905Y0189D01*
X04735Y0215D02*
X04775D01*
X04785Y0216D01*
Y0218D01*
X04775Y0219D01*
X04735D01*
X04725Y0218D01*
Y0216D01*
X04745Y0217D02*
X04725Y0215D01*
Y0216D02*
X04735Y0215D01*
X04725Y021D02*
X04785D01*
X04755Y0213D01*
Y0209D01*
X05355Y02205D02*
X05395D01*
X05405Y02215D01*
Y02235D01*
X05395Y02245D01*
X05355D01*
X05345Y02235D01*
Y02215D01*
X05365Y02225D02*
X05345Y02205D01*
Y02215D02*
X05355Y02205D01*
X05395Y02185D02*
X05405Y02175D01*
Y02155D01*
X05395Y02145D01*
X05385D01*
X05375Y02155D01*
Y02165D01*
Y02155D01*
X05365Y02145D01*
X05355D01*
X05345Y02155D01*
Y02175D01*
X05355Y02185D01*
X0602Y0221D02*
X0606D01*
X0607Y0222D01*
Y0224D01*
X0606Y0225D01*
X0602D01*
X0601Y0224D01*
Y0222D01*
X0603Y0223D02*
X0601Y0221D01*
Y0222D02*
X0602Y0221D01*
X0601Y0215D02*
Y0219D01*
X0605Y0215D01*
X0606D01*
X0607Y0216D01*
Y0218D01*
X0606Y0219D01*
X0668Y02165D02*
X0672D01*
X0673Y02175D01*
Y02195D01*
X0672Y02205D01*
X0668D01*
X0667Y02195D01*
Y02175D01*
X0669Y02185D02*
X0667Y02165D01*
Y02175D02*
X0668Y02165D01*
X0667Y02145D02*
Y02125D01*
Y02135D01*
X0673D01*
X0672Y02145D01*
X047947Y01943D02*
Y01963D01*
X047847Y01973D01*
X047447D01*
X047347Y01963D01*
Y01943D01*
X047447Y01933D01*
X047847D01*
X047947Y01943D01*
X047347Y01913D02*
X047947D01*
Y01883D01*
X047847Y01873D01*
X047647D01*
X047547Y01883D01*
Y01913D01*
X047947Y01853D02*
Y01813D01*
Y01833D01*
X047347D01*
X047947Y01763D02*
Y01783D01*
X047847Y01793D01*
X047447D01*
X047347Y01783D01*
Y01763D01*
X047447Y01753D01*
X047847D01*
X047947Y01763D01*
Y01733D02*
Y01693D01*
X047847D01*
X047447Y01733D01*
X047347D01*
X054383Y01943D02*
Y01963D01*
X054283Y01973D01*
X053883D01*
X053783Y01963D01*
Y01943D01*
X053883Y01933D01*
X054283D01*
X054383Y01943D01*
X053783Y01913D02*
X054383D01*
Y01883D01*
X054283Y01873D01*
X054083D01*
X053983Y01883D01*
Y01913D01*
X054383Y01853D02*
Y01813D01*
Y01833D01*
X053783D01*
X054383Y01763D02*
Y01783D01*
X054283Y01793D01*
X053883D01*
X053783Y01783D01*
Y01763D01*
X053883Y01753D01*
X054283D01*
X054383Y01763D01*
Y01693D02*
Y01733D01*
X054083D01*
X054183Y01713D01*
Y01703D01*
X054083Y01693D01*
X053883D01*
X053783Y01703D01*
Y01723D01*
X053883Y01733D01*
X06067Y01968D02*
Y01988D01*
X06057Y01998D01*
X06017D01*
X06007Y01988D01*
Y01968D01*
X06017Y01958D01*
X06057D01*
X06067Y01968D01*
X06007Y01938D02*
X06067D01*
Y01908D01*
X06057Y01898D01*
X06037D01*
X06027Y01908D01*
Y01938D01*
X06067Y01878D02*
Y01838D01*
Y01858D01*
X06007D01*
X06067Y01788D02*
Y01808D01*
X06057Y01818D01*
X06017D01*
X06007Y01808D01*
Y01788D01*
X06017Y01778D01*
X06057D01*
X06067Y01788D01*
X06057Y01758D02*
X06067Y01748D01*
Y01728D01*
X06057Y01718D01*
X06047D01*
X06037Y01728D01*
Y01738D01*
Y01728D01*
X06027Y01718D01*
X06017D01*
X06007Y01728D01*
Y01748D01*
X06017Y01758D01*
X067156Y01968D02*
Y01988D01*
X067056Y01998D01*
X066656D01*
X066556Y01988D01*
Y01968D01*
X066656Y01958D01*
X067056D01*
X067156Y01968D01*
X066556Y01938D02*
X067156D01*
Y01908D01*
X067056Y01898D01*
X066856D01*
X066756Y01908D01*
Y01938D01*
X067156Y01878D02*
Y01838D01*
Y01858D01*
X066556D01*
X067156Y01788D02*
Y01808D01*
X067056Y01818D01*
X066656D01*
X066556Y01808D01*
Y01788D01*
X066656Y01778D01*
X067056D01*
X067156Y01788D01*
X066556Y01718D02*
Y01758D01*
X066956Y01718D01*
X067056D01*
X067156Y01728D01*
Y01748D01*
X067056Y01758D01*
X04065Y00985D02*
X04085D01*
X04075D01*
Y00925D01*
X04065D01*
X04085D01*
X04115D02*
Y00985D01*
X04155Y00925D01*
Y00985D01*
X04175Y00915D02*
X04215D01*
X042649Y00925D02*
Y00985D01*
X042349Y00955D01*
X042749D01*
X03665Y0099D02*
X03685D01*
X03675D01*
Y0093D01*
X03665D01*
X03685D01*
X03715D02*
Y0099D01*
X03755Y0093D01*
Y0099D01*
X03775Y0092D02*
X03815D01*
X038349Y0098D02*
X038449Y0099D01*
X038649D01*
X038749Y0098D01*
Y0097D01*
X038649Y0096D01*
X038549D01*
X038649D01*
X038749Y0095D01*
Y0094D01*
X038649Y0093D01*
X038449D01*
X038349Y0094D01*
X0326Y00985D02*
X0328D01*
X0327D01*
Y00925D01*
X0326D01*
X0328D01*
X0331D02*
Y00985D01*
X0335Y00925D01*
Y00985D01*
X0337Y00915D02*
X0341D01*
X034699Y00925D02*
X034299D01*
X034699Y00965D01*
Y00975D01*
X034599Y00985D01*
X034399D01*
X034299Y00975D01*
X0322Y01275D02*
X0324D01*
X0323D01*
Y01215D01*
X0322D01*
X0324D01*
X0327D02*
Y01275D01*
X0331Y01215D01*
Y01275D01*
X0333Y01205D02*
X0337D01*
X034299Y01215D02*
X033899D01*
X034299Y01255D01*
Y01265D01*
X034199Y01275D01*
X033999D01*
X033899Y01265D01*
X028065Y01265D02*
X028265D01*
X028165D01*
Y01205D01*
X028065D01*
X028265D01*
X028565D02*
Y01265D01*
X028965Y01205D01*
Y01265D01*
X029165Y01195D02*
X029565D01*
X029764Y01205D02*
X029964D01*
X029864D01*
Y01265D01*
X029764Y01255D01*
X0477Y0063D02*
X0475D01*
X0476D01*
Y0058D01*
X0475Y0057D01*
X0474D01*
X0473Y0058D01*
X0482Y0057D02*
Y0063D01*
X0479Y006D01*
X0483D01*
X0541Y0063D02*
X0539D01*
X054D01*
Y0058D01*
X0539Y0057D01*
X0538D01*
X0537Y0058D01*
X0543Y0062D02*
X0544Y0063D01*
X0546D01*
X0547Y0062D01*
Y0061D01*
X0546Y006D01*
X0545D01*
X0546D01*
X0547Y0059D01*
Y0058D01*
X0546Y0057D01*
X0544D01*
X0543Y0058D01*
X0605Y00635D02*
X0603D01*
X0604D01*
Y00585D01*
X0603Y00575D01*
X0602D01*
X0601Y00585D01*
X0611Y00575D02*
X0607D01*
X0611Y00615D01*
Y00625D01*
X061Y00635D01*
X0608D01*
X0607Y00625D01*
X0493Y02555D02*
X0487D01*
Y02525D01*
X0488Y02515D01*
X0492D01*
X0493Y02525D01*
Y02555D01*
X0487Y02465D02*
X0493D01*
X049Y02495D01*
Y02455D01*
X0555Y0253D02*
X0549D01*
Y025D01*
X055Y0249D01*
X0554D01*
X0555Y025D01*
Y0253D01*
X0554Y0247D02*
X0555Y0246D01*
Y0244D01*
X0554Y0243D01*
X0553D01*
X0552Y0244D01*
Y0245D01*
Y0244D01*
X0551Y0243D01*
X055D01*
X0549Y0244D01*
Y0246D01*
X055Y0247D01*
X0619Y02585D02*
X0613D01*
Y02555D01*
X0614Y02545D01*
X0618D01*
X0619Y02555D01*
Y02585D01*
X0613Y02485D02*
Y02525D01*
X0617Y02485D01*
X0618D01*
X0619Y02495D01*
Y02515D01*
X0618Y02525D01*
X06835Y025535D02*
X06775D01*
Y025235D01*
X06785Y025135D01*
X06825D01*
X06835Y025235D01*
Y025535D01*
X06775Y024935D02*
Y024735D01*
Y024835D01*
X06835D01*
X06825Y024935D01*
X067Y0063D02*
X0668D01*
X0669D01*
Y0058D01*
X0668Y0057D01*
X0667D01*
X0666Y0058D01*
X0672Y0057D02*
X0674D01*
X0673D01*
Y0063D01*
X0672Y0062D01*
X0285Y00985D02*
X0287D01*
X0286D01*
Y00925D01*
X0285D01*
X0287D01*
X029D02*
Y00985D01*
X0294Y00925D01*
Y00985D01*
X0296Y00915D02*
X03D01*
X030199Y00925D02*
X030399D01*
X030299D01*
Y00985D01*
X030199Y00975D01*
D12*
X01922Y01503D02*
G03*
X01922Y01503I-00008J0D01*
G01*
X00827Y01518D02*
G03*
X00827Y01518I-00008J0D01*
G01*
X054603Y01906D02*
G03*
X054603Y01906I-00008J0D01*
G01*
X067676Y01916D02*
G03*
X067676Y01916I-00008J0D01*
G01*
X06114Y01931D02*
G03*
X06114Y01931I-00008J0D01*
G01*
X048217Y01901D02*
G03*
X048217Y01901I-00008J0D01*
G01*
D13*
X054544Y023491D02*
G03*
X054594Y023555I-000844J000709D01*
G01*
X05474Y024564D02*
G03*
X054193Y025186I-00104J-000364D01*
G01*
X053207D02*
G03*
X05266Y024564I000493J-000986D01*
G01*
X052806Y023555D02*
G03*
X052856Y023491I000894J000645D01*
G01*
X061144Y023541D02*
G03*
X061194Y023605I-000844J000709D01*
G01*
X06134Y024614D02*
G03*
X060793Y025236I-00104J-000364D01*
G01*
X059807D02*
G03*
X05926Y024614I000493J-000986D01*
G01*
X059406Y023605D02*
G03*
X059456Y023541I000894J000645D01*
G01*
X067744Y023341D02*
G03*
X067794Y023405I-000844J000709D01*
G01*
X06794Y024414D02*
G03*
X067393Y025036I-00104J-000364D01*
G01*
X066407D02*
G03*
X06586Y024414I000493J-000986D01*
G01*
X066006Y023405D02*
G03*
X066056Y023341I000894J000645D01*
G01*
X048444Y023141D02*
G03*
X048494Y023205I-000844J000709D01*
G01*
X04864Y024214D02*
G03*
X048093Y024836I-00104J-000364D01*
G01*
X047107D02*
G03*
X04656Y024214I000493J-000986D01*
G01*
X046706Y023205D02*
G03*
X046756Y023141I000894J000645D01*
G01*
X0544Y023491D02*
X054544D01*
X0542Y02275D02*
X054312Y023699D01*
X0538Y023491D02*
X05415D01*
X05325D02*
X0536D01*
X052856D02*
X053D01*
X053088Y023699D02*
X0532Y02275D01*
X0537Y02275D02*
Y0245D01*
X052794Y021D02*
Y02275D01*
Y021D02*
X054594D01*
Y02275D01*
X052794D02*
X054594D01*
X061Y023541D02*
X061144D01*
X0608Y0228D02*
X060912Y023749D01*
X0604Y023541D02*
X06075D01*
X05985D02*
X0602D01*
X059456D02*
X0596D01*
X059688Y023749D02*
X0598Y0228D01*
X0603Y0228D02*
Y02455D01*
X059394Y02105D02*
Y0228D01*
Y02105D02*
X061194D01*
Y0228D01*
X059394D02*
X061194D01*
X0676Y023341D02*
X067744D01*
X0674Y0226D02*
X067512Y023549D01*
X067Y023341D02*
X06735D01*
X06645D02*
X0668D01*
X066056D02*
X0662D01*
X066288Y023549D02*
X0664Y0226D01*
X0669Y0226D02*
Y02435D01*
X065994Y02085D02*
Y0226D01*
Y02085D02*
X067794D01*
Y0226D01*
X065994D02*
X067794D01*
X0483Y023141D02*
X048444D01*
X0481Y0224D02*
X048212Y023349D01*
X0477Y023141D02*
X04805D01*
X04715D02*
X0475D01*
X046756D02*
X0469D01*
X046988Y023349D02*
X0471Y0224D01*
X0476Y0224D02*
Y02415D01*
X046694Y02065D02*
Y0224D01*
Y02065D02*
X048494D01*
Y0224D01*
X046694D02*
X048494D01*
D14*
X0266Y03885D02*
Y03985D01*
X0346D01*
Y03885D02*
Y03985D01*
X0266Y03885D02*
X0346D01*
X0126Y01985D02*
Y02085D01*
X0186Y01985D02*
Y02085D01*
X0126Y01985D02*
X0186D01*
X0126Y02085D02*
X0186D01*
X0176Y03885D02*
X0256D01*
Y03985D01*
X0176D02*
X0256D01*
X0176Y03885D02*
Y03985D01*
X0091Y03885D02*
X0171D01*
Y03985D01*
X0091D02*
X0171D01*
X0091Y03885D02*
Y03985D01*
X0286Y01985D02*
X0366D01*
Y02085D01*
X0286D02*
X0366D01*
X0286Y01985D02*
Y02085D01*
X0196Y01985D02*
X0276D01*
Y02085D01*
X0196D02*
X0276D01*
X0196Y01985D02*
Y02085D01*
X0366Y03985D02*
X0386D01*
X0366Y02185D02*
X0386D01*
X0366D02*
Y03985D01*
X0386Y02185D02*
Y03985D01*
X0174Y0289D02*
X0184D01*
Y027802D02*
Y033998D01*
X0174Y027802D02*
Y033998D01*
Y027802D02*
X0184D01*
X0174Y033998D02*
X0184D01*
X0279Y0256D02*
Y0266D01*
X023802Y0256D02*
Y0266D01*
X028998D01*
X023802Y0256D02*
X028998D01*
Y0266D01*
D15*
X02755Y02408D02*
D03*
D16*
X05012Y02565D02*
D03*
X05647Y0257D02*
D03*
X06297Y02595D02*
D03*
X06947Y025785D02*
D03*
M02*
