M48
;Layer_Color=9474304
;FILE_FORMAT=2:4
INCH,LZ
;TYPE=PLATED
T1F00S00C0.0236
T2F00S00C0.0276
T3F00S00C0.0280
T4F00S00C0.0310
T5F00S00C0.0320
T6F00S00C0.0340
T7F00S00C0.0350
T8F00S00C0.0354
T9F00S00C0.0360
T10F00S00C0.0402
T11F00S00C0.0450
T12F00S00C0.0500
T13F00S00C0.0512
T14F00S00C0.1181
T15F00S00C0.1378
%
T01
X002392Y0112
X006408
X007142Y0113
X008908Y00965
X011158Y0113
X012842Y01125
X0121Y012442
X015292Y0094
X004892Y00965
X016858Y01125
X017992Y01115
X019308Y0094
X022008Y01115
X023Y012742
Y016758
X0121Y016458
T02
X009604Y014253
Y015253
X010664
Y014253
X0207Y0139
Y0149
X0217Y01495
Y01395
X062864Y01688
X06475Y01683
X0694Y01673
Y02177
X06475Y02187
X062864Y02192
X05805Y02187
X056327Y02167
X0516
X049941Y02162
Y01658
X0516Y01663
X056327
X05805Y01683
X045Y016711
Y02175
T03
X04695Y03045
X02995Y02265
X0217Y02485
X024324Y027877
X01675Y0191
X00712Y022154
X02235Y032
X02265Y03265
X02295Y0333
X02355Y03405
X03375Y03335
X03445Y03405
X03315Y03245
X03235Y03185
X0537Y03535
X0548Y03485
X056918Y035218
X0569Y03615
X058399Y034151
X0579Y0332
X05895Y03245
X05975Y0347
X0612Y0344
X0621Y0335
X062656Y032552
X0633Y03195
X0638Y0344
T04
X0052Y01295
X0062
X0072
X0082
X01615Y0128
X01715
X01815
X01915
X066606Y01693
X067606
Y01993
X066606
X06107Y02008
X06007
Y01708
X06107
X054533Y01683
X053533
Y01983
X054533
X048147Y01978
X047147
Y01678
X048147
X01915Y0158
X01815
X01715
X01615
X0082Y01595
X0072
X0062
X0052
T05
X01625Y0172
X01725
X01825
X01925
X01525
X0082Y0174
X0072
X0062
X0052
X0042
T06
X02865Y01095
X0297
X03285
X0339
X03705
X0381
X04125
X0423
T07
X06295Y0238
Y0268
X06945Y026635
Y023635
X05645Y02355
Y02655
X0501Y0265
Y0235
X0284Y0241
X0254
T08
X0321Y02035
X0331
X0341
X0351
X0361
X0371Y02235
X0381
Y02335
X0371
Y02435
X0381
Y02535
X0371
Y02635
X0381
Y02735
X0371
Y02835
X0381
Y02935
X0371
Y03035
X0381
X0311Y02035
X0301
X0291
X0271
X0261
X0251
X0241
X0231
X0221
X0211
X0201
X0181
X0171
X0161
X0151
X0141
X0131
X0126Y03935
X0116
X0106
X0096
X0136
X0146
X0156
X0166
X0181
X0191
X0201
X0211
X0221
X0231
X0241
X0251
X0271
X0281
X0291
X0301
X0311
X0321
X0331
X0341
X0371
Y03835
Y03735
Y03635
Y03535
Y03435
Y03335
Y03235
Y03135
X0381
Y03235
Y03335
Y03435
Y03535
Y03635
Y03735
Y03835
Y03935
T09
X0659Y0239
X0669Y0249
X0679Y0239
X0613Y0241
X0593
X0603Y0251
X0537Y02505
X0527Y02405
X0547
X0486Y0237
X0476Y0247
X0466Y0237
T10
X0648Y02965
X0658
Y03065
X0648
X0284Y0261
X0274
X0264
X0254
X0244
X0179Y0284
Y0294
Y0304
Y0314
Y0324
Y0334
X0648Y03365
X0658
Y03265
Y03165
X0648
Y03265
Y03465
X0658
Y03565
Y03665
Y03765
Y03865
X0648
Y03765
Y03665
Y03565
T11
X0453Y0099
X045376Y014703
X047738Y015491
X0501Y014703
X051776Y014803
X054138Y015591
X0565Y014803
X058176Y014903
X0581Y0101
X0565Y01
X0517
X0501Y0099
X0629Y0101
X0645Y01005
X0693
Y014853
X064576
X0629Y014903
X066938Y015641
X060538Y015691
T12
X0059Y007
X0079
X0162Y0068
X0182
X02815Y00695
X03015
X032333
X034333
X036517
X038517
X0407
X0427
T13
X022Y00705
X024
X025995
X045652Y007
X047647
X049647
X05211Y0071
X054105
X056105
X058569Y0072
X060564
X062564
X065028Y00715
X067023
X069023
T14
X0381Y02035
X0056
X0061Y03935
X0356
T15
X0023Y00755
X0728
X0023Y04235
X0728
M30
