G04*
G04 #@! TF.GenerationSoftware,Altium Limited,Altium Designer,20.2.5 (213)*
G04*
G04 Layer_Color=2752767*
%FSTAX24Y24*%
%MOIN*%
G70*
G04*
G04 #@! TF.SameCoordinates,E6115DE1-F2E3-4B59-8193-A89D5BA3A6A3*
G04*
G04*
G04 #@! TF.FilePolarity,Positive*
G04*
G01*
G75*
%ADD48C,0.0020*%
%ADD49C,0.0027*%
%ADD50C,0.0013*%
D48*
X05597Y01087D02*
Y01103D01*
X05613D01*
Y01087D01*
X05597D01*
X05797D02*
Y01103D01*
X05813D01*
Y01087D01*
X05797D01*
X05187D02*
Y01103D01*
X05203D01*
Y01087D01*
X05187D01*
X05387D02*
Y01103D01*
X05403D01*
Y01087D01*
X05387D01*
X0338Y03702D02*
X03372Y03718D01*
X03388D01*
X0338Y03702D01*
X0348D02*
X03472Y03718D01*
X03488D01*
X0348Y03702D01*
X0358D02*
X03572Y03718D01*
X03588D01*
X0358Y03702D01*
X0368D02*
X03672Y03718D01*
X03688D01*
X0368Y03702D01*
X0378D02*
X03772Y03718D01*
X03788D01*
X0378Y03702D01*
X0388D02*
X03872Y03718D01*
X03888D01*
X0388Y03702D01*
X0398D02*
X03972Y03718D01*
X03988D01*
X0398Y03702D01*
X0408D02*
X04072Y03718D01*
X04088D01*
X0408Y03702D01*
X0338Y04002D02*
X03372Y04018D01*
X03388D01*
X0338Y04002D01*
X0348D02*
X03472Y04018D01*
X03488D01*
X0348Y04002D01*
X0358D02*
X03572Y04018D01*
X03588D01*
X0358Y04002D01*
X0368D02*
X03672Y04018D01*
X03688D01*
X0368Y04002D01*
X0378D02*
X03772Y04018D01*
X03788D01*
X0378Y04002D01*
X0388D02*
X03872Y04018D01*
X03888D01*
X0388Y04002D01*
X0398D02*
X03972Y04018D01*
X03988D01*
X0398Y04002D01*
X0408D02*
X04072Y04018D01*
X04088D01*
X0408Y04002D01*
X039659Y01367D02*
X039699Y01371D01*
X039739D01*
X039699Y01375D01*
X039739Y01379D01*
X039699D01*
X039659Y01383D01*
X039619Y01379D01*
X039579D01*
X039619Y01375D01*
X039579Y01371D01*
X039619D01*
X039659Y01367D01*
Y01017D02*
X039699Y01021D01*
X039739D01*
X039699Y01025D01*
X039739Y01029D01*
X039699D01*
X039659Y01033D01*
X039619Y01029D01*
X039579D01*
X039619Y01025D01*
X039579Y01021D01*
X039619D01*
X039659Y01017D01*
X037069Y01092D02*
X037109Y011D01*
X037069Y01108D01*
X037149Y01104D01*
X037229Y01108D01*
X037189Y011D01*
X037229Y01092D01*
X037149Y01096D01*
X037069Y01092D01*
X037079Y01292D02*
X037119Y013D01*
X037079Y01308D01*
X037159Y01304D01*
X037239Y01308D01*
X037199Y013D01*
X037239Y01292D01*
X037159Y01296D01*
X037079Y01292D01*
X042079D02*
X042119Y013D01*
X042079Y01308D01*
X042159Y01304D01*
X042239Y01308D01*
X042199Y013D01*
X042239Y01292D01*
X042159Y01296D01*
X042079Y01292D01*
Y01092D02*
X042119Y011D01*
X042079Y01108D01*
X042159Y01104D01*
X042239Y01108D01*
X042199Y011D01*
X042239Y01092D01*
X042159Y01096D01*
X042079Y01092D01*
X032529Y01367D02*
X032569Y01371D01*
X032609D01*
X032569Y01375D01*
X032609Y01379D01*
X032569D01*
X032529Y01383D01*
X032489Y01379D01*
X032449D01*
X032489Y01375D01*
X032449Y01371D01*
X032489D01*
X032529Y01367D01*
Y01017D02*
X032569Y01021D01*
X032609D01*
X032569Y01025D01*
X032609Y01029D01*
X032569D01*
X032529Y01033D01*
X032489Y01029D01*
X032449D01*
X032489Y01025D01*
X032449Y01021D01*
X032489D01*
X032529Y01017D01*
X029939Y01092D02*
X029979Y011D01*
X029939Y01108D01*
X030019Y01104D01*
X030099Y01108D01*
X030059Y011D01*
X030099Y01092D01*
X030019Y01096D01*
X029939Y01092D01*
X029949Y01292D02*
X029989Y013D01*
X029949Y01308D01*
X030029Y01304D01*
X030109Y01308D01*
X030069Y013D01*
X030109Y01292D01*
X030029Y01296D01*
X029949Y01292D01*
X034949D02*
X034989Y013D01*
X034949Y01308D01*
X035029Y01304D01*
X035109Y01308D01*
X035069Y013D01*
X035109Y01292D01*
X035029Y01296D01*
X034949Y01292D01*
Y01092D02*
X034989Y011D01*
X034949Y01108D01*
X035029Y01104D01*
X035109Y01108D01*
X035069Y011D01*
X035109Y01092D01*
X035029Y01096D01*
X034949Y01092D01*
X0254Y01367D02*
X02544Y01371D01*
X02548D01*
X02544Y01375D01*
X02548Y01379D01*
X02544D01*
X0254Y01383D01*
X02536Y01379D01*
X02532D01*
X02536Y01375D01*
X02532Y01371D01*
X02536D01*
X0254Y01367D01*
Y01017D02*
X02544Y01021D01*
X02548D01*
X02544Y01025D01*
X02548Y01029D01*
X02544D01*
X0254Y01033D01*
X02536Y01029D01*
X02532D01*
X02536Y01025D01*
X02532Y01021D01*
X02536D01*
X0254Y01017D01*
X02281Y01092D02*
X02285Y011D01*
X02281Y01108D01*
X02289Y01104D01*
X02297Y01108D01*
X02293Y011D01*
X02297Y01092D01*
X02289Y01096D01*
X02281Y01092D01*
X02282Y01292D02*
X02286Y013D01*
X02282Y01308D01*
X0229Y01304D01*
X02298Y01308D01*
X02294Y013D01*
X02298Y01292D01*
X0229Y01296D01*
X02282Y01292D01*
X02782D02*
X02786Y013D01*
X02782Y01308D01*
X0279Y01304D01*
X02798Y01308D01*
X02794Y013D01*
X02798Y01292D01*
X0279Y01296D01*
X02782Y01292D01*
Y01092D02*
X02786Y011D01*
X02782Y01108D01*
X0279Y01104D01*
X02798Y01108D01*
X02794Y011D01*
X02798Y01092D01*
X0279Y01096D01*
X02782Y01092D01*
X04918Y01531D02*
Y01527D01*
X04926D01*
Y01531D01*
X0493D01*
Y01539D01*
X04926D01*
Y01543D01*
X04918D01*
Y01539D01*
X04914D01*
Y01531D01*
X04918D01*
X04414D02*
Y01527D01*
X04422D01*
Y01531D01*
X04426D01*
Y01539D01*
X04422D01*
Y01543D01*
X04414D01*
Y01539D01*
X0441D01*
Y01531D01*
X04414D01*
X04205D02*
Y01527D01*
X04213D01*
Y01531D01*
X04217D01*
Y01539D01*
X04213D01*
Y01543D01*
X04205D01*
Y01539D01*
X04201D01*
Y01531D01*
X04205D01*
X037011D02*
Y01527D01*
X037091D01*
Y01531D01*
X037131D01*
Y01539D01*
X037091D01*
Y01543D01*
X037011D01*
Y01539D01*
X036971D01*
Y01531D01*
X037011D01*
X03492D02*
Y01527D01*
X035D01*
Y01531D01*
X03504D01*
Y01539D01*
X035D01*
Y01543D01*
X03492D01*
Y01539D01*
X03488D01*
Y01531D01*
X03492D01*
X029881D02*
Y01527D01*
X029961D01*
Y01531D01*
X030001D01*
Y01539D01*
X029961D01*
Y01543D01*
X029881D01*
Y01539D01*
X029841D01*
Y01531D01*
X029881D01*
X027791D02*
Y01527D01*
X027871D01*
Y01531D01*
X027911D01*
Y01539D01*
X027871D01*
Y01543D01*
X027791D01*
Y01539D01*
X027751D01*
Y01531D01*
X027791D01*
X022751D02*
Y01527D01*
X022831D01*
Y01531D01*
X022871D01*
Y01539D01*
X022831D01*
Y01543D01*
X022751D01*
Y01539D01*
X022711D01*
Y01531D01*
X022751D01*
X046789Y02027D02*
X046829Y02031D01*
X046869D01*
X046829Y02035D01*
X046869Y02039D01*
X046829D01*
X046789Y02043D01*
X046749Y02039D01*
X046709D01*
X046749Y02035D01*
X046709Y02031D01*
X046749D01*
X046789Y02027D01*
Y01677D02*
X046829Y01681D01*
X046869D01*
X046829Y01685D01*
X046869Y01689D01*
X046829D01*
X046789Y01693D01*
X046749Y01689D01*
X046709D01*
X046749Y01685D01*
X046709Y01681D01*
X046749D01*
X046789Y01677D01*
X044199Y01752D02*
X044239Y0176D01*
X044199Y01768D01*
X044279Y01764D01*
X044359Y01768D01*
X044319Y0176D01*
X044359Y01752D01*
X044279Y01756D01*
X044199Y01752D01*
X044209Y01952D02*
X044249Y0196D01*
X044209Y01968D01*
X044289Y01964D01*
X044369Y01968D01*
X044329Y0196D01*
X044369Y01952D01*
X044289Y01956D01*
X044209Y01952D01*
X049209D02*
X049249Y0196D01*
X049209Y01968D01*
X049289Y01964D01*
X049369Y01968D01*
X049329Y0196D01*
X049369Y01952D01*
X049289Y01956D01*
X049209Y01952D01*
Y01752D02*
X049249Y0176D01*
X049209Y01768D01*
X049289Y01764D01*
X049369Y01768D01*
X049329Y0176D01*
X049369Y01752D01*
X049289Y01756D01*
X049209Y01752D01*
X039659Y02027D02*
X039699Y02031D01*
X039739D01*
X039699Y02035D01*
X039739Y02039D01*
X039699D01*
X039659Y02043D01*
X039619Y02039D01*
X039579D01*
X039619Y02035D01*
X039579Y02031D01*
X039619D01*
X039659Y02027D01*
Y01677D02*
X039699Y01681D01*
X039739D01*
X039699Y01685D01*
X039739Y01689D01*
X039699D01*
X039659Y01693D01*
X039619Y01689D01*
X039579D01*
X039619Y01685D01*
X039579Y01681D01*
X039619D01*
X039659Y01677D01*
X037069Y01752D02*
X037109Y0176D01*
X037069Y01768D01*
X037149Y01764D01*
X037229Y01768D01*
X037189Y0176D01*
X037229Y01752D01*
X037149Y01756D01*
X037069Y01752D01*
X037079Y01952D02*
X037119Y0196D01*
X037079Y01968D01*
X037159Y01964D01*
X037239Y01968D01*
X037199Y0196D01*
X037239Y01952D01*
X037159Y01956D01*
X037079Y01952D01*
X042079D02*
X042119Y0196D01*
X042079Y01968D01*
X042159Y01964D01*
X042239Y01968D01*
X042199Y0196D01*
X042239Y01952D01*
X042159Y01956D01*
X042079Y01952D01*
Y01752D02*
X042119Y0176D01*
X042079Y01768D01*
X042159Y01764D01*
X042239Y01768D01*
X042199Y0176D01*
X042239Y01752D01*
X042159Y01756D01*
X042079Y01752D01*
X032529Y02027D02*
X032569Y02031D01*
X032609D01*
X032569Y02035D01*
X032609Y02039D01*
X032569D01*
X032529Y02043D01*
X032489Y02039D01*
X032449D01*
X032489Y02035D01*
X032449Y02031D01*
X032489D01*
X032529Y02027D01*
Y01677D02*
X032569Y01681D01*
X032609D01*
X032569Y01685D01*
X032609Y01689D01*
X032569D01*
X032529Y01693D01*
X032489Y01689D01*
X032449D01*
X032489Y01685D01*
X032449Y01681D01*
X032489D01*
X032529Y01677D01*
X029939Y01752D02*
X029979Y0176D01*
X029939Y01768D01*
X030019Y01764D01*
X030099Y01768D01*
X030059Y0176D01*
X030099Y01752D01*
X030019Y01756D01*
X029939Y01752D01*
X029949Y01952D02*
X029989Y0196D01*
X029949Y01968D01*
X030029Y01964D01*
X030109Y01968D01*
X030069Y0196D01*
X030109Y01952D01*
X030029Y01956D01*
X029949Y01952D01*
X034949D02*
X034989Y0196D01*
X034949Y01968D01*
X035029Y01964D01*
X035109Y01968D01*
X035069Y0196D01*
X035109Y01952D01*
X035029Y01956D01*
X034949Y01952D01*
Y01752D02*
X034989Y0176D01*
X034949Y01768D01*
X035029Y01764D01*
X035109Y01768D01*
X035069Y0176D01*
X035109Y01752D01*
X035029Y01756D01*
X034949Y01752D01*
X04918Y02201D02*
Y02197D01*
X04926D01*
Y02201D01*
X0493D01*
Y02209D01*
X04926D01*
Y02213D01*
X04918D01*
Y02209D01*
X04914D01*
Y02201D01*
X04918D01*
X04414D02*
Y02197D01*
X04422D01*
Y02201D01*
X04426D01*
Y02209D01*
X04422D01*
Y02213D01*
X04414D01*
Y02209D01*
X0441D01*
Y02201D01*
X04414D01*
X037011D02*
Y02197D01*
X037091D01*
Y02201D01*
X037131D01*
Y02209D01*
X037091D01*
Y02213D01*
X037011D01*
Y02209D01*
X036971D01*
Y02201D01*
X037011D01*
X04205D02*
Y02197D01*
X04213D01*
Y02201D01*
X04217D01*
Y02209D01*
X04213D01*
Y02213D01*
X04205D01*
Y02209D01*
X04201D01*
Y02201D01*
X04205D01*
X029881D02*
Y02197D01*
X029961D01*
Y02201D01*
X030001D01*
Y02209D01*
X029961D01*
Y02213D01*
X029881D01*
Y02209D01*
X029841D01*
Y02201D01*
X029881D01*
X03492D02*
Y02197D01*
X035D01*
Y02201D01*
X03504D01*
Y02209D01*
X035D01*
Y02213D01*
X03492D01*
Y02209D01*
X03488D01*
Y02201D01*
X03492D01*
X022751D02*
Y02197D01*
X022831D01*
Y02201D01*
X022871D01*
Y02209D01*
X022831D01*
Y02213D01*
X022751D01*
Y02209D01*
X022711D01*
Y02201D01*
X022751D01*
X027791D02*
Y02197D01*
X027871D01*
Y02201D01*
X027911D01*
Y02209D01*
X027871D01*
Y02213D01*
X027791D01*
Y02209D01*
X027751D01*
Y02201D01*
X027791D01*
X0254Y027019D02*
X02544Y027059D01*
X02548D01*
X02544Y027099D01*
X02548Y027139D01*
X02544D01*
X0254Y027179D01*
X02536Y027139D01*
X02532D01*
X02536Y027099D01*
X02532Y027059D01*
X02536D01*
X0254Y027019D01*
Y023519D02*
X02544Y023559D01*
X02548D01*
X02544Y023599D01*
X02548Y023639D01*
X02544D01*
X0254Y023679D01*
X02536Y023639D01*
X02532D01*
X02536Y023599D01*
X02532Y023559D01*
X02536D01*
X0254Y023519D01*
X02281Y024269D02*
X02285Y024349D01*
X02281Y024429D01*
X02289Y024389D01*
X02297Y024429D01*
X02293Y024349D01*
X02297Y024269D01*
X02289Y024309D01*
X02281Y024269D01*
X02282Y026269D02*
X02286Y026349D01*
X02282Y026429D01*
X0229Y026389D01*
X02298Y026429D01*
X02294Y026349D01*
X02298Y026269D01*
X0229Y026309D01*
X02282Y026269D01*
X02782D02*
X02786Y026349D01*
X02782Y026429D01*
X0279Y026389D01*
X02798Y026429D01*
X02794Y026349D01*
X02798Y026269D01*
X0279Y026309D01*
X02782Y026269D01*
Y024269D02*
X02786Y024349D01*
X02782Y024429D01*
X0279Y024389D01*
X02798Y024429D01*
X02794Y024349D01*
X02798Y024269D01*
X0279Y024309D01*
X02782Y024269D01*
X032529Y027019D02*
X032569Y027059D01*
X032609D01*
X032569Y027099D01*
X032609Y027139D01*
X032569D01*
X032529Y027179D01*
X032489Y027139D01*
X032449D01*
X032489Y027099D01*
X032449Y027059D01*
X032489D01*
X032529Y027019D01*
Y023519D02*
X032569Y023559D01*
X032609D01*
X032569Y023599D01*
X032609Y023639D01*
X032569D01*
X032529Y023679D01*
X032489Y023639D01*
X032449D01*
X032489Y023599D01*
X032449Y023559D01*
X032489D01*
X032529Y023519D01*
X029939Y024269D02*
X029979Y024349D01*
X029939Y024429D01*
X030019Y024389D01*
X030099Y024429D01*
X030059Y024349D01*
X030099Y024269D01*
X030019Y024309D01*
X029939Y024269D01*
X029949Y026269D02*
X029989Y026349D01*
X029949Y026429D01*
X030029Y026389D01*
X030109Y026429D01*
X030069Y026349D01*
X030109Y026269D01*
X030029Y026309D01*
X029949Y026269D01*
X034949D02*
X034989Y026349D01*
X034949Y026429D01*
X035029Y026389D01*
X035109Y026429D01*
X035069Y026349D01*
X035109Y026269D01*
X035029Y026309D01*
X034949Y026269D01*
Y024269D02*
X034989Y024349D01*
X034949Y024429D01*
X035029Y024389D01*
X035109Y024429D01*
X035069Y024349D01*
X035109Y024269D01*
X035029Y024309D01*
X034949Y024269D01*
X039659Y027019D02*
X039699Y027059D01*
X039739D01*
X039699Y027099D01*
X039739Y027139D01*
X039699D01*
X039659Y027179D01*
X039619Y027139D01*
X039579D01*
X039619Y027099D01*
X039579Y027059D01*
X039619D01*
X039659Y027019D01*
Y023519D02*
X039699Y023559D01*
X039739D01*
X039699Y023599D01*
X039739Y023639D01*
X039699D01*
X039659Y023679D01*
X039619Y023639D01*
X039579D01*
X039619Y023599D01*
X039579Y023559D01*
X039619D01*
X039659Y023519D01*
X037069Y024269D02*
X037109Y024349D01*
X037069Y024429D01*
X037149Y024389D01*
X037229Y024429D01*
X037189Y024349D01*
X037229Y024269D01*
X037149Y024309D01*
X037069Y024269D01*
X037079Y026269D02*
X037119Y026349D01*
X037079Y026429D01*
X037159Y026389D01*
X037239Y026429D01*
X037199Y026349D01*
X037239Y026269D01*
X037159Y026309D01*
X037079Y026269D01*
X042079D02*
X042119Y026349D01*
X042079Y026429D01*
X042159Y026389D01*
X042239Y026429D01*
X042199Y026349D01*
X042239Y026269D01*
X042159Y026309D01*
X042079Y026269D01*
Y024269D02*
X042119Y024349D01*
X042079Y024429D01*
X042159Y024389D01*
X042239Y024429D01*
X042199Y024349D01*
X042239Y024269D01*
X042159Y024309D01*
X042079Y024269D01*
X04918Y02881D02*
Y02877D01*
X04926D01*
Y02881D01*
X0493D01*
Y02889D01*
X04926D01*
Y02893D01*
X04918D01*
Y02889D01*
X04914D01*
Y02881D01*
X04918D01*
X04414D02*
Y02877D01*
X04422D01*
Y02881D01*
X04426D01*
Y02889D01*
X04422D01*
Y02893D01*
X04414D01*
Y02889D01*
X0441D01*
Y02881D01*
X04414D01*
X04205D02*
Y02877D01*
X04213D01*
Y02881D01*
X04217D01*
Y02889D01*
X04213D01*
Y02893D01*
X04205D01*
Y02889D01*
X04201D01*
Y02881D01*
X04205D01*
X037011D02*
Y02877D01*
X037091D01*
Y02881D01*
X037131D01*
Y02889D01*
X037091D01*
Y02893D01*
X037011D01*
Y02889D01*
X036971D01*
Y02881D01*
X037011D01*
X03492D02*
Y02877D01*
X035D01*
Y02881D01*
X03504D01*
Y02889D01*
X035D01*
Y02893D01*
X03492D01*
Y02889D01*
X03488D01*
Y02881D01*
X03492D01*
X029881D02*
Y02877D01*
X029961D01*
Y02881D01*
X030001D01*
Y02889D01*
X029961D01*
Y02893D01*
X029881D01*
Y02889D01*
X029841D01*
Y02881D01*
X029881D01*
X02269Y02871D02*
Y02867D01*
X02277D01*
Y02871D01*
X02281D01*
Y02879D01*
X02277D01*
Y02883D01*
X02269D01*
Y02879D01*
X02265D01*
Y02871D01*
X02269D01*
X02773D02*
Y02867D01*
X02781D01*
Y02871D01*
X02785D01*
Y02879D01*
X02781D01*
Y02883D01*
X02773D01*
Y02879D01*
X02769D01*
Y02871D01*
X02773D01*
X039659Y033718D02*
X039699Y033758D01*
X039739D01*
X039699Y033798D01*
X039739Y033838D01*
X039699D01*
X039659Y033878D01*
X039619Y033838D01*
X039579D01*
X039619Y033798D01*
X039579Y033758D01*
X039619D01*
X039659Y033718D01*
Y030218D02*
X039699Y030258D01*
X039739D01*
X039699Y030298D01*
X039739Y030338D01*
X039699D01*
X039659Y030378D01*
X039619Y030338D01*
X039579D01*
X039619Y030298D01*
X039579Y030258D01*
X039619D01*
X039659Y030218D01*
X037069Y030968D02*
X037109Y031048D01*
X037069Y031128D01*
X037149Y031088D01*
X037229Y031128D01*
X037189Y031048D01*
X037229Y030968D01*
X037149Y031008D01*
X037069Y030968D01*
X037079Y032968D02*
X037119Y033048D01*
X037079Y033128D01*
X037159Y033088D01*
X037239Y033128D01*
X037199Y033048D01*
X037239Y032968D01*
X037159Y033008D01*
X037079Y032968D01*
X042079D02*
X042119Y033048D01*
X042079Y033128D01*
X042159Y033088D01*
X042239Y033128D01*
X042199Y033048D01*
X042239Y032968D01*
X042159Y033008D01*
X042079Y032968D01*
Y030968D02*
X042119Y031048D01*
X042079Y031128D01*
X042159Y031088D01*
X042239Y031128D01*
X042199Y031048D01*
X042239Y030968D01*
X042159Y031008D01*
X042079Y030968D01*
X049209D02*
X049249Y031048D01*
X049209Y031128D01*
X049289Y031088D01*
X049369Y031128D01*
X049329Y031048D01*
X049369Y030968D01*
X049289Y031008D01*
X049209Y030968D01*
Y032968D02*
X049249Y033048D01*
X049209Y033128D01*
X049289Y033088D01*
X049369Y033128D01*
X049329Y033048D01*
X049369Y032968D01*
X049289Y033008D01*
X049209Y032968D01*
X044209D02*
X044249Y033048D01*
X044209Y033128D01*
X044289Y033088D01*
X044369Y033128D01*
X044329Y033048D01*
X044369Y032968D01*
X044289Y033008D01*
X044209Y032968D01*
X044199Y030968D02*
X044239Y031048D01*
X044199Y031128D01*
X044279Y031088D01*
X044359Y031128D01*
X044319Y031048D01*
X044359Y030968D01*
X044279Y031008D01*
X044199Y030968D01*
X046789Y030218D02*
X046829Y030258D01*
X046869D01*
X046829Y030298D01*
X046869Y030338D01*
X046829D01*
X046789Y030378D01*
X046749Y030338D01*
X046709D01*
X046749Y030298D01*
X046709Y030258D01*
X046749D01*
X046789Y030218D01*
Y033718D02*
X046829Y033758D01*
X046869D01*
X046829Y033798D01*
X046869Y033838D01*
X046829D01*
X046789Y033878D01*
X046749Y033838D01*
X046709D01*
X046749Y033798D01*
X046709Y033758D01*
X046749D01*
X046789Y033718D01*
X04928Y03536D02*
Y03532D01*
X04936D01*
Y03536D01*
X0494D01*
Y03544D01*
X04936D01*
Y03548D01*
X04928D01*
Y03544D01*
X04924D01*
Y03536D01*
X04928D01*
X04424D02*
Y03532D01*
X04432D01*
Y03536D01*
X04436D01*
Y03544D01*
X04432D01*
Y03548D01*
X04424D01*
Y03544D01*
X0442D01*
Y03536D01*
X04424D01*
X037111D02*
Y03532D01*
X037191D01*
Y03536D01*
X037231D01*
Y03544D01*
X037191D01*
Y03548D01*
X037111D01*
Y03544D01*
X037071D01*
Y03536D01*
X037111D01*
X04215D02*
Y03532D01*
X04223D01*
Y03536D01*
X04227D01*
Y03544D01*
X04223D01*
Y03548D01*
X04215D01*
Y03544D01*
X04211D01*
Y03536D01*
X04215D01*
X029981D02*
Y03532D01*
X030061D01*
Y03536D01*
X030101D01*
Y03544D01*
X030061D01*
Y03548D01*
X029981D01*
Y03544D01*
X029941D01*
Y03536D01*
X029981D01*
X03502D02*
Y03532D01*
X0351D01*
Y03536D01*
X03514D01*
Y03544D01*
X0351D01*
Y03548D01*
X03502D01*
Y03544D01*
X03498D01*
Y03536D01*
X03502D01*
X022851D02*
Y03532D01*
X022931D01*
Y03536D01*
X022971D01*
Y03544D01*
X022931D01*
Y03548D01*
X022851D01*
Y03544D01*
X022811D01*
Y03536D01*
X022851D01*
X027891D02*
Y03532D01*
X027971D01*
Y03536D01*
X028011D01*
Y03544D01*
X027971D01*
Y03548D01*
X027891D01*
Y03544D01*
X027851D01*
Y03536D01*
X027891D01*
X057733Y045078D02*
X057773D01*
X057813Y045118D01*
X057853Y045078D01*
X057893D01*
Y045118D01*
X057853Y045158D01*
X057893Y045198D01*
Y045238D01*
X057853D01*
X057813Y045198D01*
X057773Y045238D01*
X057733D01*
Y045198D01*
X057773Y045158D01*
X057733Y045118D01*
Y045078D01*
X056733D02*
X056773D01*
X056813Y045118D01*
X056853Y045078D01*
X056893D01*
Y045118D01*
X056853Y045158D01*
X056893Y045198D01*
Y045238D01*
X056853D01*
X056813Y045198D01*
X056773Y045238D01*
X056733D01*
Y045198D01*
X056773Y045158D01*
X056733Y045118D01*
Y045078D01*
X057733Y049961D02*
X057773D01*
X057813Y050001D01*
X057853Y049961D01*
X057893D01*
Y050001D01*
X057853Y050041D01*
X057893Y050081D01*
Y050121D01*
X057853D01*
X057813Y050081D01*
X057773Y050121D01*
X057733D01*
Y050081D01*
X057773Y050041D01*
X057733Y050001D01*
Y049961D01*
X056733D02*
X056773D01*
X056813Y050001D01*
X056853Y049961D01*
X056893D01*
Y050001D01*
X056853Y050041D01*
X056893Y050081D01*
Y050121D01*
X056853D01*
X056813Y050081D01*
X056773Y050121D01*
X056733D01*
Y050081D01*
X056773Y050041D01*
X056733Y050001D01*
Y049961D01*
X057733Y040195D02*
X057773D01*
X057813Y040235D01*
X057853Y040195D01*
X057893D01*
Y040235D01*
X057853Y040275D01*
X057893Y040315D01*
Y040355D01*
X057853D01*
X057813Y040315D01*
X057773Y040355D01*
X057733D01*
Y040315D01*
X057773Y040275D01*
X057733Y040235D01*
Y040195D01*
X056733D02*
X056773D01*
X056813Y040235D01*
X056853Y040195D01*
X056893D01*
Y040235D01*
X056853Y040275D01*
X056893Y040315D01*
Y040355D01*
X056853D01*
X056813Y040315D01*
X056773Y040355D01*
X056733D01*
Y040315D01*
X056773Y040275D01*
X056733Y040235D01*
Y040195D01*
X03842Y05475D02*
X0385Y05483D01*
X03858Y05475D01*
X0385Y05467D01*
X03842Y05475D01*
X03742D02*
X0375Y05483D01*
X03758Y05475D01*
X0375Y05467D01*
X03742Y05475D01*
X03642D02*
X0365Y05483D01*
X03658Y05475D01*
X0365Y05467D01*
X03642Y05475D01*
X03542D02*
X0355Y05483D01*
X03558Y05475D01*
X0355Y05467D01*
X03542Y05475D01*
X03442D02*
X0345Y05483D01*
X03458Y05475D01*
X0345Y05467D01*
X03442Y05475D01*
X03342D02*
X0335Y05483D01*
X03358Y05475D01*
X0335Y05467D01*
X03342Y05475D01*
X03242D02*
X0325Y05483D01*
X03258Y05475D01*
X0325Y05467D01*
X03242Y05475D01*
X03142D02*
X0315Y05483D01*
X03158Y05475D01*
X0315Y05467D01*
X03142Y05475D01*
X03042D02*
X0305Y05483D01*
X03058Y05475D01*
X0305Y05467D01*
X03042Y05475D01*
X02942D02*
X0295Y05483D01*
X02958Y05475D01*
X0295Y05467D01*
X02942Y05475D01*
X02842D02*
X0285Y05483D01*
X02858Y05475D01*
X0285Y05467D01*
X02842Y05475D01*
X02742D02*
X0275Y05483D01*
X02758Y05475D01*
X0275Y05467D01*
X02742Y05475D01*
X02642D02*
X0265Y05483D01*
X02658Y05475D01*
X0265Y05467D01*
X02642Y05475D01*
X02542D02*
X0255Y05483D01*
X02558Y05475D01*
X0255Y05467D01*
X02542Y05475D01*
X02442D02*
X0245Y05483D01*
X02458Y05475D01*
X0245Y05467D01*
X02442Y05475D01*
X02342D02*
X0235Y05483D01*
X02358Y05475D01*
X0235Y05467D01*
X02342Y05475D01*
X01307Y02107D02*
Y02123D01*
X01323D01*
Y02107D01*
X01307D01*
X01311Y02111D02*
Y02119D01*
X01319D01*
Y02111D01*
X01311D01*
X01307Y02207D02*
Y02223D01*
X01323D01*
Y02207D01*
X01307D01*
X01311Y02211D02*
Y02219D01*
X01319D01*
Y02211D01*
X01311D01*
X01307Y02407D02*
Y02423D01*
X01323D01*
Y02407D01*
X01307D01*
X01311Y02411D02*
Y02419D01*
X01319D01*
Y02411D01*
X01311D01*
X01307Y02507D02*
Y02523D01*
X01323D01*
Y02507D01*
X01307D01*
X01311Y02511D02*
Y02519D01*
X01319D01*
Y02511D01*
X01311D01*
X01307Y02607D02*
Y02623D01*
X01323D01*
Y02607D01*
X01307D01*
X01311Y02611D02*
Y02619D01*
X01319D01*
Y02611D01*
X01311D01*
X01307Y02707D02*
Y02723D01*
X01323D01*
Y02707D01*
X01307D01*
X01311Y02711D02*
Y02719D01*
X01319D01*
Y02711D01*
X01311D01*
X01307Y02807D02*
Y02823D01*
X01323D01*
Y02807D01*
X01307D01*
X01311Y02811D02*
Y02819D01*
X01319D01*
Y02811D01*
X01311D01*
X01307Y02907D02*
Y02923D01*
X01323D01*
Y02907D01*
X01307D01*
X01311Y02911D02*
Y02919D01*
X01319D01*
Y02911D01*
X01311D01*
X01307Y03007D02*
Y03023D01*
X01323D01*
Y03007D01*
X01307D01*
X01311Y03011D02*
Y03019D01*
X01319D01*
Y03011D01*
X01311D01*
X01307Y02307D02*
Y02323D01*
X01323D01*
Y02307D01*
X01307D01*
X01311Y02311D02*
Y02319D01*
X01319D01*
Y02311D01*
X01311D01*
X01307Y02007D02*
Y02023D01*
X01323D01*
Y02007D01*
X01307D01*
X01311Y02011D02*
Y02019D01*
X01319D01*
Y02011D01*
X01311D01*
X01307Y01907D02*
Y01923D01*
X01323D01*
Y01907D01*
X01307D01*
X01311Y01911D02*
Y01919D01*
X01319D01*
Y01911D01*
X01311D01*
X01307Y01807D02*
Y01823D01*
X01323D01*
Y01807D01*
X01307D01*
X01311Y01811D02*
Y01819D01*
X01319D01*
Y01811D01*
X01311D01*
X01307Y01707D02*
Y01723D01*
X01323D01*
Y01707D01*
X01307D01*
X01311Y01711D02*
Y01719D01*
X01319D01*
Y01711D01*
X01311D01*
X01307Y01607D02*
Y01623D01*
X01323D01*
Y01607D01*
X01307D01*
X01311Y01611D02*
Y01619D01*
X01319D01*
Y01611D01*
X01311D01*
X01907Y01612D02*
Y01628D01*
X01923D01*
Y01612D01*
X01907D01*
X01911Y01616D02*
Y01624D01*
X01919D01*
Y01616D01*
X01911D01*
X01907Y01712D02*
Y01728D01*
X01923D01*
Y01712D01*
X01907D01*
X01911Y01716D02*
Y01724D01*
X01919D01*
Y01716D01*
X01911D01*
X01907Y01812D02*
Y01828D01*
X01923D01*
Y01812D01*
X01907D01*
X01911Y01816D02*
Y01824D01*
X01919D01*
Y01816D01*
X01911D01*
X01907Y01912D02*
Y01928D01*
X01923D01*
Y01912D01*
X01907D01*
X01911Y01916D02*
Y01924D01*
X01919D01*
Y01916D01*
X01911D01*
X01907Y02012D02*
Y02028D01*
X01923D01*
Y02012D01*
X01907D01*
X01911Y02016D02*
Y02024D01*
X01919D01*
Y02016D01*
X01911D01*
X01907Y02312D02*
Y02328D01*
X01923D01*
Y02312D01*
X01907D01*
X01911Y02316D02*
Y02324D01*
X01919D01*
Y02316D01*
X01911D01*
X01907Y03012D02*
Y03028D01*
X01923D01*
Y03012D01*
X01907D01*
X01911Y03016D02*
Y03024D01*
X01919D01*
Y03016D01*
X01911D01*
X01907Y02912D02*
Y02928D01*
X01923D01*
Y02912D01*
X01907D01*
X01911Y02916D02*
Y02924D01*
X01919D01*
Y02916D01*
X01911D01*
X01907Y02812D02*
Y02828D01*
X01923D01*
Y02812D01*
X01907D01*
X01911Y02816D02*
Y02824D01*
X01919D01*
Y02816D01*
X01911D01*
X01907Y02712D02*
Y02728D01*
X01923D01*
Y02712D01*
X01907D01*
X01911Y02716D02*
Y02724D01*
X01919D01*
Y02716D01*
X01911D01*
X01907Y02612D02*
Y02628D01*
X01923D01*
Y02612D01*
X01907D01*
X01911Y02616D02*
Y02624D01*
X01919D01*
Y02616D01*
X01911D01*
X01907Y02512D02*
Y02528D01*
X01923D01*
Y02512D01*
X01907D01*
X01911Y02516D02*
Y02524D01*
X01919D01*
Y02516D01*
X01911D01*
X01907Y02412D02*
Y02428D01*
X01923D01*
Y02412D01*
X01907D01*
X01911Y02416D02*
Y02424D01*
X01919D01*
Y02416D01*
X01911D01*
X01907Y02212D02*
Y02228D01*
X01923D01*
Y02212D01*
X01907D01*
X01911Y02216D02*
Y02224D01*
X01919D01*
Y02216D01*
X01911D01*
X01907Y02112D02*
Y02128D01*
X01923D01*
Y02112D01*
X01907D01*
X01911Y02116D02*
Y02124D01*
X01919D01*
Y02116D01*
X01911D01*
X0557Y02857D02*
X05562Y02873D01*
X05578D01*
X0557Y02857D01*
X0547D02*
X05462Y02873D01*
X05478D01*
X0547Y02857D01*
X0537D02*
X05362Y02873D01*
X05378D01*
X0537Y02857D01*
X0527D02*
X05262Y02873D01*
X05278D01*
X0527Y02857D01*
X0557Y02557D02*
X05562Y02573D01*
X05578D01*
X0557Y02557D01*
X0547D02*
X05462Y02573D01*
X05478D01*
X0547Y02557D01*
X0537D02*
X05362Y02573D01*
X05378D01*
X0537Y02557D01*
X0527D02*
X05262Y02573D01*
X05278D01*
X0527Y02557D01*
X05816Y02756D02*
Y02752D01*
X05824D01*
Y02756D01*
X05828D01*
Y02764D01*
X05824D01*
Y02768D01*
X05816D01*
Y02764D01*
X05812D01*
Y02756D01*
X05816D01*
Y02656D02*
Y02652D01*
X05824D01*
Y02656D01*
X05828D01*
Y02664D01*
X05824D01*
Y02668D01*
X05816D01*
Y02664D01*
X05812D01*
Y02656D01*
X05816D01*
X05706Y02761D02*
Y02757D01*
X05714D01*
Y02761D01*
X05718D01*
Y02769D01*
X05714D01*
Y02773D01*
X05706D01*
Y02769D01*
X05702D01*
Y02761D01*
X05706D01*
Y02661D02*
Y02657D01*
X05714D01*
Y02661D01*
X05718D01*
Y02669D01*
X05714D01*
Y02673D01*
X05706D01*
Y02669D01*
X05702D01*
Y02661D01*
X05706D01*
X01422Y049987D02*
X01426D01*
X0143Y050027D01*
X01434Y049987D01*
X01438D01*
Y050027D01*
X01434Y050067D01*
X01438Y050107D01*
Y050147D01*
X01434D01*
X0143Y050107D01*
X01426Y050147D01*
X01422D01*
Y050107D01*
X01426Y050067D01*
X01422Y050027D01*
Y049987D01*
X01522D02*
X01526D01*
X0153Y050027D01*
X01534Y049987D01*
X01538D01*
Y050027D01*
X01534Y050067D01*
X01538Y050107D01*
Y050147D01*
X01534D01*
X0153Y050107D01*
X01526Y050147D01*
X01522D01*
Y050107D01*
X01526Y050067D01*
X01522Y050027D01*
Y049987D01*
X05977Y01432D02*
Y01448D01*
X05993D01*
Y01432D01*
X05977D01*
X05981Y01436D02*
Y01444D01*
X05989D01*
Y01436D01*
X05981D01*
X05977Y01532D02*
Y01548D01*
X05993D01*
Y01532D01*
X05977D01*
X05981Y01536D02*
Y01544D01*
X05989D01*
Y01536D01*
X05981D01*
X05977Y01632D02*
Y01648D01*
X05993D01*
Y01632D01*
X05977D01*
X05981Y01636D02*
Y01644D01*
X05989D01*
Y01636D01*
X05981D01*
X05977Y01732D02*
Y01748D01*
X05993D01*
Y01732D01*
X05977D01*
X05981Y01736D02*
Y01744D01*
X05989D01*
Y01736D01*
X05981D01*
X05977Y01832D02*
Y01848D01*
X05993D01*
Y01832D01*
X05977D01*
X05981Y01836D02*
Y01844D01*
X05989D01*
Y01836D01*
X05981D01*
X05977Y01932D02*
Y01948D01*
X05993D01*
Y01932D01*
X05977D01*
X05981Y01936D02*
Y01944D01*
X05989D01*
Y01936D01*
X05981D01*
X05977Y02032D02*
Y02048D01*
X05993D01*
Y02032D01*
X05977D01*
X05981Y02036D02*
Y02044D01*
X05989D01*
Y02036D01*
X05981D01*
X05977Y02132D02*
Y02148D01*
X05993D01*
Y02132D01*
X05977D01*
X05981Y02136D02*
Y02144D01*
X05989D01*
Y02136D01*
X05981D01*
X05977Y02232D02*
Y02248D01*
X05993D01*
Y02232D01*
X05977D01*
X05981Y02236D02*
Y02244D01*
X05989D01*
Y02236D01*
X05981D01*
X05977Y02332D02*
Y02348D01*
X05993D01*
Y02332D01*
X05977D01*
X05981Y02336D02*
Y02344D01*
X05989D01*
Y02336D01*
X05981D01*
X06077Y02332D02*
Y02348D01*
X06093D01*
Y02332D01*
X06077D01*
X06081Y02336D02*
Y02344D01*
X06089D01*
Y02336D01*
X06081D01*
X06077Y02232D02*
Y02248D01*
X06093D01*
Y02232D01*
X06077D01*
X06081Y02236D02*
Y02244D01*
X06089D01*
Y02236D01*
X06081D01*
X06077Y02132D02*
Y02148D01*
X06093D01*
Y02132D01*
X06077D01*
X06081Y02136D02*
Y02144D01*
X06089D01*
Y02136D01*
X06081D01*
X06077Y02032D02*
Y02048D01*
X06093D01*
Y02032D01*
X06077D01*
X06081Y02036D02*
Y02044D01*
X06089D01*
Y02036D01*
X06081D01*
X06077Y01932D02*
Y01948D01*
X06093D01*
Y01932D01*
X06077D01*
X06081Y01936D02*
Y01944D01*
X06089D01*
Y01936D01*
X06081D01*
X06077Y01832D02*
Y01848D01*
X06093D01*
Y01832D01*
X06077D01*
X06081Y01836D02*
Y01844D01*
X06089D01*
Y01836D01*
X06081D01*
X06077Y01732D02*
Y01748D01*
X06093D01*
Y01732D01*
X06077D01*
X06081Y01736D02*
Y01744D01*
X06089D01*
Y01736D01*
X06081D01*
X06077Y01632D02*
Y01648D01*
X06093D01*
Y01632D01*
X06077D01*
X06081Y01636D02*
Y01644D01*
X06089D01*
Y01636D01*
X06081D01*
X06077Y01532D02*
Y01548D01*
X06093D01*
Y01532D01*
X06077D01*
X06081Y01536D02*
Y01544D01*
X06089D01*
Y01536D01*
X06081D01*
X06077Y01432D02*
Y01448D01*
X06093D01*
Y01432D01*
X06077D01*
X06081Y01436D02*
Y01444D01*
X06089D01*
Y01436D01*
X06081D01*
X032529Y033718D02*
X032569Y033758D01*
X032609D01*
X032569Y033798D01*
X032609Y033838D01*
X032569D01*
X032529Y033878D01*
X032489Y033838D01*
X032449D01*
X032489Y033798D01*
X032449Y033758D01*
X032489D01*
X032529Y033718D01*
Y030218D02*
X032569Y030258D01*
X032609D01*
X032569Y030298D01*
X032609Y030338D01*
X032569D01*
X032529Y030378D01*
X032489Y030338D01*
X032449D01*
X032489Y030298D01*
X032449Y030258D01*
X032489D01*
X032529Y030218D01*
X029939Y030968D02*
X029979Y031048D01*
X029939Y031128D01*
X030019Y031088D01*
X030099Y031128D01*
X030059Y031048D01*
X030099Y030968D01*
X030019Y031008D01*
X029939Y030968D01*
X029949Y032968D02*
X029989Y033048D01*
X029949Y033128D01*
X030029Y033088D01*
X030109Y033128D01*
X030069Y033048D01*
X030109Y032968D01*
X030029Y033008D01*
X029949Y032968D01*
X034949D02*
X034989Y033048D01*
X034949Y033128D01*
X035029Y033088D01*
X035109Y033128D01*
X035069Y033048D01*
X035109Y032968D01*
X035029Y033008D01*
X034949Y032968D01*
Y030968D02*
X034989Y031048D01*
X034949Y031128D01*
X035029Y031088D01*
X035109Y031128D01*
X035069Y031048D01*
X035109Y030968D01*
X035029Y031008D01*
X034949Y030968D01*
X046789Y01367D02*
X046829Y01371D01*
X046869D01*
X046829Y01375D01*
X046869Y01379D01*
X046829D01*
X046789Y01383D01*
X046749Y01379D01*
X046709D01*
X046749Y01375D01*
X046709Y01371D01*
X046749D01*
X046789Y01367D01*
Y01017D02*
X046829Y01021D01*
X046869D01*
X046829Y01025D01*
X046869Y01029D01*
X046829D01*
X046789Y01033D01*
X046749Y01029D01*
X046709D01*
X046749Y01025D01*
X046709Y01021D01*
X046749D01*
X046789Y01017D01*
X044199Y01092D02*
X044239Y011D01*
X044199Y01108D01*
X044279Y01104D01*
X044359Y01108D01*
X044319Y011D01*
X044359Y01092D01*
X044279Y01096D01*
X044199Y01092D01*
X044209Y01292D02*
X044249Y013D01*
X044209Y01308D01*
X044289Y01304D01*
X044369Y01308D01*
X044329Y013D01*
X044369Y01292D01*
X044289Y01296D01*
X044209Y01292D01*
X049209D02*
X049249Y013D01*
X049209Y01308D01*
X049289Y01304D01*
X049369Y01308D01*
X049329Y013D01*
X049369Y01292D01*
X049289Y01296D01*
X049209Y01292D01*
Y01092D02*
X049249Y011D01*
X049209Y01108D01*
X049289Y01104D01*
X049369Y01108D01*
X049329Y011D01*
X049369Y01092D01*
X049289Y01096D01*
X049209Y01092D01*
X0254Y02027D02*
X02544Y02031D01*
X02548D01*
X02544Y02035D01*
X02548Y02039D01*
X02544D01*
X0254Y02043D01*
X02536Y02039D01*
X02532D01*
X02536Y02035D01*
X02532Y02031D01*
X02536D01*
X0254Y02027D01*
Y01677D02*
X02544Y01681D01*
X02548D01*
X02544Y01685D01*
X02548Y01689D01*
X02544D01*
X0254Y01693D01*
X02536Y01689D01*
X02532D01*
X02536Y01685D01*
X02532Y01681D01*
X02536D01*
X0254Y01677D01*
X02281Y01752D02*
X02285Y0176D01*
X02281Y01768D01*
X02289Y01764D01*
X02297Y01768D01*
X02293Y0176D01*
X02297Y01752D01*
X02289Y01756D01*
X02281Y01752D01*
X02282Y01952D02*
X02286Y0196D01*
X02282Y01968D01*
X0229Y01964D01*
X02298Y01968D01*
X02294Y0196D01*
X02298Y01952D01*
X0229Y01956D01*
X02282Y01952D01*
X02782D02*
X02786Y0196D01*
X02782Y01968D01*
X0279Y01964D01*
X02798Y01968D01*
X02794Y0196D01*
X02798Y01952D01*
X0279Y01956D01*
X02782Y01952D01*
Y01752D02*
X02786Y0176D01*
X02782Y01768D01*
X0279Y01764D01*
X02798Y01768D01*
X02794Y0176D01*
X02798Y01752D01*
X0279Y01756D01*
X02782Y01752D01*
X046789Y027019D02*
X046829Y027059D01*
X046869D01*
X046829Y027099D01*
X046869Y027139D01*
X046829D01*
X046789Y027179D01*
X046749Y027139D01*
X046709D01*
X046749Y027099D01*
X046709Y027059D01*
X046749D01*
X046789Y027019D01*
Y023519D02*
X046829Y023559D01*
X046869D01*
X046829Y023599D01*
X046869Y023639D01*
X046829D01*
X046789Y023679D01*
X046749Y023639D01*
X046709D01*
X046749Y023599D01*
X046709Y023559D01*
X046749D01*
X046789Y023519D01*
X044199Y024269D02*
X044239Y024349D01*
X044199Y024429D01*
X044279Y024389D01*
X044359Y024429D01*
X044319Y024349D01*
X044359Y024269D01*
X044279Y024309D01*
X044199Y024269D01*
X044209Y026269D02*
X044249Y026349D01*
X044209Y026429D01*
X044289Y026389D01*
X044369Y026429D01*
X044329Y026349D01*
X044369Y026269D01*
X044289Y026309D01*
X044209Y026269D01*
X049209D02*
X049249Y026349D01*
X049209Y026429D01*
X049289Y026389D01*
X049369Y026429D01*
X049329Y026349D01*
X049369Y026269D01*
X049289Y026309D01*
X049209Y026269D01*
Y024269D02*
X049249Y024349D01*
X049209Y024429D01*
X049289Y024389D01*
X049369Y024429D01*
X049329Y024349D01*
X049369Y024269D01*
X049289Y024309D01*
X049209Y024269D01*
X02782Y030968D02*
X02786Y031048D01*
X02782Y031128D01*
X0279Y031088D01*
X02798Y031128D01*
X02794Y031048D01*
X02798Y030968D01*
X0279Y031008D01*
X02782Y030968D01*
Y032968D02*
X02786Y033048D01*
X02782Y033128D01*
X0279Y033088D01*
X02798Y033128D01*
X02794Y033048D01*
X02798Y032968D01*
X0279Y033008D01*
X02782Y032968D01*
X02282D02*
X02286Y033048D01*
X02282Y033128D01*
X0229Y033088D01*
X02298Y033128D01*
X02294Y033048D01*
X02298Y032968D01*
X0229Y033008D01*
X02282Y032968D01*
X0254Y030218D02*
X02544Y030258D01*
X02548D01*
X02544Y030298D01*
X02548Y030338D01*
X02544D01*
X0254Y030378D01*
X02536Y030338D01*
X02532D01*
X02536Y030298D01*
X02532Y030258D01*
X02536D01*
X0254Y030218D01*
Y033718D02*
X02544Y033758D01*
X02548D01*
X02544Y033798D01*
X02548Y033838D01*
X02544D01*
X0254Y033878D01*
X02536Y033838D01*
X02532D01*
X02536Y033798D01*
X02532Y033758D01*
X02536D01*
X0254Y033718D01*
X02281Y030968D02*
X02285Y031048D01*
X02281Y031128D01*
X02289Y031088D01*
X02297Y031128D01*
X02293Y031048D01*
X02297Y030968D01*
X02289Y031008D01*
X02281Y030968D01*
X0249Y05177D02*
X02482Y05193D01*
X02498D01*
X0249Y05177D01*
Y05181D02*
X02486Y05189D01*
X02494D01*
X0249Y05181D01*
X0259Y05177D02*
X02582Y05193D01*
X02598D01*
X0259Y05177D01*
Y05181D02*
X02586Y05189D01*
X02594D01*
X0259Y05181D01*
X0269Y05177D02*
X02682Y05193D01*
X02698D01*
X0269Y05177D01*
Y05181D02*
X02686Y05189D01*
X02694D01*
X0269Y05181D01*
X01422Y045103D02*
X01426D01*
X0143Y045143D01*
X01434Y045103D01*
X01438D01*
Y045143D01*
X01434Y045183D01*
X01438Y045223D01*
Y045263D01*
X01434D01*
X0143Y045223D01*
X01426Y045263D01*
X01422D01*
Y045223D01*
X01426Y045183D01*
X01422Y045143D01*
Y045103D01*
X01522D02*
X01526D01*
X0153Y045143D01*
X01534Y045103D01*
X01538D01*
Y045143D01*
X01534Y045183D01*
X01538Y045223D01*
Y045263D01*
X01534D01*
X0153Y045223D01*
X01526Y045263D01*
X01522D01*
Y045223D01*
X01526Y045183D01*
X01522Y045143D01*
Y045103D01*
Y04022D02*
X01526D01*
X0153Y04026D01*
X01534Y04022D01*
X01538D01*
Y04026D01*
X01534Y0403D01*
X01538Y04034D01*
Y04038D01*
X01534D01*
X0153Y04034D01*
X01526Y04038D01*
X01522D01*
Y04034D01*
X01526Y0403D01*
X01522Y04026D01*
Y04022D01*
X01422D02*
X01426D01*
X0143Y04026D01*
X01434Y04022D01*
X01438D01*
Y04026D01*
X01434Y0403D01*
X01438Y04034D01*
Y04038D01*
X01434D01*
X0143Y04034D01*
X01426Y04038D01*
X01422D01*
Y04034D01*
X01426Y0403D01*
X01422Y04026D01*
Y04022D01*
X01522Y05487D02*
X01526D01*
X0153Y05491D01*
X01534Y05487D01*
X01538D01*
Y05491D01*
X01534Y05495D01*
X01538Y05499D01*
Y05503D01*
X01534D01*
X0153Y05499D01*
X01526Y05503D01*
X01522D01*
Y05499D01*
X01526Y05495D01*
X01522Y05491D01*
Y05487D01*
X01422D02*
X01426D01*
X0143Y05491D01*
X01434Y05487D01*
X01438D01*
Y05491D01*
X01434Y05495D01*
X01438Y05499D01*
Y05503D01*
X01434D01*
X0143Y05499D01*
X01426Y05503D01*
X01422D01*
Y05499D01*
X01426Y05495D01*
X01422Y05491D01*
Y05487D01*
X056733Y054845D02*
X056773D01*
X056813Y054885D01*
X056853Y054845D01*
X056893D01*
Y054885D01*
X056853Y054925D01*
X056893Y054965D01*
Y055005D01*
X056853D01*
X056813Y054965D01*
X056773Y055005D01*
X056733D01*
Y054965D01*
X056773Y054925D01*
X056733Y054885D01*
Y054845D01*
X057733D02*
X057773D01*
X057813Y054885D01*
X057853Y054845D01*
X057893D01*
Y054885D01*
X057853Y054925D01*
X057893Y054965D01*
Y055005D01*
X057853D01*
X057813Y054965D01*
X057773Y055005D01*
X057733D01*
Y054965D01*
X057773Y054925D01*
X057733Y054885D01*
Y054845D01*
X0218Y02757D02*
X02184Y02761D01*
X02188D01*
X02184Y02765D01*
X02188Y02769D01*
X02184D01*
X0218Y02773D01*
X02176Y02769D01*
X02172D01*
X02176Y02765D01*
X02172Y02761D01*
X02176D01*
X0218Y02757D01*
Y02761D02*
X02182Y02763D01*
X02184D01*
X02182Y02765D01*
X02184Y02767D01*
X02182D01*
X0218Y02769D01*
X02178Y02767D01*
X02176D01*
X02178Y02765D01*
X02176Y02763D01*
X02178D01*
X0218Y02761D01*
X05275Y01337D02*
X05279Y01341D01*
X05283D01*
X05279Y01345D01*
X05283Y01349D01*
X05279D01*
X05275Y01353D01*
X05271Y01349D01*
X05267D01*
X05271Y01345D01*
X05267Y01341D01*
X05271D01*
X05275Y01337D01*
Y01341D02*
X05277Y01343D01*
X05279D01*
X05277Y01345D01*
X05279Y01347D01*
X05277D01*
X05275Y01349D01*
X05273Y01347D01*
X05271D01*
X05273Y01345D01*
X05271Y01343D01*
X05273D01*
X05275Y01341D01*
X0214Y01847D02*
X02144Y01851D01*
X02148D01*
X02144Y01855D01*
X02148Y01859D01*
X02144D01*
X0214Y01863D01*
X02136Y01859D01*
X02132D01*
X02136Y01855D01*
X02132Y01851D01*
X02136D01*
X0214Y01847D01*
Y01851D02*
X02142Y01853D01*
X02144D01*
X02142Y01855D01*
X02144Y01857D01*
X02142D01*
X0214Y01859D01*
X02138Y01857D01*
X02136D01*
X02138Y01855D01*
X02136Y01853D01*
X02138D01*
X0214Y01851D01*
X0165Y01532D02*
X01654Y01536D01*
X01658D01*
X01654Y0154D01*
X01658Y01544D01*
X01654D01*
X0165Y01548D01*
X01646Y01544D01*
X01642D01*
X01646Y0154D01*
X01642Y01536D01*
X01646D01*
X0165Y01532D01*
Y01536D02*
X01652Y01538D01*
X01654D01*
X01652Y0154D01*
X01654Y01542D01*
X01652D01*
X0165Y01544D01*
X01648Y01542D01*
X01646D01*
X01648Y0154D01*
X01646Y01538D01*
X01648D01*
X0165Y01536D01*
X054826Y01512D02*
X054866Y01516D01*
X054906D01*
X054866Y0152D01*
X054906Y01524D01*
X054866D01*
X054826Y01528D01*
X054786Y01524D01*
X054746D01*
X054786Y0152D01*
X054746Y01516D01*
X054786D01*
X054826Y01512D01*
Y01516D02*
X054846Y01518D01*
X054866D01*
X054846Y0152D01*
X054866Y01522D01*
X054846D01*
X054826Y01524D01*
X054806Y01522D01*
X054786D01*
X054806Y0152D01*
X054786Y01518D01*
X054806D01*
X054826Y01516D01*
X0587Y01607D02*
X05874Y01611D01*
X05878D01*
X05874Y01615D01*
X05878Y01619D01*
X05874D01*
X0587Y01623D01*
X05866Y01619D01*
X05862D01*
X05866Y01615D01*
X05862Y01611D01*
X05866D01*
X0587Y01607D01*
Y01611D02*
X05872Y01613D01*
X05874D01*
X05872Y01615D01*
X05874Y01617D01*
X05872D01*
X0587Y01619D01*
X05868Y01617D01*
X05866D01*
X05868Y01615D01*
X05866Y01613D01*
X05868D01*
X0587Y01611D01*
X03925Y02932D02*
X03929Y02936D01*
X03933D01*
X03929Y0294D01*
X03933Y02944D01*
X03929D01*
X03925Y02948D01*
X03921Y02944D01*
X03917D01*
X03921Y0294D01*
X03917Y02936D01*
X03921D01*
X03925Y02932D01*
Y02936D02*
X03927Y02938D01*
X03929D01*
X03927Y0294D01*
X03929Y02942D01*
X03927D01*
X03925Y02944D01*
X03923Y02942D01*
X03921D01*
X03923Y0294D01*
X03921Y02938D01*
X03923D01*
X03925Y02936D01*
X0363Y02937D02*
X03634Y02941D01*
X03638D01*
X03634Y02945D01*
X03638Y02949D01*
X03634D01*
X0363Y02953D01*
X03626Y02949D01*
X03622D01*
X03626Y02945D01*
X03622Y02941D01*
X03626D01*
X0363Y02937D01*
Y02941D02*
X03632Y02943D01*
X03634D01*
X03632Y02945D01*
X03634Y02947D01*
X03632D01*
X0363Y02949D01*
X03628Y02947D01*
X03626D01*
X03628Y02945D01*
X03626Y02943D01*
X03628D01*
X0363Y02941D01*
X056455Y026309D02*
X056495Y026349D01*
X056535D01*
X056495Y026389D01*
X056535Y026429D01*
X056495D01*
X056455Y026469D01*
X056415Y026429D01*
X056375D01*
X056415Y026389D01*
X056375Y026349D01*
X056415D01*
X056455Y026309D01*
Y026349D02*
X056475Y026369D01*
X056495D01*
X056475Y026389D01*
X056495Y026409D01*
X056475D01*
X056455Y026429D01*
X056435Y026409D01*
X056415D01*
X056435Y026389D01*
X056415Y026369D01*
X056435D01*
X056455Y026349D01*
X05695Y02552D02*
X05699Y02556D01*
X05703D01*
X05699Y0256D01*
X05703Y02564D01*
X05699D01*
X05695Y02568D01*
X05691Y02564D01*
X05687D01*
X05691Y0256D01*
X05687Y02556D01*
X05691D01*
X05695Y02552D01*
Y02556D02*
X05697Y02558D01*
X05699D01*
X05697Y0256D01*
X05699Y02562D01*
X05697D01*
X05695Y02564D01*
X05693Y02562D01*
X05691D01*
X05693Y0256D01*
X05691Y02558D01*
X05693D01*
X05695Y02556D01*
X0575Y01357D02*
X05754Y01361D01*
X05758D01*
X05754Y01365D01*
X05758Y01369D01*
X05754D01*
X0575Y01373D01*
X05746Y01369D01*
X05742D01*
X05746Y01365D01*
X05742Y01361D01*
X05746D01*
X0575Y01357D01*
Y01361D02*
X05752Y01363D01*
X05754D01*
X05752Y01365D01*
X05754Y01367D01*
X05752D01*
X0575Y01369D01*
X05748Y01367D01*
X05746D01*
X05748Y01365D01*
X05746Y01363D01*
X05748D01*
X0575Y01361D01*
Y02147D02*
X05754Y02151D01*
X05758D01*
X05754Y02155D01*
X05758Y02159D01*
X05754D01*
X0575Y02163D01*
X05746Y02159D01*
X05742D01*
X05746Y02155D01*
X05742Y02151D01*
X05746D01*
X0575Y02147D01*
Y02151D02*
X05752Y02153D01*
X05754D01*
X05752Y02155D01*
X05754Y02157D01*
X05752D01*
X0575Y02159D01*
X05748Y02157D01*
X05746D01*
X05748Y02155D01*
X05746Y02153D01*
X05748D01*
X0575Y02151D01*
X05375Y01342D02*
X05379Y01346D01*
X05383D01*
X05379Y0135D01*
X05383Y01354D01*
X05379D01*
X05375Y01358D01*
X05371Y01354D01*
X05367D01*
X05371Y0135D01*
X05367Y01346D01*
X05371D01*
X05375Y01342D01*
Y01346D02*
X05377Y01348D01*
X05379D01*
X05377Y0135D01*
X05379Y01352D01*
X05377D01*
X05375Y01354D01*
X05373Y01352D01*
X05371D01*
X05373Y0135D01*
X05371Y01348D01*
X05373D01*
X05375Y01346D01*
X05325Y01457D02*
X05329Y01461D01*
X05333D01*
X05329Y01465D01*
X05333Y01469D01*
X05329D01*
X05325Y01473D01*
X05321Y01469D01*
X05317D01*
X05321Y01465D01*
X05317Y01461D01*
X05321D01*
X05325Y01457D01*
Y01461D02*
X05327Y01463D01*
X05329D01*
X05327Y01465D01*
X05329Y01467D01*
X05327D01*
X05325Y01469D01*
X05323Y01467D01*
X05321D01*
X05323Y01465D01*
X05321Y01463D01*
X05323D01*
X05325Y01461D01*
X05395Y01902D02*
X05399Y01906D01*
X05403D01*
X05399Y0191D01*
X05403Y01914D01*
X05399D01*
X05395Y01918D01*
X05391Y01914D01*
X05387D01*
X05391Y0191D01*
X05387Y01906D01*
X05391D01*
X05395Y01902D01*
Y01906D02*
X05397Y01908D01*
X05399D01*
X05397Y0191D01*
X05399Y01912D01*
X05397D01*
X05395Y01914D01*
X05393Y01912D01*
X05391D01*
X05393Y0191D01*
X05391Y01908D01*
X05393D01*
X05395Y01906D01*
X0218Y02367D02*
X02184Y02371D01*
X02188D01*
X02184Y02375D01*
X02188Y02379D01*
X02184D01*
X0218Y02383D01*
X02176Y02379D01*
X02172D01*
X02176Y02375D01*
X02172Y02371D01*
X02176D01*
X0218Y02367D01*
Y02371D02*
X02182Y02373D01*
X02184D01*
X02182Y02375D01*
X02184Y02377D01*
X02182D01*
X0218Y02379D01*
X02178Y02377D01*
X02176D01*
X02178Y02375D01*
X02176Y02373D01*
X02178D01*
X0218Y02371D01*
X05395Y01832D02*
X05399Y01836D01*
X05403D01*
X05399Y0184D01*
X05403Y01844D01*
X05399D01*
X05395Y01848D01*
X05391Y01844D01*
X05387D01*
X05391Y0184D01*
X05387Y01836D01*
X05391D01*
X05395Y01832D01*
Y01836D02*
X05397Y01838D01*
X05399D01*
X05397Y0184D01*
X05399Y01842D01*
X05397D01*
X05395Y01844D01*
X05393Y01842D01*
X05391D01*
X05393Y0184D01*
X05391Y01838D01*
X05393D01*
X05395Y01836D01*
X054Y01712D02*
X05404Y01716D01*
X05408D01*
X05404Y0172D01*
X05408Y01724D01*
X05404D01*
X054Y01728D01*
X05396Y01724D01*
X05392D01*
X05396Y0172D01*
X05392Y01716D01*
X05396D01*
X054Y01712D01*
Y01716D02*
X05402Y01718D01*
X05404D01*
X05402Y0172D01*
X05404Y01722D01*
X05402D01*
X054Y01724D01*
X05398Y01722D01*
X05396D01*
X05398Y0172D01*
X05396Y01718D01*
X05398D01*
X054Y01716D01*
X05405Y01652D02*
X05409Y01656D01*
X05413D01*
X05409Y0166D01*
X05413Y01664D01*
X05409D01*
X05405Y01668D01*
X05401Y01664D01*
X05397D01*
X05401Y0166D01*
X05397Y01656D01*
X05401D01*
X05405Y01652D01*
Y01656D02*
X05407Y01658D01*
X05409D01*
X05407Y0166D01*
X05409Y01662D01*
X05407D01*
X05405Y01664D01*
X05403Y01662D01*
X05401D01*
X05403Y0166D01*
X05401Y01658D01*
X05403D01*
X05405Y01656D01*
X02175Y02282D02*
X02179Y02286D01*
X02183D01*
X02179Y0229D01*
X02183Y02294D01*
X02179D01*
X02175Y02298D01*
X02171Y02294D01*
X02167D01*
X02171Y0229D01*
X02167Y02286D01*
X02171D01*
X02175Y02282D01*
Y02286D02*
X02177Y02288D01*
X02179D01*
X02177Y0229D01*
X02179Y02292D01*
X02177D01*
X02175Y02294D01*
X02173Y02292D01*
X02171D01*
X02173Y0229D01*
X02171Y02288D01*
X02173D01*
X02175Y02286D01*
X022132Y021052D02*
X022172Y021092D01*
X022212D01*
X022172Y021132D01*
X022212Y021172D01*
X022172D01*
X022132Y021212D01*
X022092Y021172D01*
X022052D01*
X022092Y021132D01*
X022052Y021092D01*
X022092D01*
X022132Y021052D01*
Y021092D02*
X022152Y021112D01*
X022172D01*
X022152Y021132D01*
X022172Y021152D01*
X022152D01*
X022132Y021172D01*
X022112Y021152D01*
X022092D01*
X022112Y021132D01*
X022092Y021112D01*
X022112D01*
X022132Y021092D01*
X02215Y02167D02*
X02219Y02171D01*
X02223D01*
X02219Y02175D01*
X02223Y02179D01*
X02219D01*
X02215Y02183D01*
X02211Y02179D01*
X02207D01*
X02211Y02175D01*
X02207Y02171D01*
X02211D01*
X02215Y02167D01*
Y02171D02*
X02217Y02173D01*
X02219D01*
X02217Y02175D01*
X02219Y02177D01*
X02217D01*
X02215Y02179D01*
X02213Y02177D01*
X02211D01*
X02213Y02175D01*
X02211Y02173D01*
X02213D01*
X02215Y02171D01*
X05065Y01592D02*
X05069Y01596D01*
X05073D01*
X05069Y016D01*
X05073Y01604D01*
X05069D01*
X05065Y01608D01*
X05061Y01604D01*
X05057D01*
X05061Y016D01*
X05057Y01596D01*
X05061D01*
X05065Y01592D01*
Y01596D02*
X05067Y01598D01*
X05069D01*
X05067Y016D01*
X05069Y01602D01*
X05067D01*
X05065Y01604D01*
X05063Y01602D01*
X05061D01*
X05063Y016D01*
X05061Y01598D01*
X05063D01*
X05065Y01596D01*
X0322Y03622D02*
X03224Y03626D01*
X03228D01*
X03224Y0363D01*
X03228Y03634D01*
X03224D01*
X0322Y03638D01*
X03216Y03634D01*
X03212D01*
X03216Y0363D01*
X03212Y03626D01*
X03216D01*
X0322Y03622D01*
Y03626D02*
X03222Y03628D01*
X03224D01*
X03222Y0363D01*
X03224Y03632D01*
X03222D01*
X0322Y03634D01*
X03218Y03632D01*
X03216D01*
X03218Y0363D01*
X03216Y03628D01*
X03218D01*
X0322Y03626D01*
X01785Y03402D02*
X01789Y03406D01*
X01793D01*
X01789Y0341D01*
X01793Y03414D01*
X01789D01*
X01785Y03418D01*
X01781Y03414D01*
X01777D01*
X01781Y0341D01*
X01777Y03406D01*
X01781D01*
X01785Y03402D01*
Y03406D02*
X01787Y03408D01*
X01789D01*
X01787Y0341D01*
X01789Y03412D01*
X01787D01*
X01785Y03414D01*
X01783Y03412D01*
X01781D01*
X01783Y0341D01*
X01781Y03408D01*
X01783D01*
X01785Y03406D01*
X01775Y03492D02*
X01779Y03496D01*
X01783D01*
X01779Y035D01*
X01783Y03504D01*
X01779D01*
X01775Y03508D01*
X01771Y03504D01*
X01767D01*
X01771Y035D01*
X01767Y03496D01*
X01771D01*
X01775Y03492D01*
Y03496D02*
X01777Y03498D01*
X01779D01*
X01777Y035D01*
X01779Y03502D01*
X01777D01*
X01775Y03504D01*
X01773Y03502D01*
X01771D01*
X01773Y035D01*
X01771Y03498D01*
X01773D01*
X01775Y03496D01*
Y03562D02*
X01779Y03566D01*
X01783D01*
X01779Y0357D01*
X01783Y03574D01*
X01779D01*
X01775Y03578D01*
X01771Y03574D01*
X01767D01*
X01771Y0357D01*
X01767Y03566D01*
X01771D01*
X01775Y03562D01*
Y03566D02*
X01777Y03568D01*
X01779D01*
X01777Y0357D01*
X01779Y03572D01*
X01777D01*
X01775Y03574D01*
X01773Y03572D01*
X01771D01*
X01773Y0357D01*
X01771Y03568D01*
X01773D01*
X01775Y03566D01*
D49*
X05573Y030092D02*
G03*
X05573Y030092I-00008J0D01*
G01*
Y034108D02*
G03*
X05573Y034108I-00008J0D01*
G01*
X05458Y030092D02*
G03*
X05458Y030092I-00008J0D01*
G01*
Y034108D02*
G03*
X05458Y034108I-00008J0D01*
G01*
X05343Y030092D02*
G03*
X05343Y030092I-00008J0D01*
G01*
Y034108D02*
G03*
X05343Y034108I-00008J0D01*
G01*
X05228Y030092D02*
G03*
X05228Y030092I-00008J0D01*
G01*
Y034108D02*
G03*
X05228Y034108I-00008J0D01*
G01*
X0571Y0478D02*
G03*
X0571Y0478I-00008J0D01*
G01*
X053085D02*
G03*
X053085Y0478I-00008J0D01*
G01*
X0571Y0429D02*
G03*
X0571Y0429I-00008J0D01*
G01*
X053085D02*
G03*
X053085Y0429I-00008J0D01*
G01*
Y038D02*
G03*
X053085Y038I-00008J0D01*
G01*
X0571D02*
G03*
X0571Y038I-00008J0D01*
G01*
X05388Y024008D02*
G03*
X05388Y024008I-00008J0D01*
G01*
Y019992D02*
G03*
X05388Y019992I-00008J0D01*
G01*
X05923Y013D02*
G03*
X05923Y013I-00008J0D01*
G01*
X055214D02*
G03*
X055214Y013I-00008J0D01*
G01*
X05493Y019992D02*
G03*
X05493Y019992I-00008J0D01*
G01*
Y024008D02*
G03*
X05493Y024008I-00008J0D01*
G01*
X05973Y029208D02*
G03*
X05973Y029208I-00008J0D01*
G01*
Y025192D02*
G03*
X05973Y025192I-00008J0D01*
G01*
X015272Y038D02*
G03*
X015272Y038I-00008J0D01*
G01*
X019288D02*
G03*
X019288Y038I-00008J0D01*
G01*
X06213Y05675D02*
G03*
X06213Y05675I-00008J0D01*
G01*
Y0092D02*
G03*
X06213Y0092I-00008J0D01*
G01*
X01058D02*
G03*
X01058Y0092I-00008J0D01*
G01*
Y05675D02*
G03*
X01058Y05675I-00008J0D01*
G01*
X053085Y0527D02*
G03*
X053085Y0527I-00008J0D01*
G01*
X0571D02*
G03*
X0571Y0527I-00008J0D01*
G01*
X019288Y0429D02*
G03*
X019288Y0429I-00008J0D01*
G01*
X015272D02*
G03*
X015272Y0429I-00008J0D01*
G01*
X019288Y0478D02*
G03*
X019288Y0478I-00008J0D01*
G01*
X015272D02*
G03*
X015272Y0478I-00008J0D01*
G01*
X019288Y0527D02*
G03*
X019288Y0527I-00008J0D01*
G01*
X015272D02*
G03*
X015272Y0527I-00008J0D01*
G01*
D50*
X06209Y05675D02*
G03*
X06209Y05675I-00004J0D01*
G01*
Y0092D02*
G03*
X06209Y0092I-00004J0D01*
G01*
X01054D02*
G03*
X01054Y0092I-00004J0D01*
G01*
Y05675D02*
G03*
X01054Y05675I-00004J0D01*
G01*
M02*
