M48
;Layer_Color=9474304
;FILE_FORMAT=2:4
INCH,LZ
;TYPE=PLATED
T1F00S00C0.0236
T2F00S00C0.0276
T3F00S00C0.0280
T4F00S00C0.0310
T5F00S00C0.0315
T6F00S00C0.0390
T7F00S00C0.0400
T8F00S00C0.0402
T9F00S00C0.0472
T10F00S00C0.0500
T11F00S00C0.0787
T12F00S00C0.1181
%
T01
X055134Y013
X05915
X05485Y019992
X0538
Y024008
X05485
X05965Y025192
Y029208
X05565Y030092
X0545
X05335
X0522
X015192Y038
Y0429
X019208
Y038
X053005
X05702
Y0429
X053005
X05335Y034108
X0545
X05565
X0522
X053005Y0478
X05702
Y0527
X053005
X019208
Y0478
X015192
Y0527
T02
X022791Y01535
X027831
X029921
X03496
X037051
X04209
X04418
X04922
Y02205
Y02885
X0571Y02765
Y02665
X0582Y0266
Y0276
X04418Y02885
X04209
X037051
X03496
Y02205
X037051
X04209
X04418
X029921
X027831
X022791
X02273Y02875
X02777
X029921Y02885
X030021Y0354
X027931
X022891
X03506
X037151
X04219
X04428
X04932
T03
X0165Y0154
X05325Y01465
X05375Y0135
X05275Y01345
X054826Y0152
X0575Y01365
X0587Y01615
X05405Y0166
X054Y0172
X05395Y0184
Y0191
X0575Y02155
X05695Y0256
X056455Y026389
X05065Y016
X03925Y0294
X0363Y02945
X0218Y02765
Y02375
X02175Y0229
X02215Y02175
X022132Y021132
X0214Y01855
X01785Y0341
X01775Y035
Y0357
X0322Y0363
T04
X0527Y02565
X0537
X0547
X0557
Y02865
X0547
X0537
X0527
X0408Y0371
X0398
X0388
X0378
X0368
X0358
X0348
X0338
Y0401
X0348
X0358
X0368
X0378
X0388
X0398
X0408
T05
X0249Y05185
X0259
X0269
T06
X0315Y05475
X0325
X0335
X0345
X0355
X0365
X0375
X0385
X0305
X0295
X0285
X0275
X0265
X0255
X0245
X0235
T07
X0143Y0403
X0153
Y045183
X0143
X056813Y045158
X057813
Y040275
X056813
Y050041
X057813
Y054925
X056813
X0153Y05495
X0143
Y050067
X0153
T08
X05985Y0144
Y0154
X06085
Y0144
Y0164
X05985
Y0174
Y0184
Y0194
Y0204
Y0214
Y0224
Y0234
X06085
Y0224
Y0214
Y0204
Y0194
Y0184
Y0174
X01915Y0172
Y0162
Y0182
Y0192
Y0202
Y0212
Y0222
Y0232
Y0242
Y0252
Y0262
Y0272
Y0282
Y0292
Y0302
X01315Y03015
Y02915
Y02815
Y02715
Y02615
Y02515
Y02415
Y02315
Y02215
Y02115
Y02015
Y01915
Y01815
Y01715
Y01615
T09
X02289Y011
X0229Y013
X0279
Y011
X030019
X030029Y013
X035029
Y011
X037149
X037159Y013
X042159
Y011
X044279
X044289Y013
X049289
Y011
Y0176
Y0196
Y024349
Y026349
Y031048
X044279
X042159
Y026349
Y024349
X044279
X044289Y026349
Y0196
X044279Y0176
X042159
Y0196
X037159
X037149Y0176
X035029
Y0196
Y024349
Y026349
X037159
X037149Y024349
Y031048
X035029
X030019
X0279
Y026349
Y024349
X030019
X030029Y026349
Y0196
X030019Y0176
X0279
Y0196
X0229
X02289Y0176
Y024349
X0229Y026349
X02289Y031048
X0229Y033048
X0279
X030029
X035029
X037159
X042159
X044289
X049289
T10
X05195Y01095
X05395
X05605
X05805
T11
X0254Y01025
Y01375
X032529
Y01025
X039659
Y01375
X046789
Y01025
Y01685
Y02035
Y023599
Y027099
Y030298
X039659
Y027099
Y023599
Y02035
Y01685
X032529
Y02035
Y023599
Y027099
Y030298
X0254
Y027099
Y023599
Y02035
Y01685
Y033798
X032529
X039659
X046789
T12
X0105Y0092
X06205
Y05675
X0105
M30
