G04*
G04 #@! TF.GenerationSoftware,Altium Limited,Altium Designer,20.2.5 (213)*
G04*
G04 Layer_Color=255*
%FSTAX24Y24*%
%MOIN*%
G70*
G04*
G04 #@! TF.SameCoordinates,E6115DE1-F2E3-4B59-8193-A89D5BA3A6A3*
G04*
G04*
G04 #@! TF.FilePolarity,Positive*
G04*
G01*
G75*
%ADD32C,0.1100*%
%ADD33C,0.0551*%
%ADD34O,0.0600X0.0900*%
%ADD35R,0.0600X0.0900*%
%ADD36C,0.0945*%
%ADD37C,0.0787*%
%ADD38C,0.0591*%
%ADD39C,0.0650*%
%ADD40P,0.0704X8X22.5*%
%ADD41O,0.0620X0.0900*%
%ADD42R,0.0620X0.0900*%
%ADD43C,0.0598*%
%ADD44R,0.0598X0.0598*%
%ADD45C,0.1575*%
%ADD46O,0.0630X0.0787*%
D32*
X05605Y01095D02*
D03*
X05805D02*
D03*
X05195D02*
D03*
X05395D02*
D03*
D33*
X05565Y030092D02*
D03*
Y034108D02*
D03*
X0545Y030092D02*
D03*
Y034108D02*
D03*
X05335Y030092D02*
D03*
Y034108D02*
D03*
X0522Y030092D02*
D03*
Y034108D02*
D03*
X05702Y0478D02*
D03*
X053005D02*
D03*
X05702Y0429D02*
D03*
X053005D02*
D03*
Y038D02*
D03*
X05702D02*
D03*
X0538Y024008D02*
D03*
Y019992D02*
D03*
X05915Y013D02*
D03*
X055134D02*
D03*
X05485Y019992D02*
D03*
Y024008D02*
D03*
X05965Y029208D02*
D03*
Y025192D02*
D03*
X015192Y038D02*
D03*
X019208D02*
D03*
X053005Y0527D02*
D03*
X05702D02*
D03*
X019208Y0429D02*
D03*
X015192D02*
D03*
X019208Y0478D02*
D03*
X015192D02*
D03*
X019208Y0527D02*
D03*
X015192D02*
D03*
D34*
X0338Y0371D02*
D03*
X0348D02*
D03*
X0358D02*
D03*
X0368D02*
D03*
X0378D02*
D03*
X0388D02*
D03*
X0398D02*
D03*
X0408D02*
D03*
X0338Y0401D02*
D03*
X0348D02*
D03*
X0358D02*
D03*
X0368D02*
D03*
X0378D02*
D03*
X0388D02*
D03*
X0398D02*
D03*
X0547Y02865D02*
D03*
X0537D02*
D03*
X0527D02*
D03*
X0557Y02565D02*
D03*
X0547D02*
D03*
X0537D02*
D03*
X0527D02*
D03*
D35*
X0408Y0401D02*
D03*
X0557Y02865D02*
D03*
D36*
X039659Y01375D02*
D03*
Y01025D02*
D03*
X032529Y01375D02*
D03*
Y01025D02*
D03*
X0254Y01375D02*
D03*
Y01025D02*
D03*
X046789Y02035D02*
D03*
Y01685D02*
D03*
X039659Y02035D02*
D03*
Y01685D02*
D03*
X032529Y02035D02*
D03*
Y01685D02*
D03*
X0254Y027099D02*
D03*
Y023599D02*
D03*
X032529Y027099D02*
D03*
Y023599D02*
D03*
X039659Y027099D02*
D03*
Y023599D02*
D03*
Y033798D02*
D03*
Y030298D02*
D03*
X046789D02*
D03*
Y033798D02*
D03*
X032529D02*
D03*
Y030298D02*
D03*
X046789Y01375D02*
D03*
Y01025D02*
D03*
X0254Y02035D02*
D03*
Y01685D02*
D03*
X046789Y027099D02*
D03*
Y023599D02*
D03*
X0254Y030298D02*
D03*
Y033798D02*
D03*
D37*
X037149Y011D02*
D03*
X037159Y013D02*
D03*
X042159D02*
D03*
Y011D02*
D03*
X030019D02*
D03*
X030029Y013D02*
D03*
X035029D02*
D03*
Y011D02*
D03*
X02289D02*
D03*
X0229Y013D02*
D03*
X0279D02*
D03*
Y011D02*
D03*
X044279Y0176D02*
D03*
X044289Y0196D02*
D03*
X049289D02*
D03*
Y0176D02*
D03*
X037149D02*
D03*
X037159Y0196D02*
D03*
X042159D02*
D03*
Y0176D02*
D03*
X030019D02*
D03*
X030029Y0196D02*
D03*
X035029D02*
D03*
Y0176D02*
D03*
X02289Y024349D02*
D03*
X0229Y026349D02*
D03*
X0279D02*
D03*
Y024349D02*
D03*
X030019D02*
D03*
X030029Y026349D02*
D03*
X035029D02*
D03*
Y024349D02*
D03*
X037149D02*
D03*
X037159Y026349D02*
D03*
X042159D02*
D03*
Y024349D02*
D03*
X037149Y031048D02*
D03*
X037159Y033048D02*
D03*
X042159D02*
D03*
Y031048D02*
D03*
X049289D02*
D03*
Y033048D02*
D03*
X044289D02*
D03*
X044279Y031048D02*
D03*
X030019D02*
D03*
X030029Y033048D02*
D03*
X035029D02*
D03*
Y031048D02*
D03*
X044279Y011D02*
D03*
X044289Y013D02*
D03*
X049289D02*
D03*
Y011D02*
D03*
X02289Y0176D02*
D03*
X0229Y0196D02*
D03*
X0279D02*
D03*
Y0176D02*
D03*
X044279Y024349D02*
D03*
X044289Y026349D02*
D03*
X049289D02*
D03*
Y024349D02*
D03*
X0279Y031048D02*
D03*
Y033048D02*
D03*
X0229D02*
D03*
X02289Y031048D02*
D03*
D38*
X04922Y01535D02*
D03*
X04418D02*
D03*
X04209D02*
D03*
X037051D02*
D03*
X03496D02*
D03*
X029921D02*
D03*
X027831D02*
D03*
X022791D02*
D03*
X04922Y02205D02*
D03*
X04418D02*
D03*
X037051D02*
D03*
X04209D02*
D03*
X029921D02*
D03*
X03496D02*
D03*
X022791D02*
D03*
X027831D02*
D03*
X04922Y02885D02*
D03*
X04418D02*
D03*
X04209D02*
D03*
X037051D02*
D03*
X03496D02*
D03*
X029921D02*
D03*
X02273Y02875D02*
D03*
X02777D02*
D03*
X04932Y0354D02*
D03*
X04428D02*
D03*
X037151D02*
D03*
X04219D02*
D03*
X030021D02*
D03*
X03506D02*
D03*
X022891D02*
D03*
X027931D02*
D03*
X0582Y0276D02*
D03*
Y0266D02*
D03*
X0571Y02765D02*
D03*
Y02665D02*
D03*
D39*
X057813Y045158D02*
D03*
Y050041D02*
D03*
Y040275D02*
D03*
X0143Y050067D02*
D03*
Y045183D02*
D03*
Y0403D02*
D03*
Y05495D02*
D03*
X057813Y054925D02*
D03*
D40*
X056813Y045158D02*
D03*
Y050041D02*
D03*
Y040275D02*
D03*
X0153Y050067D02*
D03*
Y045183D02*
D03*
Y0403D02*
D03*
Y05495D02*
D03*
X056813Y054925D02*
D03*
D41*
X0385Y05475D02*
D03*
X0375D02*
D03*
X0365D02*
D03*
X0355D02*
D03*
X0345D02*
D03*
X0335D02*
D03*
X0325D02*
D03*
X0315D02*
D03*
X0305D02*
D03*
X0295D02*
D03*
X0285D02*
D03*
X0275D02*
D03*
X0265D02*
D03*
X0255D02*
D03*
X0245D02*
D03*
D42*
X0235D02*
D03*
D43*
X01315Y02115D02*
D03*
Y02215D02*
D03*
Y02415D02*
D03*
Y02515D02*
D03*
Y02615D02*
D03*
Y02715D02*
D03*
Y02815D02*
D03*
Y02915D02*
D03*
Y03015D02*
D03*
Y02315D02*
D03*
Y02015D02*
D03*
Y01915D02*
D03*
Y01815D02*
D03*
Y01715D02*
D03*
Y01615D02*
D03*
X01915Y0172D02*
D03*
Y0182D02*
D03*
Y0192D02*
D03*
Y0202D02*
D03*
Y0232D02*
D03*
Y0302D02*
D03*
Y0292D02*
D03*
Y0282D02*
D03*
Y0272D02*
D03*
Y0262D02*
D03*
Y0252D02*
D03*
Y0242D02*
D03*
Y0222D02*
D03*
Y0212D02*
D03*
X05985Y0144D02*
D03*
Y0154D02*
D03*
Y0164D02*
D03*
Y0174D02*
D03*
Y0184D02*
D03*
Y0194D02*
D03*
Y0204D02*
D03*
Y0214D02*
D03*
Y0224D02*
D03*
Y0234D02*
D03*
X06085D02*
D03*
Y0224D02*
D03*
Y0214D02*
D03*
Y0204D02*
D03*
Y0194D02*
D03*
Y0184D02*
D03*
Y0174D02*
D03*
Y0164D02*
D03*
Y0154D02*
D03*
D44*
X01915Y0162D02*
D03*
X06085Y0144D02*
D03*
D45*
X06205Y05675D02*
D03*
Y0092D02*
D03*
X0105D02*
D03*
Y05675D02*
D03*
D46*
X0249Y05185D02*
D03*
X0259D02*
D03*
X0269D02*
D03*
M02*
